<?xml version="1.0" standalone="no"?>
<!DOCTYPE svg PUBLIC "-//W3C//DTD SVG 20010904//EN"
 "http://www.w3.org/TR/2001/REC-SVG-20010904/DTD/svg10.dtd">
<svg version="1.0" xmlns="http://www.w3.org/2000/svg"
 width="1366.000000pt" height="685.000000pt" viewBox="0 0 1366.000000 685.000000"
 preserveAspectRatio="xMidYMid meet">

<g transform="translate(0.000000,685.000000) scale(0.100000,-0.100000)"
fill="#000000" stroke="none">
<path d="M13520 6650 l0 -40 40 0 40 0 0 40 0 40 -40 0 -40 0 0 -40z"/>
<path d="M12120 6417 c0 -24 -6 -49 -12 -56 -11 -11 -10 -13 0 -7 8 5 19 -7
32 -36 26 -58 25 -87 -6 -123 -14 -16 -22 -24 -18 -16 5 9 3 12 -5 7 -6 -4 -9
-11 -6 -16 7 -12 -64 -72 -77 -64 -6 4 -8 3 -5 -3 10 -16 -99 -53 -157 -53
-53 0 -53 0 -64 39 -24 77 -72 82 -72 7 0 -36 5 -48 26 -63 23 -17 24 -22 14
-48 -6 -17 -28 -47 -48 -68 -41 -43 -122 -102 -122 -90 0 4 -4 3 -8 -3 -9 -14
-72 -47 -72 -38 0 4 -6 1 -14 -5 -8 -6 -40 -12 -71 -13 -44 -1 -61 2 -70 15
-16 23 -45 22 -45 -1 0 -36 -78 -138 -178 -234 -118 -112 -160 -138 -231 -138
-71 0 -96 13 -117 59 -11 26 -24 41 -36 41 -24 0 -24 -49 1 -81 60 -78 103
-206 104 -312 0 -104 -30 -174 -112 -258 -56 -58 -58 -59 -114 -59 -73 0 -123
23 -131 61 -4 23 -11 29 -31 29 -19 0 -25 -5 -25 -23 0 -13 5 -28 10 -33 15
-15 -6 -113 -45 -206 -32 -76 -118 -201 -165 -241 -26 -22 -75 -33 -84 -18 -4
6 -14 11 -22 11 -24 0 -15 -34 20 -69 19 -18 49 -62 66 -96 29 -57 32 -71 28
-131 -4 -65 -6 -69 -47 -105 -24 -21 -60 -43 -80 -49 -20 -5 -109 -10 -198
-10 -135 0 -163 -2 -163 -14 0 -8 -11 -23 -23 -33 -13 -10 -29 -28 -36 -41 -6
-12 -16 -22 -21 -22 -5 0 -35 21 -67 48 -32 26 -84 67 -115 90 -98 75 -152
153 -187 269 -28 93 -62 131 -158 176 -93 43 -240 87 -293 87 -20 0 -85 16
-143 35 -78 26 -123 35 -172 35 -49 0 -78 6 -113 24 -26 13 -70 31 -98 40 -29
9 -80 39 -114 66 -34 28 -66 50 -71 50 -28 0 3 43 109 153 198 205 219 239
305 488 36 103 37 110 37 252 0 127 -3 156 -25 224 -49 156 -173 317 -302 392
-32 19 -82 49 -110 68 -29 18 -63 33 -76 33 -14 0 -53 -13 -88 -29 -35 -16
-116 -46 -179 -66 -130 -42 -295 -114 -355 -155 -58 -40 -230 -215 -280 -285
-43 -59 -157 -256 -202 -347 -13 -27 -25 -48 -28 -48 -2 0 -17 12 -32 26 -164
154 -333 251 -573 329 -47 15 -155 56 -240 90 -101 41 -193 70 -264 85 -60 12
-144 34 -185 48 -74 26 -85 27 -344 30 -228 3 -289 0 -405 -17 -75 -11 -174
-23 -220 -26 -46 -4 -107 -13 -135 -21 -29 -8 -111 -29 -183 -48 -72 -19 -153
-47 -180 -62 -111 -61 -172 -100 -235 -151 -78 -62 -267 -258 -282 -290 -14
-31 -22 -29 -48 15 -12 20 -48 66 -79 102 -31 36 -78 94 -105 130 -112 148
-135 166 -520 403 -118 73 -139 82 -276 121 -123 35 -129 36 -300 36 -157 -1
-297 -11 -339 -25 -16 -6 -189 -349 -241 -480 -40 -102 -47 -184 -25 -333 30
-204 88 -357 180 -478 29 -37 34 -50 25 -65 -11 -22 4 -59 24 -59 7 -1 -19
-17 -58 -37 -72 -36 -125 -86 -455 -430 -84 -87 -131 -127 -175 -150 -67 -34
-187 -59 -241 -49 -25 5 -34 3 -33 -6 1 -20 128 -118 194 -149 121 -56 335
-62 519 -14 85 23 296 91 340 110 17 7 16 3 -6 -26 -14 -19 -44 -72 -67 -119
-72 -152 -202 -324 -344 -456 -134 -124 -175 -151 -288 -190 -102 -36 -106
-36 -212 -30 l-108 7 -40 -43 c-47 -51 -73 -95 -60 -103 5 -3 67 15 138 41 70
25 167 54 214 64 50 10 123 36 171 59 l84 41 304 -1 c168 -1 364 -4 435 -8
l130 -6 -50 -38 c-27 -22 -126 -84 -220 -139 -93 -55 -192 -121 -218 -147 -27
-25 -92 -107 -145 -181 -153 -215 -203 -260 -305 -275 -49 -8 -66 -20 -50 -36
9 -9 439 4 606 19 48 4 87 5 87 1 0 -3 -30 -33 -68 -66 -184 -165 -225 -218
-285 -363 -48 -119 -60 -288 -28 -400 23 -83 85 -217 114 -248 12 -13 45 -40
72 -58 28 -19 72 -50 99 -69 47 -34 104 -46 132 -27 8 4 13 56 15 145 5 159 5
159 102 195 84 31 117 35 117 14 0 -42 45 -193 78 -260 29 -58 54 -90 118
-151 l83 -77 7 -78 c5 -54 11 -79 21 -83 18 -7 35 16 29 39 -10 43 109 149
255 226 93 50 239 104 312 116 l37 7 -33 -53 c-18 -29 -38 -66 -45 -81 -13
-31 -62 -230 -62 -253 0 -29 31 -26 73 8 123 99 249 149 517 202 171 33 259
42 265 24 3 -7 8 -53 13 -103 l7 -90 80 -2 c79 -3 81 -2 135 36 131 93 147
100 301 121 78 11 148 20 154 20 6 0 31 -41 55 -91 55 -111 75 -129 144 -129
76 0 138 35 218 123 89 99 108 107 250 107 63 0 140 5 170 11 50 10 58 16 83
55 43 68 137 86 218 40 23 -13 68 -29 100 -35 37 -8 70 -23 90 -41 37 -32 150
-100 167 -100 6 0 22 12 36 28 14 15 74 59 132 99 l107 71 14 -26 c16 -31 85
-119 114 -145 24 -22 97 -22 152 0 171 67 256 79 330 48 53 -21 143 -112 155
-154 17 -59 35 -76 84 -76 59 0 125 47 279 198 67 66 138 130 157 143 32 22
38 22 82 11 92 -24 167 -122 192 -252 16 -80 37 -84 104 -21 66 62 155 114
210 122 25 4 105 1 176 -5 115 -11 139 -17 201 -47 116 -57 137 -49 224 88 47
73 212 238 238 238 10 0 55 -18 101 -41 80 -39 85 -44 109 -96 39 -85 41 -134
9 -184 -34 -51 -28 -73 17 -67 519 73 507 72 582 54 94 -22 102 -21 124 14 10
16 21 27 26 22 5 -4 6 -2 2 4 -3 5 3 44 14 85 17 65 20 104 18 314 -1 272 -3
278 -77 345 l-46 43 33 29 c17 16 45 31 61 35 19 3 36 17 49 39 11 19 26 34
33 34 33 1 164 21 199 30 21 6 39 17 39 24 0 7 9 25 20 39 43 54 201 42 296
-23 51 -36 90 -89 105 -143 14 -52 32 -42 42 23 15 105 91 225 169 266 29 15
52 19 30 5 -11 -7 -11 -9 2 -14 9 -4 15 -3 15 1 -4 26 4 32 50 32 80 0 116
-40 130 -145 4 -35 11 -50 21 -50 11 0 17 18 22 74 11 105 79 244 111 224 6
-3 7 -1 4 4 -4 6 1 17 11 26 23 21 112 58 123 52 4 -3 3 8 -3 26 -6 18 -22 36
-38 43 -15 6 -28 16 -28 21 -3 26 146 143 162 128 3 -4 6 -2 6 4 0 13 58 35
71 27 5 -3 9 0 9 7 0 6 8 9 20 6 11 -3 20 -1 20 4 0 5 7 9 16 9 9 0 13 -5 9
-12 -4 -7 0 -5 9 6 8 10 22 16 31 13 8 -4 15 -3 15 2 0 4 25 13 56 20 63 14
75 31 51 73 -9 16 -13 36 -10 45 4 11 3 14 -5 9 -8 -5 -12 3 -12 26 0 26 3 30
11 18 8 -12 9 -10 4 8 -8 28 2 62 18 58 7 -1 9 -1 5 1 -13 8 -9 20 18 53 36
42 79 63 139 67 28 1 61 5 75 8 17 4 20 3 12 -3 -11 -7 -8 -11 10 -17 l23 -7
-25 -8 c-20 -6 -21 -8 -5 -8 11 0 29 3 39 7 19 7 18 8 -5 15 -13 4 -19 10 -12
12 21 9 66 -20 100 -64 32 -42 43 -69 24 -57 -5 3 -13 1 -16 -5 -4 -6 -1 -9 7
-8 8 2 13 -7 12 -24 0 -15 4 -25 8 -22 4 3 8 0 8 -5 0 -24 30 -9 36 17 3 15 8
34 11 42 3 8 6 24 7 35 6 68 42 218 53 222 7 3 13 9 13 15 0 5 -4 6 -10 3 -5
-3 -10 4 -10 15 0 16 4 20 16 16 14 -5 15 -4 5 8 -7 8 -11 23 -8 33 3 15 6 14
14 -7 10 -23 11 -23 10 12 -1 25 -4 33 -10 25 -8 -11 -5 3 10 58 3 11 13 26
22 33 9 8 10 10 3 7 -7 -4 0 19 17 52 45 89 54 98 98 98 44 0 68 -19 67 -52
-1 -19 -1 -20 3 -3 3 15 10 19 22 15 30 -9 47 32 27 63 -10 17 2 68 14 56 5
-5 10 -22 12 -39 3 -26 4 -24 9 12 3 26 1 42 -6 42 -32 -4 -45 3 -45 23 0 17
3 19 12 10 14 -14 28 -16 28 -4 0 5 -12 14 -26 21 -21 9 -25 16 -20 36 4 14 2
25 -3 25 -5 0 -9 56 -9 125 0 139 6 154 52 129 18 -9 33 -11 40 -5 6 5 20 11
31 14 19 4 19 5 -1 6 -12 0 -27 8 -34 16 -7 8 -21 15 -31 15 -9 0 -25 7 -33
16 -18 17 -22 39 -6 29 6 -3 10 -2 10 4 0 5 -4 12 -9 16 -13 8 -5 217 9 225 6
4 8 15 4 25 -5 13 -4 16 5 11 9 -6 10 0 6 21 -5 22 -4 25 5 13 9 -12 10 -9 5
13 -4 21 -3 27 6 21 7 -4 9 -3 6 4 -9 13 2 44 13 37 4 -2 6 -16 4 -31 -1 -14
0 -23 3 -20 11 10 12 55 2 61 -10 7 13 47 50 87 16 18 28 24 36 18 6 -5 17 -5
24 -1 9 6 10 11 2 15 -6 4 -11 2 -11 -5 0 -10 -3 -10 -11 -2 -9 9 2 27 43 73
74 82 72 90 -50 171 -54 35 -114 79 -135 98 -40 36 -82 105 -72 121 3 5 0 12
-6 16 -14 8 -3 108 17 146 8 15 31 40 51 55 33 25 45 28 113 28 72 0 76 1 72
21 -3 16 -9 19 -33 16 -18 -3 -29 0 -29 7 0 7 -5 9 -10 6 -16 -10 -71 5 -64
17 4 7 2 8 -5 4 -31 -20 -220 115 -208 148 4 9 1 15 -6 13 -6 -1 -13 9 -15 23
-2 17 0 21 6 12 6 -10 9 -5 8 16 -1 17 -4 28 -8 25 -10 -5 -11 61 -1 70 3 4 7
18 9 31 1 13 10 37 19 53 l16 28 -5 -32 c-4 -21 0 -37 10 -48 19 -19 25 -19
18 0 -4 8 -9 15 -13 15 -11 0 -5 84 9 113 7 15 16 27 19 27 4 0 7 15 6 33 0
19 -5 32 -12 31 -30 -2 -34 -5 -28 -14 16 -27 -83 -155 -168 -217 -43 -32 -59
-38 -109 -39 -53 -2 -79 8 -63 24 3 3 10 0 15 -8 6 -9 10 -10 10 -3 0 6 -4 14
-9 18 -6 3 -4 19 5 40 8 19 14 46 14 60 0 23 -4 26 -27 23 -34 -4 -53 -38 -53
-97 0 -46 -34 -116 -51 -105 -5 3 -9 2 -8 -3 4 -22 -2 -34 -13 -27 -7 4 -10 4
-6 -1 11 -11 -12 -36 -25 -28 -5 3 -7 2 -4 -4 9 -15 -39 -57 -57 -50 -9 4 -16
14 -16 23 0 14 2 15 18 3 15 -13 16 -12 3 3 -7 10 -18 15 -23 12 -7 -4 -9 19
-6 66 2 43 9 75 15 77 7 3 9 11 6 20 -4 10 -2 14 4 10 6 -4 10 1 9 11 0 9 5
16 12 14 8 -1 11 2 7 8 -9 14 14 52 27 44 7 -4 8 -2 4 5 -9 13 12 44 24 36 4
-3 11 2 14 11 4 10 2 13 -7 8 -8 -5 -8 -2 2 9 7 9 17 14 22 11 5 -3 6 1 3 9
-5 14 67 87 86 87 12 0 13 37 1 44 -5 3 -20 -3 -34 -14 -26 -20 -83 -28 -72
-10 3 6 -1 7 -9 4 -17 -6 -76 48 -76 70 0 6 5 4 10 -4 6 -9 10 -10 10 -3 0 7
-6 16 -13 20 -8 4 -16 16 -20 26 -8 22 3 78 13 72 16 -10 -12 70 -31 91 -12
12 -17 28 -13 37 3 10 1 17 -5 17 -6 0 -11 7 -11 15 0 8 -9 15 -20 15 -17 0
-20 -7 -20 -43z m60 -85 c0 -15 -2 -15 -10 -2 -13 20 -13 33 0 25 6 -3 10 -14
10 -23z m-4040 -84 c22 -13 40 -26 40 -29 0 -7 -39 -18 -180 -49 -112 -24
-191 -64 -201 -100 -4 -14 -8 -52 -8 -85 -1 -42 -12 -85 -34 -140 l-32 -80
-125 -51 c-304 -122 -334 -153 -290 -295 11 -39 24 -93 27 -119 l6 -48 -53
-38 c-73 -54 -130 -109 -130 -125 1 -38 14 -42 240 -79 36 -6 85 -23 110 -37
25 -14 59 -33 75 -41 17 -9 49 -35 72 -58 28 -27 57 -45 86 -52 34 -9 57 -26
104 -76 77 -80 147 -111 235 -102 55 5 58 4 113 -39 32 -24 74 -49 94 -56 20
-6 71 -27 114 -45 63 -27 91 -34 145 -34 51 0 91 -9 167 -35 61 -21 119 -35
148 -35 91 0 328 -94 359 -142 8 -13 27 -58 42 -101 44 -121 106 -196 256
-311 41 -32 106 -85 144 -119 38 -34 90 -81 115 -104 26 -23 66 -53 90 -66
l43 -25 -73 -35 c-41 -19 -96 -41 -124 -50 -140 -43 -287 -77 -332 -77 -120 0
-353 84 -492 179 -180 121 -295 161 -464 161 -109 0 -133 -9 -125 -46 2 -9 52
-44 112 -79 171 -98 193 -117 273 -240 131 -202 167 -247 293 -366 156 -146
214 -193 276 -220 l49 -22 -110 -53 c-101 -48 -116 -53 -183 -53 -81 -1 -159
14 -337 66 -224 65 -312 112 -469 252 -82 73 -108 82 -331 116 -206 31 -319
35 -341 13 -26 -25 -10 -60 43 -98 106 -76 112 -92 132 -348 15 -180 57 -256
205 -370 53 -41 58 -47 38 -50 -45 -7 -188 30 -267 68 -64 31 -105 62 -208
158 -146 136 -195 166 -351 212 -155 45 -244 81 -354 143 -128 72 -139 75
-154 42 -15 -33 1 -117 40 -214 21 -51 43 -83 97 -137 38 -38 86 -82 105 -97
l35 -28 -45 6 c-112 15 -188 51 -373 175 -114 75 -143 100 -186 159 -33 44
-65 75 -89 86 -38 18 -223 134 -232 146 -8 11 -108 29 -125 23 -8 -3 -12 -11
-9 -18 3 -6 -15 12 -41 39 -52 57 -89 123 -99 178 -6 30 -4 37 9 37 29 0 159
72 198 109 63 60 90 122 95 223 l4 88 -38 38 c-78 78 -258 116 -340 74 -71
-37 -164 -153 -164 -205 0 -16 -5 -15 -34 10 -40 36 -112 72 -159 80 -51 8
-143 -15 -177 -44 -44 -37 -86 -102 -92 -143 -8 -52 12 -90 96 -178 81 -84
165 -138 236 -150 l40 -7 -42 -72 c-37 -62 -45 -70 -57 -58 -12 12 -27 7 -102
-30 -48 -25 -112 -64 -141 -87 -147 -119 -193 -144 -328 -178 -122 -31 -175
-67 -297 -202 -58 -64 -113 -120 -122 -123 -9 -4 -54 -20 -101 -37 -47 -17
-138 -57 -203 -90 -94 -47 -214 -98 -233 -98 -2 0 5 15 16 32 10 18 46 117 80
221 56 175 60 194 60 282 0 96 -6 111 -39 100 -18 -5 -32 -35 -58 -120 -6 -21
-34 -49 -95 -95 -47 -36 -106 -82 -130 -103 -78 -64 -261 -151 -439 -207 -90
-28 -190 -60 -221 -70 -32 -10 -58 -18 -58 -16 0 1 12 27 26 56 14 30 39 89
55 132 81 221 91 240 326 640 57 98 111 190 119 206 16 34 10 62 -15 62 -22 0
-153 -135 -170 -175 -7 -18 -34 -44 -68 -65 -31 -19 -85 -68 -122 -109 -189
-212 -181 -207 -356 -245 -66 -15 -133 -31 -150 -36 -16 -5 -77 -21 -135 -34
-107 -25 -112 -23 -44 21 11 6 14 12 8 12 -6 1 -32 -13 -58 -30 -25 -17 -65
-35 -87 -40 -46 -11 -414 -39 -506 -39 l-62 0 47 48 c26 27 95 116 155 200 59
83 127 167 150 187 23 20 96 68 162 107 195 114 274 169 339 233 33 34 92 83
130 110 90 64 157 155 112 155 -20 0 -101 -63 -186 -146 -93 -89 -99 -90 -346
-75 -99 6 -279 9 -401 7 l-222 -3 47 42 c26 23 64 57 85 75 104 90 281 330
339 457 38 86 126 202 178 237 39 26 48 40 32 50 -5 3 -52 -24 -106 -59 -82
-54 -120 -71 -239 -109 -231 -73 -260 -78 -442 -74 -186 5 -239 20 -319 90
l-48 43 92 23 c148 36 240 108 449 352 95 112 246 246 320 285 36 19 70 35 76
35 5 0 19 13 30 28 l20 27 -30 -19 c-27 -18 -29 -18 -15 -1 13 16 12 19 -9 34
-45 31 -76 68 -120 146 -86 149 -131 329 -131 515 0 106 18 174 81 305 38 80
139 265 144 265 2 0 14 -4 27 -9 13 -5 64 -22 113 -37 85 -26 144 -60 266
-152 39 -29 109 -128 109 -154 0 -60 150 -246 233 -289 60 -31 127 -101 127
-133 0 -14 7 -43 15 -63 14 -33 14 -38 0 -45 -22 -13 -19 -45 6 -58 11 -7 19
-14 16 -16 -2 -2 -40 -11 -84 -18 -44 -8 -104 -22 -134 -30 -30 -9 -78 -20
-107 -26 -29 -5 -76 -20 -105 -34 -30 -13 -74 -30 -98 -37 -24 -7 -79 -37
-123 -66 -43 -30 -98 -59 -122 -65 -51 -14 -60 -33 -12 -23 42 9 78 28 151 77
32 22 81 46 110 55 29 8 72 25 97 38 25 12 61 26 80 29 19 4 82 18 140 31 58
14 147 29 197 34 51 5 97 13 103 16 16 10 11 43 -8 57 -34 24 -79 97 -86 139
-9 57 -34 89 -107 135 -78 49 -174 137 -207 189 -14 22 -35 65 -47 95 -40 102
-93 157 -245 259 -59 39 -216 101 -258 101 -34 0 -44 15 -31 42 20 45 48 50
294 55 l230 5 110 -32 c134 -39 164 -54 380 -188 247 -154 302 -199 393 -322
22 -30 63 -82 92 -115 28 -33 70 -88 93 -122 34 -51 46 -63 68 -63 21 0 33 9
50 39 13 21 65 82 114 135 196 211 341 301 585 366 85 23 157 43 161 46 4 2
56 9 116 15 59 5 172 19 250 30 121 17 180 20 390 17 228 -4 253 -6 308 -27
33 -12 117 -35 186 -51 70 -16 184 -52 255 -80 71 -29 192 -74 269 -102 142
-51 296 -124 344 -163 14 -12 46 -35 71 -53 25 -17 72 -56 105 -87 57 -54 59
-57 38 -66 -33 -12 -28 -41 11 -72 60 -48 52 -149 -19 -242 -40 -52 -24 -61
22 -12 51 54 83 128 83 195 0 34 -6 66 -14 77 -12 17 -11 20 7 30 13 6 25 27
32 56 13 48 126 257 202 371 52 78 216 249 285 296 64 44 158 85 314 138 72
24 156 55 185 68 67 31 71 31 119 4z m167 -105 c32 -26 64 -54 71 -62 38 -47
104 -154 128 -211 26 -60 29 -76 32 -221 l4 -157 -40 -113 c-77 -220 -100
-255 -303 -464 -53 -55 -113 -119 -134 -142 -21 -24 -44 -43 -52 -43 -27 0
-68 29 -134 94 -51 49 -76 66 -105 71 -24 5 -53 20 -75 41 -42 41 -179 121
-229 134 -19 5 -68 14 -107 20 -40 7 -73 15 -73 18 0 4 16 18 36 31 65 45 84
76 84 141 0 32 -9 87 -20 122 -30 94 -27 108 23 140 38 24 212 108 224 108 21
0 115 54 135 79 38 45 78 173 78 251 0 36 4 70 8 77 11 18 88 48 194 77 53 14
111 33 129 41 52 22 64 19 126 -32z m3889 11 c19 -40 77 -84 112 -84 l24 0
-22 -27 c-141 -183 -164 -230 -165 -333 0 -55 5 -82 18 -101 16 -25 16 -26 0
-41 -31 -26 -81 -41 -117 -34 -33 6 -35 9 -38 53 -2 26 -8 48 -14 50 -6 2 -21
-20 -33 -49 -56 -135 -226 -342 -338 -412 -53 -33 -119 -35 -150 -6 -21 19
-25 28 -37 83 -4 15 -12 27 -19 27 -24 -1 -55 -63 -123 -250 -50 -139 -142
-303 -186 -334 -57 -40 -155 -2 -172 67 -7 26 -15 37 -25 34 -19 -3 -19 -6 4
-116 14 -65 16 -115 13 -220 -6 -159 -30 -248 -100 -371 -40 -68 -46 -75 -83
-82 -92 -18 -83 -2 -81 -145 1 -121 -1 -131 -27 -188 -54 -115 -131 -170 -226
-162 -31 2 -64 8 -73 12 -16 6 -18 1 -18 -47 0 -71 -37 -119 -111 -143 -67
-23 -238 -17 -286 8 -18 10 -33 13 -33 8 0 -17 85 -42 165 -48 108 -8 180 13
235 67 28 28 41 50 46 79 l7 41 73 0 c116 0 186 48 241 165 25 53 29 74 33
190 l5 130 45 5 c60 7 64 10 106 87 89 159 120 298 111 494 -3 66 -4 119 -2
119 2 0 16 -5 32 -11 40 -16 98 -13 131 7 31 18 95 108 136 191 14 28 48 113
77 190 65 174 75 189 96 134 26 -69 125 -85 212 -34 45 26 231 205 231 222 0
4 9 19 20 31 12 13 34 48 51 77 17 29 32 53 34 53 1 0 16 -7 31 -15 53 -27
110 -19 181 25 20 13 25 12 45 -7 13 -11 38 -28 56 -37 43 -22 37 -37 -19 -51
-87 -23 -156 -76 -183 -140 -24 -57 -21 -168 6 -216 12 -22 25 -39 30 -39 4 0
8 -7 8 -15 0 -8 27 -36 60 -62 33 -25 58 -49 55 -51 -3 -3 -24 -8 -47 -11 -33
-5 -47 -13 -65 -39 -39 -58 -55 -163 -51 -331 l3 -149 -37 -6 c-175 -28 -295
-157 -306 -328 l-5 -78 -36 0 c-97 -1 -224 -63 -305 -150 -52 -55 -106 -162
-106 -208 0 -28 -4 -32 -37 -38 -69 -12 -104 -32 -184 -103 -51 -46 -119 -165
-119 -209 0 -31 -14 -35 -89 -21 -38 6 -85 9 -105 5 -82 -16 -163 -136 -174
-260 -3 -33 -10 -64 -16 -68 -6 -4 -41 -8 -78 -8 -103 0 -247 -33 -325 -74
-126 -67 -188 -136 -202 -225 -5 -30 -11 -37 -33 -39 -31 -4 -122 -96 -143
-144 -7 -18 -16 -36 -20 -40 -7 -6 -44 20 -122 86 -22 19 -23 26 -23 155 0 75
-5 153 -11 174 -12 45 -14 166 -4 257 6 60 5 68 -19 103 -14 21 -26 43 -26 50
0 7 -11 29 -25 49 -14 20 -21 39 -16 42 5 3 80 26 167 51 128 37 179 57 259
103 133 76 139 103 30 123 -63 11 -93 29 -170 97 l-49 43 17 28 c19 32 22 61
7 61 -5 0 -17 -15 -26 -32 -10 -18 -19 -28 -21 -21 -5 13 31 88 47 98 6 4 8
10 5 15 -3 5 77 10 178 12 l184 3 49 30 c66 41 94 92 93 170 0 71 -14 115 -58
178 -21 32 -27 47 -18 47 23 0 104 77 151 144 57 80 89 145 116 236 13 41 24
77 26 79 2 2 21 -4 44 -13 49 -20 110 -21 153 -3 18 8 56 40 85 72 127 138
152 293 78 475 l-24 60 70 0 c51 0 80 6 111 21 55 29 279 252 306 306 20 40
22 41 53 32 125 -36 391 123 423 253 6 24 11 26 78 30 92 4 167 39 239 113 29
29 54 54 55 54 1 1 10 -15 19 -35z m-429 -86 c-3 -7 -5 -2 -5 12 0 14 2 19 5
13 2 -7 2 -19 0 -25z m907 -260 c-21 -78 -17 -127 12 -186 28 -57 75 -99 166
-147 51 -28 57 -34 40 -39 -32 -10 -89 -80 -101 -123 -18 -65 -13 -143 13
-198 28 -61 71 -101 199 -185 53 -35 97 -69 97 -75 0 -6 -32 -47 -71 -90 -92
-102 -133 -165 -158 -240 -35 -107 -52 -294 -32 -348 7 -17 5 -37 -4 -63 -18
-51 -19 -199 -1 -291 l14 -73 -36 0 c-96 0 -219 -222 -262 -470 -6 -36 -18
-96 -27 -133 l-15 -68 -40 46 c-50 57 -120 80 -215 72 -104 -10 -171 -58 -214
-152 -24 -51 -25 -152 -3 -183 9 -13 14 -25 13 -27 -2 -2 -66 -19 -142 -39
-162 -41 -241 -81 -303 -149 -54 -60 -58 -93 -14 -110 33 -13 40 -27 12 -27
-29 0 -108 -57 -141 -102 -17 -23 -40 -65 -52 -94 l-22 -53 -19 25 c-11 13
-33 31 -48 39 -36 19 -120 19 -164 1 -69 -29 -152 -124 -182 -208 -8 -24 -16
-49 -19 -55 -3 -8 -23 8 -52 38 -56 60 -123 96 -204 111 -108 19 -192 -13
-201 -75 -3 -25 -47 -35 -158 -36 -62 -1 -68 -3 -119 -45 -30 -24 -60 -42 -67
-39 -7 2 -23 -11 -36 -31 -13 -20 -26 -36 -30 -36 -3 0 -9 29 -13 64 -6 56 -4
70 18 116 32 67 26 80 -50 104 -32 10 -76 27 -98 38 -58 29 -154 101 -155 115
0 7 15 19 34 28 49 24 93 72 78 87 -9 9 -8 16 5 30 20 22 37 23 68 2 38 -25
65 7 30 36 -17 14 -12 66 11 111 22 45 105 110 189 150 96 46 204 69 319 69
47 0 88 4 91 10 3 5 7 43 9 82 4 115 66 216 146 238 46 12 116 0 165 -29 20
-12 41 -19 46 -16 5 4 9 30 9 59 0 134 152 299 296 322 l41 6 0 52 c-2 135
191 319 352 333 38 4 61 2 65 -6 4 -6 15 -11 25 -11 16 0 17 9 13 84 -6 114
14 173 82 242 53 52 124 87 206 100 22 4 44 12 49 18 6 7 5 48 -1 106 -17 163
4 333 48 381 22 24 103 26 169 4 43 -15 65 -14 65 5 0 4 -33 27 -74 49 -86 47
-186 136 -210 185 -25 53 -21 162 7 208 43 70 129 114 250 126 74 7 100 27 50
37 -37 8 -132 52 -163 75 l-25 19 52 51 c28 28 62 67 74 85 23 34 24 34 85 28
73 -7 126 14 196 77 24 22 43 39 44 40 1 0 -5 -23 -12 -52z m-6829 -2123 c46
-16 80 -35 99 -56 26 -30 28 -36 24 -103 -4 -77 -28 -138 -76 -190 -26 -28
-173 -106 -199 -106 -7 0 -43 -13 -78 -29 -43 -20 -69 -38 -77 -55 -6 -14 -19
-26 -28 -26 -10 0 -38 -3 -64 -6 -38 -6 -46 -4 -46 10 0 9 -4 16 -10 16 -5 0
-10 -7 -10 -15 0 -23 -49 -18 -109 11 -60 30 -209 171 -235 222 -23 45 -14 80
36 143 47 60 87 79 163 79 72 0 138 -33 193 -95 23 -26 46 -44 52 -40 5 3 10
25 10 49 0 62 73 165 145 204 35 20 135 13 210 -13z m6995 15 c20 -12 11 -19
-34 -22 -20 -1 -40 -6 -42 -10 -3 -5 14 -5 38 -2 49 8 49 -2 0 -11 -50 -8 -60
4 -26 32 32 25 42 27 64 13z m20 -55 c0 -21 -2 -24 -13 -13 -10 9 -11 16 -3
25 15 17 16 16 16 -12z m-4259 -21 c73 -22 136 -54 252 -131 176 -115 378
-187 533 -188 91 0 92 0 83 -22 -5 -13 -5 -23 0 -23 4 0 16 -19 27 -42 10 -24
27 -54 36 -68 20 -28 23 -68 13 -195 -5 -59 -3 -97 9 -141 11 -41 16 -105 16
-193 l0 -131 85 -67 c47 -37 85 -73 85 -81 0 -7 4 -11 9 -8 5 3 26 -8 47 -25
61 -48 145 -95 204 -114 30 -10 56 -19 58 -20 2 -2 -3 -14 -11 -27 -16 -24
-22 -85 -19 -173 2 -48 4 -52 74 -117 l73 -68 2 -62 c4 -139 2 -454 -4 -478
-3 -14 -15 -47 -26 -73 -18 -44 -23 -48 -46 -42 -76 19 -202 16 -387 -9 -105
-14 -193 -26 -195 -26 -2 0 -4 31 -4 68 0 58 -5 79 -37 143 l-37 74 -100 47
c-54 27 -109 48 -120 48 -43 0 -209 -166 -288 -288 -29 -45 -57 -82 -62 -82
-5 0 -47 18 -92 40 -74 36 -91 40 -159 40 -41 0 -89 4 -105 8 -48 14 -154 -2
-217 -32 -32 -15 -83 -50 -113 -78 -31 -28 -58 -48 -61 -46 -3 3 -7 23 -11 44
-16 114 -116 240 -207 263 -102 25 -102 25 -291 -160 -134 -130 -212 -189
-251 -189 -18 0 -26 10 -39 49 -19 58 -106 150 -173 182 -37 18 -56 21 -140
17 -83 -4 -109 -10 -184 -41 -123 -52 -136 -51 -198 26 -28 34 -55 79 -61 100
-13 51 -40 49 -120 -8 -35 -25 -84 -57 -109 -72 -25 -14 -59 -39 -76 -55 l-32
-30 -48 27 c-27 14 -70 41 -97 60 -27 20 -70 38 -102 45 -30 6 -76 23 -101 37
-37 21 -54 25 -97 20 -29 -2 -60 -8 -70 -12 -17 -7 -18 1 -15 131 3 134 2 141
-24 195 -33 67 -33 70 -8 185 26 119 26 154 0 154 -42 0 -180 -219 -180 -284
0 -32 9 -45 74 -109 84 -83 96 -109 70 -158 -17 -32 -24 -138 -13 -194 6 -31
-49 -44 -186 -44 -177 -1 -216 -17 -306 -128 -62 -77 -116 -105 -191 -101
l-53 3 -50 100 c-35 69 -56 101 -70 104 -40 7 -281 -22 -329 -41 -26 -10 -87
-45 -134 -78 -78 -55 -90 -60 -139 -60 l-53 0 0 38 c-1 20 -6 66 -13 102 l-12
65 -65 3 c-76 4 -206 -17 -373 -59 -144 -35 -249 -78 -334 -135 -34 -23 -63
-38 -63 -34 0 5 7 42 15 82 22 102 65 189 121 244 38 36 45 48 33 55 -8 5 -21
7 -29 5 -8 -3 -37 -7 -65 -11 -168 -23 -425 -144 -556 -262 -39 -35 -42 -35
-52 8 -4 15 -24 38 -48 54 -55 39 -126 119 -155 176 -28 57 -74 210 -74 249 0
16 -6 35 -14 43 -20 20 -95 7 -183 -31 -94 -41 -103 -60 -103 -219 l0 -123
-29 0 c-16 0 -45 13 -67 30 -21 17 -62 46 -90 64 -70 47 -96 81 -134 173 -46
110 -60 167 -60 253 0 126 17 208 59 295 52 109 89 156 203 262 144 135 152
140 261 163 53 11 131 28 174 39 43 11 132 32 198 46 177 38 207 55 336 199
69 77 132 137 170 162 45 28 67 51 84 85 13 25 31 52 41 60 19 15 -15 -50 -66
-126 -42 -62 -189 -321 -230 -405 -20 -41 -63 -141 -94 -223 -32 -81 -72 -168
-89 -195 -32 -46 -33 -47 -127 -69 -280 -67 -323 -90 -273 -145 22 -25 43 -23
164 13 115 34 191 68 229 103 17 15 90 42 220 81 107 31 224 68 259 81 104 39
262 121 316 165 28 22 91 71 142 109 51 39 97 78 102 88 27 45 7 -41 -50 -215
l-61 -188 -61 -60 c-34 -34 -97 -80 -139 -104 -73 -40 -78 -45 -78 -76 0 -62
33 -50 164 61 27 23 74 45 149 70 61 19 163 62 227 94 65 32 164 75 221 95 96
33 109 41 172 103 38 37 84 88 103 114 43 58 111 104 184 124 188 52 238 77
370 183 52 43 220 140 220 128 0 -1 -9 -28 -20 -58 -21 -62 -40 -164 -40 -221
0 -101 196 -206 356 -192 50 4 152 61 209 115 76 72 94 115 96 230 1 53 -3
105 -9 116 -14 25 -7 33 31 33 38 0 87 -24 167 -81 36 -25 88 -58 117 -74 35
-19 63 -44 89 -82 52 -75 111 -125 265 -223 152 -95 219 -123 340 -140 46 -6
99 -18 118 -26 38 -17 86 -11 95 12 10 25 -5 44 -34 44 -19 0 -55 20 -107 58
-148 110 -206 184 -244 310 -7 23 -10 45 -7 48 3 3 46 -17 94 -44 86 -49 243
-109 391 -152 82 -24 166 -84 294 -212 176 -176 324 -230 634 -231 179 -1 223
7 231 39 12 48 -10 57 -123 51 l-102 -6 -77 51 c-97 63 -188 153 -213 210 -23
53 -28 87 -41 248 -12 144 -24 227 -35 253 -7 16 -4 18 26 13 19 -3 92 -15
164 -27 71 -12 143 -28 160 -36 16 -9 57 -41 90 -71 151 -139 257 -190 595
-284 70 -19 141 -31 211 -35 l106 -6 181 83 c100 46 196 95 214 110 30 25 32
29 20 55 -12 26 -15 27 -62 22 -99 -12 -180 31 -358 188 -141 125 -207 204
-317 378 -73 115 -109 153 -202 209 -46 28 -83 53 -83 55 0 9 72 1 121 -13z
m-7435 -443 c-8 -12 -157 -64 -164 -57 -3 4 7 20 23 36 26 27 35 30 87 30 33
0 57 -4 54 -9z m4429 -69 c-3 -3 -11 0 -18 7 -9 10 -8 11 6 5 10 -3 15 -9 12
-12z m49 -37 c3 -8 1 -15 -4 -15 -6 0 -10 7 -10 15 0 8 2 15 4 15 2 0 6 -7 10
-15z m94 -160 c-3 -3 -9 2 -12 12 -6 14 -5 15 5 6 7 -7 10 -15 7 -18z m42 -46
c15 -28 5 -23 -15 7 -9 15 -12 23 -6 20 6 -4 16 -16 21 -27z m-322 -94 c-12
-14 -23 -25 -25 -25 -2 0 4 11 13 25 9 14 20 25 25 25 5 0 -1 -11 -13 -25z
m-48 -60 c-7 -9 -15 -13 -17 -11 -6 6 20 36 26 30 2 -2 -2 -10 -9 -19z m-163
-47 c-3 -7 -5 -2 -5 12 0 14 2 19 5 13 2 -7 2 -19 0 -25z m196 17 c-3 -9 -8
-14 -10 -11 -3 3 -2 9 2 15 9 16 15 13 8 -4z m334 0 c0 -8 -4 -12 -9 -9 -5 3
-6 10 -3 15 9 13 12 11 12 -6z m-200 -37 c-3 -8 -6 -5 -6 6 -1 11 2 17 5 13 3
-3 4 -12 1 -19z m-156 -25 c13 -16 12 -17 -3 -4 -10 7 -18 15 -18 17 0 8 8 3
21 -13z m-146 -43 c10 -11 14 -20 9 -20 -5 0 -15 9 -22 20 -7 11 -11 20 -9 20
2 0 12 -9 22 -20z m410 -10 c3 -5 1 -10 -4 -10 -6 0 -11 5 -11 10 0 6 2 10 4
10 3 0 8 -4 11 -10z m-289 -68 c-6 -5 -56 21 -56 29 0 5 13 0 29 -9 16 -9 28
-18 27 -20z m214 3 c-7 -8 -17 -15 -23 -15 -6 0 -2 7 9 15 25 19 30 19 14 0z
m-175 -5 c-3 -5 -12 -10 -18 -10 -7 0 -6 4 3 10 19 12 23 12 15 0z m-2890
-501 c-92 -29 -113 -34 -102 -23 9 9 158 53 177 53 8 -1 -25 -14 -75 -30z
m3067 -186 c-15 -78 -15 -85 2 -120 10 -21 25 -54 33 -73 14 -34 12 -32 -46
25 -75 73 -77 92 -20 187 23 38 43 67 44 66 2 -2 -4 -40 -13 -85z"/>
<path d="M6635 5411 c-3 -6 16 -33 41 -62 68 -77 87 -125 82 -215 -3 -66 -7
-78 -45 -133 -45 -65 -43 -83 3 -28 48 57 67 114 68 202 1 70 -3 86 -27 130
-48 86 -104 135 -122 106z"/>
<path d="M6470 5375 c0 -8 7 -15 15 -15 8 0 22 -12 32 -26 27 -43 25 -253 -3
-315 -29 -62 -79 -117 -112 -122 l-27 -4 29 -2 c22 -1 38 9 66 38 55 57 82
123 93 227 11 106 4 173 -24 208 -23 29 -69 36 -69 11z"/>
<path d="M3573 5164 c-10 -28 4 -148 23 -189 27 -58 77 -118 134 -160 41 -30
75 -43 168 -66 119 -29 172 -36 172 -21 0 5 -46 24 -102 42 -185 59 -191 62
-250 118 -66 63 -98 133 -101 222 -2 51 -10 69 -30 70 -4 0 -10 -7 -14 -16z"/>
<path d="M3324 5045 c-17 -44 38 -178 96 -230 33 -30 161 -85 232 -100 38 -8
88 -23 111 -34 23 -11 64 -22 92 -24 44 -5 48 -4 30 9 -10 8 -26 14 -35 14 -9
0 -47 15 -86 34 -38 18 -89 38 -114 44 -25 6 -80 30 -123 53 -67 35 -84 50
-115 98 -22 34 -38 73 -42 101 -5 47 -34 68 -46 35z"/>
<path d="M3087 4964 c-14 -14 -6 -80 14 -123 22 -50 104 -143 160 -182 57 -40
330 -107 360 -89 6 5 -12 13 -42 19 -30 6 -103 28 -163 48 -99 33 -115 42
-173 96 -73 69 -111 126 -121 188 -7 41 -21 57 -35 43z"/>
<path d="M6926 4895 c-9 -9 -16 -20 -16 -24 0 -12 -170 -51 -218 -51 -105 0
-425 -116 -514 -187 -57 -44 -99 -103 -130 -182 -17 -44 -21 -76 -21 -149 1
-103 12 -127 95 -218 71 -77 94 -86 206 -82 84 3 106 7 164 35 92 44 167 101
238 183 70 82 180 245 180 269 1 41 39 338 45 354 4 10 19 23 34 30 l26 11
-25 4 c-14 2 -30 8 -36 13 -8 6 -17 4 -28 -6z m-31 -97 c-3 -24 -12 -108 -20
-187 -11 -114 -18 -148 -33 -165 -10 -11 -34 -43 -53 -71 -135 -202 -292 -323
-441 -341 -88 -10 -119 0 -178 58 -80 79 -110 132 -109 192 l0 51 26 -52 c25
-49 30 -53 97 -77 60 -22 88 -26 176 -26 118 0 131 5 227 87 67 58 93 111 93
192 0 59 -2 64 -51 126 -56 70 -89 90 -174 107 -35 7 -52 14 -43 19 38 21 185
61 273 73 55 8 123 23 150 34 68 27 67 27 60 -20z m-415 -159 c54 -12 62 -18
123 -93 40 -50 47 -65 47 -102 0 -83 -39 -140 -147 -215 -39 -27 -47 -29 -145
-29 -81 0 -116 5 -166 22 -59 21 -66 26 -89 72 -21 42 -24 57 -18 105 8 65 34
129 60 151 17 14 18 13 11 -5 -5 -11 -11 -40 -13 -65 -4 -36 -1 -51 18 -74 55
-70 220 -103 267 -53 22 24 48 118 38 142 -6 17 -62 20 -85 6 -12 -8 -12 -12
-2 -25 8 -9 22 -16 34 -16 17 0 19 -5 14 -36 -9 -52 -23 -64 -76 -64 -69 0
-113 16 -150 54 -34 35 -34 35 -21 80 15 53 77 116 143 147 43 19 63 19 157
-2z"/>
<path d="M4126 4602 c-4 -7 -32 -12 -69 -12 -34 0 -93 -7 -132 -16 -188 -40
-281 -56 -311 -51 -19 3 -36 2 -38 -2 -3 -4 22 -61 54 -126 82 -161 259 -382
366 -456 62 -43 122 -59 214 -59 74 0 78 1 157 50 71 43 88 60 137 132 65 97
87 171 69 235 -6 21 -16 56 -22 79 -18 67 -61 116 -137 156 -75 39 -148 58
-224 58 -29 0 -50 5 -52 12 -3 9 -6 9 -12 0z m-105 -109 c-21 -32 -48 -69 -60
-82 -28 -32 -61 -141 -61 -199 0 -40 7 -55 57 -120 84 -109 69 -102 200 -102
l115 0 31 33 c63 67 127 253 127 371 0 58 -4 74 -22 94 l-23 25 25 -13 c51
-26 91 -62 111 -102 18 -36 21 -55 17 -138 l-4 -97 -52 -79 c-50 -76 -64 -89
-161 -149 -40 -25 -50 -27 -135 -23 -105 4 -142 18 -217 85 -47 43 -159 172
-224 258 -16 22 -51 80 -77 130 l-46 90 176 36 c98 20 196 37 220 38 l43 1
-40 -57z m281 45 l53 -12 -65 -6 c-73 -7 -119 -28 -167 -73 -29 -27 -33 -37
-33 -85 0 -90 37 -145 107 -158 73 -14 125 38 137 134 6 48 5 52 -14 52 -18 0
-20 -6 -20 -53 0 -45 -4 -57 -28 -80 -66 -63 -142 -15 -142 89 0 46 4 55 30
78 58 48 186 67 228 34 17 -14 15 -110 -3 -197 -18 -85 -66 -196 -102 -233
-25 -27 -31 -28 -117 -28 -54 0 -100 5 -113 13 -23 13 -112 117 -132 156 -27
50 11 172 86 280 75 107 66 101 159 101 46 0 107 -5 136 -12z"/>
<path d="M6770 3896 c0 -8 14 -26 31 -41 110 -92 315 -133 533 -106 53 7 177
34 274 60 150 41 177 51 177 67 0 27 -42 23 -182 -19 -197 -60 -264 -70 -441
-65 -173 5 -214 15 -326 83 -67 40 -66 40 -66 21z"/>
<path d="M4260 3683 c-97 -38 -126 -45 -184 -44 -90 0 -462 50 -505 67 -33 14
-51 11 -51 -7 0 -20 70 -39 241 -64 96 -14 192 -30 214 -35 78 -18 150 -12
252 24 151 52 175 63 171 82 -2 10 -7 18 -13 20 -5 1 -62 -18 -125 -43z"/>
<path d="M6562 3613 c4 -24 108 -105 187 -147 187 -98 476 -130 694 -77 86 20
108 34 90 52 -9 9 -34 7 -100 -9 -275 -64 -540 -23 -755 117 -54 35 -98 67
-98 72 0 5 -5 9 -11 9 -6 0 -9 -8 -7 -17z"/>
<path d="M4439 3504 c-83 -75 -101 -83 -226 -113 -65 -15 -123 -21 -207 -21
-76 0 -115 -4 -111 -10 4 -6 61 -10 138 -10 141 0 272 23 332 59 55 32 175
133 175 147 0 28 -29 13 -101 -52z"/>
<path d="M6284 3464 c-4 -14 -1 -43 5 -65 10 -32 28 -50 109 -111 154 -114
181 -128 265 -140 91 -13 152 -2 152 27 0 19 -6 20 -90 17 -109 -4 -135 5
-255 90 -132 95 -150 114 -150 165 0 49 -25 61 -36 17z"/>
<path d="M4460 3304 c-52 -36 -134 -88 -182 -116 -88 -51 -123 -86 -48 -48
111 56 349 208 350 223 0 18 -31 2 -120 -59z"/>
<path d="M9815 3400 c-3 -5 0 -10 8 -10 8 0 20 -7 27 -15 7 -8 17 -15 22 -15
13 0 -10 28 -33 41 -11 6 -20 5 -24 -1z"/>
<path d="M5650 3571 c-5 -11 -10 -35 -10 -55 0 -53 32 -73 122 -75 40 -1 74
-4 77 -6 11 -11 41 31 41 57 0 23 -4 28 -24 28 -14 0 -28 5 -31 10 -3 6 -1 10
5 10 26 0 1 26 -36 37 -65 19 -131 16 -144 -6z m103 -21 c32 0 80 -44 75 -69
-3 -13 -15 -15 -68 -13 -74 4 -90 13 -90 52 0 33 9 43 35 36 11 -3 33 -6 48
-6z"/>
<path d="M5210 3443 c-36 -13 -60 -47 -60 -85 0 -33 4 -40 27 -49 42 -16 80 6
109 62 35 69 32 79 -18 78 -24 0 -50 -3 -58 -6z m73 -19 c10 -10 -31 -82 -52
-94 -45 -23 -69 -4 -57 46 9 34 88 69 109 48z"/>
<path d="M12808 3693 c7 -3 16 -2 19 1 4 3 -2 6 -13 5 -11 0 -14 -3 -6 -6z"/>
<path d="M13600 6410 c0 -38 2 -40 30 -40 28 0 30 2 30 40 0 38 -2 40 -30 40
-28 0 -30 -2 -30 -40z"/>
<path d="M12646 5961 c-9 -13 2 -33 14 -26 5 3 11 1 15 -5 8 -12 22 -5 34 18
7 14 5 18 -9 18 -13 0 -16 -4 -10 -12 6 -6 7 -14 3 -18 -4 -4 -15 3 -24 15
-11 14 -18 18 -23 10z"/>
<path d="M12780 5951 c-6 -12 -7 -21 -3 -21 4 0 1 -5 -7 -10 -12 -8 -12 -10 5
-10 15 0 17 -2 6 -9 -9 -6 -10 -11 -2 -15 6 -4 11 -4 12 1 0 4 2 16 4 26 2 9
-1 17 -7 17 -6 0 -5 6 2 15 7 9 10 18 7 21 -3 3 -10 -4 -17 -15z"/>
<path d="M12418 5953 c7 -3 16 -2 19 1 4 3 -2 6 -13 5 -11 0 -14 -3 -6 -6z"/>
<path d="M12646 5909 c3 -6 2 -16 -3 -22 -4 -7 -1 -5 8 5 9 9 18 16 20 15 2
-1 3 0 1 2 -1 3 -9 6 -17 7 -8 1 -12 -2 -9 -7z"/>
<path d="M12461 5894 c0 -11 3 -14 6 -6 3 7 2 16 -1 19 -3 4 -6 -2 -5 -13z"/>
<path d="M12576 5861 c-15 -17 -15 -19 1 -32 16 -13 17 -12 5 3 -9 11 -10 18
-2 23 5 3 10 1 10 -6 0 -8 4 -8 15 1 14 12 12 30 -4 30 -4 0 -15 -8 -25 -19z"/>
<path d="M12783 5862 c-8 -5 -8 -12 2 -25 12 -17 13 -16 11 7 0 15 -1 26 -1
26 0 0 -5 -4 -12 -8z"/>
<path d="M12450 5796 c0 -2 7 -7 16 -10 8 -3 12 -2 9 4 -6 10 -25 14 -25 6z"/>
<path d="M12326 5763 c-6 -14 -5 -15 5 -6 7 7 10 15 7 18 -3 3 -9 -2 -12 -12z"/>
<path d="M12246 5722 c-3 -5 1 -9 9 -9 8 0 12 4 9 9 -3 4 -7 8 -9 8 -2 0 -6
-4 -9 -8z"/>
<path d="M12750 5639 c0 -5 5 -7 10 -4 6 3 10 8 10 11 0 2 -4 4 -10 4 -5 0
-10 -5 -10 -11z"/>
<path d="M12770 5625 c-10 -12 -16 -13 -29 -3 -14 12 -14 11 -2 -5 10 -13 17
-15 27 -6 17 14 18 -2 2 -21 -11 -12 -10 -12 3 -2 9 6 18 10 20 8 2 -2 5 7 5
20 2 27 -8 31 -26 9z"/>
<path d="M12789 5567 c8 -10 24 -23 35 -29 12 -6 18 -7 14 -3 -4 4 -1 13 8 19
13 10 11 12 -13 11 -15 -1 -35 4 -43 9 -13 10 -13 9 -1 -7z"/>
<path d="M12866 5541 c-3 -5 1 -14 9 -21 10 -9 15 -9 15 -1 0 6 -5 11 -11 11
-5 0 -7 5 -4 10 3 6 4 10 1 10 -3 0 -7 -4 -10 -9z"/>
<path d="M12910 5516 c0 -9 5 -16 10 -16 6 0 10 4 10 9 0 6 -4 13 -10 16 -5 3
-10 -1 -10 -9z"/>
<path d="M12953 5501 c1 -14 9 -26 17 -28 10 -3 11 -2 4 4 -7 4 -14 17 -17 28
-5 16 -5 15 -4 -4z"/>
<path d="M12998 5483 c7 -3 16 -2 19 1 4 3 -2 6 -13 5 -11 0 -14 -3 -6 -6z"/>
<path d="M13085 5474 c17 -17 22 -17 28 -1 3 7 -5 13 -19 13 -20 2 -21 0 -9
-12z"/>
<path d="M13086 5437 c3 -10 9 -15 12 -12 3 3 0 11 -7 18 -10 9 -11 8 -5 -6z"/>
<path d="M12947 5394 c5 -13 2 -15 -14 -10 -13 4 -29 -2 -49 -20 -16 -15 -24
-23 -17 -20 6 3 14 2 18 -4 10 -16 22 -12 50 15 27 28 31 40 15 50 -6 4 -7 -1
-3 -11z m-17 -20 c0 -3 -7 -12 -15 -21 -20 -19 -32 -9 -15 12 12 15 30 20 30
9z"/>
<path d="M12846 5305 c8 -34 12 -41 20 -33 3 4 -2 19 -10 35 l-16 28 6 -30z"/>
<path d="M12851 5224 c0 -11 3 -14 6 -6 3 7 2 16 -1 19 -3 4 -6 -2 -5 -13z"/>
<path d="M12820 5222 c0 -4 5 -13 11 -19 5 -5 11 -24 11 -41 1 -19 5 -29 11
-25 6 4 8 0 4 -11 -4 -9 -3 -15 2 -12 4 3 8 20 9 38 0 20 -2 27 -7 19 -6 -9
-11 -1 -15 23 -4 20 -11 36 -16 36 -6 0 -10 -4 -10 -8z"/>
<path d="M12871 5204 c0 -11 3 -14 6 -6 3 7 2 16 -1 19 -3 4 -6 -2 -5 -13z"/>
<path d="M12880 5080 c6 -11 13 -20 16 -20 2 0 0 9 -6 20 -6 11 -13 20 -16 20
-2 0 0 -9 6 -20z"/>
<path d="M12905 5080 c3 -5 11 -10 16 -10 6 0 7 5 4 10 -3 6 -11 10 -16 10 -6
0 -7 -4 -4 -10z"/>
<path d="M12930 5071 c-14 -15 -14 -18 0 -34 19 -19 38 -23 22 -4 -5 6 -8 22
-6 35 4 26 4 26 -16 3z"/>
<path d="M13009 5000 c-6 -4 -8 -13 -5 -19 4 -6 12 -9 17 -6 5 4 9 2 9 -3 0
-5 10 -14 23 -20 12 -7 32 -19 43 -27 22 -16 23 -13 15 38 0 5 -10 6 -21 2
-11 -3 -28 -2 -37 4 -15 9 -14 11 12 12 28 2 28 2 5 7 -23 4 -24 5 -5 12 16 6
13 8 -12 7 -17 0 -37 -3 -44 -7z m31 -8 c0 -5 -7 -9 -15 -9 -8 0 -12 4 -9 9 3
4 9 8 15 8 5 0 9 -4 9 -8z m70 -52 c0 -5 -4 -10 -9 -10 -6 0 -13 5 -16 10 -3
6 1 10 9 10 9 0 16 -4 16 -10z"/>
<path d="M13105 4990 c3 -5 8 -10 11 -10 2 0 4 5 4 10 0 6 -5 10 -11 10 -5 0
-7 -4 -4 -10z"/>
<path d="M13163 4924 c11 -4 17 -15 17 -35 0 -16 3 -29 8 -29 4 0 7 15 7 33 0
27 -4 32 -25 34 -14 1 -18 0 -7 -3z"/>
<path d="M13141 4883 c1 -17 3 -21 6 -10 2 9 9 17 14 17 6 0 7 5 4 10 -12 19
-25 10 -24 -17z"/>
<path d="M13160 4861 c0 -5 -22 -36 -50 -69 -45 -54 -48 -61 -33 -73 14 -12
15 -11 9 9 -11 32 10 27 23 -5 10 -24 11 -25 7 -4 -3 13 0 33 6 44 7 14 7 17
-1 13 -19 -12 -12 9 10 27 23 20 38 15 21 -6 -7 -8 -9 -17 -5 -20 3 -4 13 3
21 15 12 16 12 23 4 26 -7 2 -10 13 -6 28 3 13 3 24 0 24 -3 0 -6 -4 -6 -9z"/>
<path d="M12981 4646 c-9 -11 -9 -16 1 -22 19 -12 48 -12 55 -1 3 6 1 7 -5 3
-16 -10 -15 6 1 24 6 8 2 6 -10 -3 -12 -11 -24 -14 -27 -9 -3 6 0 13 6 15 8 4
9 6 2 6 -6 1 -17 -5 -23 -13z"/>
<path d="M12916 4463 c-6 -14 -5 -15 5 -6 7 7 10 15 7 18 -3 3 -9 -2 -12 -12z"/>
<path d="M12916 4431 c-17 -18 -24 -31 -17 -35 6 -4 11 -1 11 7 0 8 10 21 23
30 12 8 19 18 16 21 -3 3 -18 -7 -33 -23z"/>
<path d="M12930 4391 c0 -10 19 -25 25 -20 1 2 -3 10 -11 17 -8 7 -14 8 -14 3z"/>
<path d="M12897 4169 c7 -7 15 -10 18 -7 3 3 -2 9 -12 12 -14 6 -15 5 -6 -5z"/>
<path d="M12942 4166 c7 -8 15 -12 17 -11 5 6 -10 25 -20 25 -5 0 -4 -6 3 -14z"/>
<path d="M12884 4103 c3 -4 1 -13 -6 -20 -9 -11 -9 -17 3 -24 23 -14 36 -10
15 6 -19 14 -18 15 4 23 l24 9 -23 6 c-13 3 -20 3 -17 0z"/>
<path d="M12956 4081 c-3 -4 6 -6 19 -3 14 2 25 6 25 8 0 8 -39 4 -44 -5z"/>
<path d="M12968 4053 c6 -2 18 -2 25 0 6 3 1 5 -13 5 -14 0 -19 -2 -12 -5z"/>
<path d="M12872 3950 c0 -14 2 -19 5 -12 2 6 2 18 0 25 -3 6 -5 1 -5 -13z"/>
<path d="M13440 3930 l0 -40 40 0 40 0 0 40 0 40 -40 0 -40 0 0 -40z"/>
<path d="M12930 3795 c0 -8 5 -15 10 -15 6 0 10 7 10 15 0 8 -4 15 -10 15 -5
0 -10 -7 -10 -15z"/>
<path d="M12901 3694 c0 -11 3 -14 6 -6 3 7 2 16 -1 19 -3 4 -6 -2 -5 -13z"/>
<path d="M12941 3674 c0 -11 3 -14 6 -6 3 7 2 16 -1 19 -3 4 -6 -2 -5 -13z"/>
<path d="M12915 3640 c-3 -5 -1 -10 4 -10 6 0 11 5 11 10 0 6 -2 10 -4 10 -3
0 -8 -4 -11 -10z"/>
<path d="M12936 3627 c-3 -15 -11 -25 -16 -22 -6 3 -10 1 -10 -4 0 -6 -11 -11
-25 -11 -14 0 -25 -4 -25 -8 0 -21 80 6 81 27 1 9 5 3 9 -14 7 -27 8 -28 8 -5
0 14 -3 34 -7 45 -7 17 -8 17 -15 -8z"/>
<path d="M12747 3623 c-4 -3 -7 -11 -7 -17 0 -6 5 -5 12 2 6 6 9 14 7 17 -3 3
-9 2 -12 -2z"/>
<path d="M12778 3605 c-3 -14 -1 -25 3 -25 5 0 9 11 9 25 0 14 -2 25 -4 25 -2
0 -6 -11 -8 -25z"/>
<path d="M12800 3620 c0 -5 5 -10 11 -10 5 0 7 5 4 10 -3 6 -8 10 -11 10 -2 0
-4 -4 -4 -10z"/>
<path d="M12712 3588 c-7 -7 -12 -16 -12 -21 0 -5 7 -1 16 8 9 9 14 18 12 20
-2 3 -10 -1 -16 -7z"/>
<path d="M12805 3590 c-3 -5 -1 -10 4 -10 6 0 11 5 11 10 0 6 -2 10 -4 10 -3
0 -8 -4 -11 -10z"/>
<path d="M12711 3534 c0 -11 3 -14 6 -6 3 7 2 16 -1 19 -3 4 -6 -2 -5 -13z"/>
<path d="M12677 3511 c6 -7 9 -19 7 -26 -3 -6 2 -18 11 -25 9 -8 15 -8 15 -2
0 6 -5 14 -10 17 -8 5 -7 12 2 23 7 10 8 14 4 10 -5 -4 -16 -2 -25 4 -13 10
-14 10 -4 -1z"/>
<path d="M12651 3447 c-13 -21 -12 -21 5 -5 10 10 16 20 13 22 -3 3 -11 -5
-18 -17z"/>
<path d="M12670 3425 c-11 -13 -10 -14 4 -9 9 3 16 10 16 15 0 13 -6 11 -20
-6z"/>
<path d="M12624 3265 c-4 -8 -10 -13 -14 -10 -5 3 -6 -5 -2 -17 4 -16 7 -18
10 -8 3 8 9 23 14 33 5 9 6 17 3 17 -3 0 -8 -7 -11 -15z"/>
<path d="M12631 3194 c0 -11 3 -14 6 -6 3 7 2 16 -1 19 -3 4 -6 -2 -5 -13z"/>
<path d="M12620 3145 c0 -14 3 -25 8 -25 4 0 7 11 7 25 0 14 -3 25 -7 25 -5 0
-8 -11 -8 -25z"/>
<path d="M12581 3124 c0 -11 3 -14 6 -6 3 7 2 16 -1 19 -3 4 -6 -2 -5 -13z"/>
<path d="M12146 3101 c-4 -5 3 -7 14 -4 23 6 26 13 6 13 -8 0 -17 -4 -20 -9z"/>
<path d="M12410 3106 c0 -2 7 -7 16 -10 8 -3 12 -2 9 4 -6 10 -25 14 -25 6z"/>
<path d="M12145 3069 c-4 -6 -5 -12 -2 -15 2 -3 7 2 10 11 7 17 1 20 -8 4z"/>
<path d="M12404 3049 c1 -31 6 -35 35 -30 16 2 22 33 10 48 -10 11 -14 11 -21
1 -6 -11 -10 -10 -17 1 -6 9 -8 3 -7 -20z m46 2 c0 -12 -29 -35 -36 -28 -7 6
17 36 29 37 4 0 7 -4 7 -9z"/>
<path d="M12127 3019 c7 -7 15 -10 18 -7 3 3 -2 9 -12 12 -14 6 -15 5 -6 -5z"/>
<path d="M12546 2963 c-6 -14 -5 -15 5 -6 7 7 10 15 7 18 -3 3 -9 -2 -12 -12z"/>
<path d="M13200 2810 l0 -40 40 0 40 0 0 40 0 40 -40 0 -40 0 0 -40z"/>
<path d="M11790 2716 c0 -2 7 -7 16 -10 8 -3 12 -2 9 4 -6 10 -25 14 -25 6z"/>
<path d="M11640 2591 c-7 -15 -7 -22 2 -27 7 -4 10 -4 6 1 -4 4 0 13 9 20 11
8 12 14 5 19 -6 3 -16 -2 -22 -13z"/>
<path d="M11477 2313 c5 -12 3 -14 -8 -8 -8 5 -11 4 -6 0 4 -5 14 -10 22 -11
12 -2 12 2 5 17 -13 23 -22 25 -13 2z"/>
<path d="M13040 2170 l0 -40 40 0 40 0 0 40 0 40 -40 0 -40 0 0 -40z"/>
<path d="M12178 2038 c6 -6 18 -8 28 -6 14 3 12 5 -9 10 -19 3 -25 2 -19 -4z"/>
<path d="M11933 2023 c9 -2 25 -2 35 0 9 3 1 5 -18 5 -19 0 -27 -2 -17 -5z"/>
<path d="M12146 2021 c-3 -5 1 -11 9 -14 9 -4 12 -1 8 9 -6 16 -10 17 -17 5z"/>
<path d="M12188 2013 c6 -2 18 -2 25 0 6 3 1 5 -13 5 -14 0 -19 -2 -12 -5z"/>
<path d="M11911 2000 c10 -7 49 -2 49 5 0 2 -14 3 -31 3 -17 -1 -25 -4 -18 -8z"/>
<path d="M12268 2000 c6 -8 12 -18 12 -22 0 -14 -22 -8 -37 10 -8 9 -11 11 -7
3 6 -11 3 -13 -12 -7 -10 4 -64 10 -119 13 -130 7 -225 -16 -392 -96 -162 -79
-177 -102 -117 -190 14 -21 21 -43 18 -60 -3 -19 -2 -22 5 -11 5 8 7 18 4 23
-3 5 0 7 8 5 8 -3 13 -14 11 -25 -3 -23 23 -50 33 -33 3 5 -1 10 -9 10 -9 0
-16 7 -16 15 0 50 78 -56 86 -118 8 -56 2 -65 -73 -107 -46 -26 -57 -29 -71
-18 -9 7 -14 8 -10 4 4 -5 0 -15 -10 -23 -15 -13 -15 -13 6 -3 33 16 27 3 -8
-15 -33 -17 -52 -20 -30 -4 13 9 13 10 0 6 -8 -2 -15 -9 -15 -15 0 -17 -14
-26 -43 -27 -15 0 -26 -6 -25 -13 2 -6 -11 -19 -28 -28 -17 -8 -28 -11 -25 -5
5 7 1 8 -10 4 -13 -5 -15 -3 -9 7 5 9 4 11 -4 6 -8 -5 -9 -12 -2 -20 8 -9 0
-19 -30 -37 -22 -13 -53 -34 -68 -46 -16 -12 -30 -21 -32 -19 -2 3 -5 -18 -7
-46 -5 -86 43 -113 145 -82 32 10 64 18 70 17 7 0 10 4 6 10 -4 6 0 8 10 4 10
-4 16 -2 14 5 -1 6 3 12 10 15 8 3 11 -3 8 -16 -2 -12 0 -21 5 -21 5 0 8 12 7
27 -1 15 4 28 12 31 9 3 11 0 6 -9 -6 -11 -5 -11 5 -2 10 9 19 9 34 1 12 -6
18 -7 14 -3 -4 5 -2 15 5 24 10 14 10 14 -3 5 -8 -6 -23 -11 -33 -11 -15 0
-13 5 10 29 15 15 33 28 40 28 7 0 13 6 13 13 0 18 45 59 54 50 4 -5 6 -1 4 7
-2 10 4 14 17 12 16 -2 17 -1 6 7 -12 8 -11 16 11 48 15 21 32 52 40 68 16 38
48 67 65 60 8 -2 11 -1 8 5 -8 12 82 63 96 54 8 -4 9 -3 5 4 -6 11 50 48 67
44 4 -1 7 2 7 8 0 5 4 10 9 10 5 0 4 -13 -2 -30 -6 -16 -15 -30 -19 -30 -4 0
-5 -13 -2 -29 6 -31 -30 -116 -46 -106 -5 3 -12 0 -16 -6 -5 -8 -3 -9 6 -4 7
4 11 4 9 -1 -2 -5 -12 -30 -23 -57 -10 -26 -25 -47 -32 -47 -8 0 -14 -5 -14
-11 0 -5 5 -7 11 -4 7 5 8 -5 3 -32 -16 -77 -8 -123 27 -159 18 -18 45 -36 61
-39 15 -4 28 -11 28 -17 0 -6 -8 -7 -17 -4 -15 5 -14 3 2 -10 19 -16 19 -16
-7 -12 -16 3 -28 1 -28 -3 0 -12 41 -11 60 1 11 7 11 10 2 10 -7 0 -11 3 -9 8
3 4 61 7 129 6 91 -1 133 -5 162 -17 43 -19 72 -22 81 -8 3 5 -8 8 -24 6 -19
-3 -38 3 -53 15 -20 17 -21 19 -5 20 10 0 16 -4 13 -9 -9 -15 17 -18 50 -7 17
6 29 16 27 24 -3 6 0 12 6 12 10 0 15 -12 13 -31 -1 -3 4 -6 11 -6 22 -2 86
-40 79 -48 -4 -4 2 -5 14 -1 26 8 54 -2 54 -19 0 -17 34 -28 60 -20 11 3 20
13 20 21 0 9 10 14 29 14 17 0 31 6 35 16 5 13 0 15 -34 9 -26 -4 -40 -3 -40
4 0 6 7 7 17 4 9 -4 14 -2 11 3 -4 5 14 8 40 6 31 -2 58 2 77 13 26 15 27 16
5 10 -14 -3 -45 -8 -70 -10 l-45 -4 45 11 c25 6 40 12 35 14 -6 2 -34 -2 -63
-10 -48 -12 -56 -12 -91 6 -31 15 -39 24 -36 44 l2 24 -34 -21 c-19 -12 -36
-19 -39 -16 -9 9 90 60 118 60 19 0 27 5 25 16 -3 18 -16 26 -25 15 -4 -4 -1
-4 7 1 10 6 12 4 7 -4 -5 -7 -15 -10 -23 -7 -9 4 -12 2 -7 -7 4 -6 4 -9 -1 -5
-4 4 -31 -8 -60 -27 -29 -18 -55 -33 -57 -32 -2 1 5 -6 15 -15 11 -10 26 -18
35 -18 12 0 13 -3 4 -12 -9 -9 -18 -7 -39 8 -40 30 -39 40 14 70 79 45 136 82
167 109 41 35 55 31 16 -5 -18 -16 -37 -30 -43 -30 -8 0 -8 -3 -1 -10 15 -15
37 -4 50 23 5 12 14 21 20 20 6 -1 10 13 9 30 -1 18 -5 31 -8 30 -4 -2 -13 -3
-19 -3 -10 0 -9 -3 1 -9 8 -5 9 -11 3 -15 -6 -3 -13 -2 -17 4 -10 17 -81 11
-142 -11 -74 -27 -122 -63 -139 -104 -21 -52 -86 -70 -249 -70 -195 0 -234 25
-215 141 9 56 62 184 76 184 4 0 15 -7 25 -16 46 -42 165 -56 252 -30 l47 14
0 -33 c0 -25 7 -39 28 -55 24 -20 36 -22 102 -17 41 3 102 14 134 26 56 20 83
20 71 0 -4 -5 2 -6 11 -2 11 4 13 8 6 11 -7 2 -12 8 -12 14 0 7 5 7 13 -1 8
-6 31 -13 53 -16 27 -3 34 -2 24 5 -13 9 -13 10 1 10 8 0 21 -6 28 -12 11 -11
13 -10 8 3 -6 18 7 43 23 45 5 1 25 2 44 3 29 1 34 5 34 26 0 14 -4 25 -9 25
-5 0 -9 -4 -9 -10 0 -5 -5 -10 -11 -10 -6 0 -17 -7 -26 -15 -8 -8 -20 -12 -26
-8 -6 4 2 13 21 22 18 8 32 21 32 29 0 8 6 12 15 8 18 -6 48 21 39 36 -5 7 0
9 14 6 13 -4 20 -2 19 5 -1 6 8 16 21 22 12 5 22 15 22 22 0 6 5 15 12 19 8 5
9 0 5 -16 -3 -13 0 -28 7 -35 11 -11 13 -7 12 23 -1 29 3 37 19 40 23 5 55 30
55 44 0 5 -12 0 -26 -11 -28 -22 -44 -27 -44 -13 0 4 10 12 22 17 24 10 38 45
18 45 -6 0 -9 -4 -5 -9 3 -5 -9 -19 -26 -32 -23 -16 -28 -24 -17 -30 12 -8 11
-10 -11 -13 -5 0 -22 -13 -39 -28 -16 -14 -39 -31 -51 -38 -12 -6 -19 -15 -16
-20 3 -5 -5 -12 -17 -16 -13 -4 -33 -17 -45 -29 -13 -12 -51 -36 -85 -53 -35
-17 -57 -32 -49 -32 8 0 12 -2 9 -5 -3 -3 -13 -3 -22 1 -13 5 -2 15 46 41 121
67 287 212 322 281 10 19 20 31 23 28 3 -3 0 -13 -7 -21 -11 -13 -11 -16 0
-13 8 2 14 -2 15 -9 0 -6 3 -14 6 -18 8 -8 3 44 -6 68 -4 9 -3 17 1 17 5 0 10
32 12 71 3 69 3 71 -32 104 -20 18 -57 40 -83 49 -52 16 -283 27 -283 12 0 -4
-12 -5 -26 -2 -17 5 -23 3 -19 -4 3 -5 0 -10 -9 -10 -8 0 -16 5 -18 10 -5 17
-48 21 -48 4 0 -8 5 -14 10 -14 6 0 10 6 10 13 0 8 3 7 10 -3 7 -11 5 -17 -8
-22 -23 -9 -32 -9 -31 0 3 17 -2 32 -10 32 -4 0 -7 -11 -6 -24 3 -23 2 -23
-26 -9 -16 8 -34 11 -40 7 -6 -3 -15 0 -20 7 -5 8 -9 9 -9 3 0 -6 9 -19 21
-30 17 -15 22 -16 29 -4 5 8 12 11 17 7 10 -10 -18 -28 -34 -22 -7 2 -13 1
-13 -4 0 -5 -23 -18 -50 -30 -28 -12 -76 -37 -107 -55 l-56 -33 -21 24 -21 24
-160 -93 c-88 -51 -161 -92 -163 -90 -1 1 -10 -4 -19 -13 -8 -9 -22 -14 -30
-11 -8 3 -11 2 -8 -3 3 -5 1 -12 -5 -16 -5 -3 -10 -1 -10 5 0 7 -7 9 -17 6 -9
-4 -20 -1 -25 6 -5 9 -8 8 -8 -6 0 -13 5 -17 20 -13 31 8 23 -11 -12 -29 -28
-15 -31 -15 -20 -1 10 12 10 17 1 23 -8 4 -9 3 -5 -4 4 -7 2 -12 -3 -12 -6 0
-11 11 -11 25 0 46 -26 90 -99 165 -39 41 -71 80 -71 86 0 25 121 100 146 90
8 -3 12 -2 9 4 -8 12 43 33 57 24 7 -5 8 -2 3 6 -5 8 -3 11 6 8 8 -3 13 -11
11 -18 -3 -11 0 -11 12 -1 8 7 21 9 27 5 8 -5 9 -3 5 5 -5 7 -14 10 -22 7 -8
-3 -14 -1 -14 4 0 12 67 33 81 24 8 -5 9 -3 4 6 -6 10 0 12 23 8 17 -2 29 -1
26 4 -3 4 2 8 11 8 9 0 13 -5 9 -11 -4 -8 0 -8 14 0 23 12 184 12 176 0 -2 -4
0 -10 6 -14 5 -3 10 -1 10 4 0 6 9 11 21 11 13 0 18 -4 13 -12 -5 -8 -2 -9 9
-5 19 7 21 3 8 -22 -7 -13 -6 -18 4 -18 7 0 11 7 7 15 -4 11 -1 13 8 7 9 -6
11 -4 5 5 -6 9 -2 10 16 5 59 -19 75 -30 75 -54 0 -14 6 -27 13 -29 10 -3 12
0 8 13 -4 9 -4 22 0 28 11 17 11 57 1 57 -4 0 -8 5 -8 11 0 5 6 7 13 3 6 -4 8
-3 4 1 -4 5 -14 10 -22 11 -13 2 -12 -2 0 -27 l16 -29 -55 27 c-30 15 -52 31
-50 38 3 6 -3 18 -13 25 -15 12 -16 12 -5 0z m262 -144 c0 -3 -4 -8 -10 -11
-5 -3 -10 -1 -10 4 0 6 5 11 10 11 6 0 10 -2 10 -4z m496 -36 c28 -14 49 -32
55 -48 65 -171 -387 -527 -647 -510 -43 3 -49 6 -52 27 -6 41 8 72 54 119 58
59 68 76 49 92 -24 20 -53 1 -100 -64 -51 -71 -76 -86 -160 -93 -74 -6 -134 9
-164 41 -22 23 -22 26 -7 48 38 54 147 154 230 209 141 95 326 176 454 199 84
16 236 5 288 -20z m-805 -158 c-19 -15 -53 -43 -75 -62 -68 -58 -83 -67 -41
-21 35 37 131 110 145 110 3 0 -10 -12 -29 -27z m-527 -314 c-9 -18 -56 -72
-103 -119 -99 -99 -186 -149 -258 -149 -38 0 -43 2 -43 23 0 31 26 53 140 120
52 30 133 78 180 105 47 28 88 51 93 51 4 1 0 -14 -9 -31z m1097 -48 c-13 -11
-28 -20 -35 -20 -6 0 3 9 19 20 38 25 47 25 16 0z m-242 -144 c-10 -9 -69 -36
-69 -32 0 7 52 35 64 36 5 0 7 -2 5 -4z m-7 -125 c-10 -6 -4 -12 20 -24 29
-14 30 -17 10 -17 -13 0 -20 -4 -17 -10 3 -6 -1 -7 -10 -4 -12 5 -13 10 -4 20
8 10 5 15 -16 20 -20 5 -23 9 -13 15 7 5 20 9 28 9 12 0 12 -2 2 -9z m-186
-26 c-23 -17 -36 -19 -36 -6 0 5 8 12 18 14 32 9 37 6 18 -8z m259 -35 c3 -5
-3 -10 -14 -10 -11 0 -23 5 -26 10 -3 6 3 10 14 10 11 0 23 -4 26 -10z m10
-50 c-3 -5 -15 -10 -25 -10 -10 0 -22 5 -25 10 -4 6 7 10 25 10 18 0 29 -4 25
-10z"/>
<path d="M11780 1956 c4 -4 16 -4 26 2 16 9 14 10 -8 9 -15 -1 -23 -6 -18 -11z"/>
<path d="M12324 1958 c-4 -7 -4 -10 1 -6 4 4 15 2 24 -5 14 -11 14 -10 2 6
-16 20 -18 21 -27 5z"/>
<path d="M12798 1958 c4 -4 21 -9 37 -11 17 -2 5 -3 -25 -1 -36 2 -61 -1 -73
-10 -16 -12 -16 -14 -1 -20 25 -9 62 -7 69 5 4 6 36 9 76 8 38 -1 72 1 76 4 3
4 -12 7 -35 7 -23 0 -42 4 -42 9 0 5 -20 11 -45 13 -24 1 -41 0 -37 -4z m-5
-35 c-7 -2 -19 -2 -25 0 -7 3 -2 5 12 5 14 0 19 -2 13 -5z"/>
<path d="M12900 1960 c0 -5 14 -10 32 -10 36 0 35 4 -4 14 -17 4 -28 2 -28 -4z"/>
<path d="M12152 1941 c-11 -6 -10 -10 4 -15 9 -3 19 -4 22 -1 3 3 0 5 -7 5 -7
0 -9 5 -6 10 7 12 4 12 -13 1z"/>
<path d="M12048 1933 c12 -2 30 -2 40 0 9 3 -1 5 -23 4 -22 0 -30 -2 -17 -4z"/>
<path d="M11880 1916 c0 -2 7 -7 16 -10 8 -3 12 -2 9 4 -6 10 -25 14 -25 6z"/>
<path d="M12850 1910 l-35 -7 43 -2 c23 0 42 4 42 9 0 6 -3 9 -7 9 -5 -1 -24
-5 -43 -9z"/>
<path d="M12208 1903 c7 -3 16 -2 19 1 4 3 -2 6 -13 5 -11 0 -14 -3 -6 -6z"/>
<path d="M12938 1903 c7 -3 16 -2 19 1 4 3 -2 6 -13 5 -11 0 -14 -3 -6 -6z"/>
<path d="M12128 1893 c6 -2 18 -2 25 0 6 3 1 5 -13 5 -14 0 -19 -2 -12 -5z"/>
<path d="M13045 1890 c-4 -6 -11 -7 -17 -4 -7 4 -8 2 -4 -4 10 -16 23 -15 30
3 6 17 0 20 -9 5z"/>
<path d="M12540 1881 c0 -5 7 -12 16 -15 14 -5 15 -4 4 9 -14 17 -20 19 -20 6z"/>
<path d="M13072 1866 c-1 -15 1 -17 7 -7 5 7 14 10 20 6 9 -5 9 -11 -1 -23
-11 -15 -11 -15 4 -4 21 17 17 45 -8 47 -14 1 -21 -5 -22 -19z"/>
<path d="M12330 1860 c0 -5 5 -10 11 -10 5 0 7 5 4 10 -3 6 -8 10 -11 10 -2 0
-4 -4 -4 -10z"/>
<path d="M12338 1823 c7 -3 16 -2 19 1 4 3 -2 6 -13 5 -11 0 -14 -3 -6 -6z"/>
<path d="M12307 1790 c10 -11 19 -20 21 -20 1 0 -2 9 -8 20 -6 11 -15 20 -20
20 -6 0 -2 -9 7 -20z"/>
<path d="M12345 1792 c-4 -10 0 -12 11 -8 8 3 18 6 20 6 2 0 4 4 4 8 0 15 -29
9 -35 -6z"/>
<path d="M12393 1793 c0 -9 5 -9 21 -1 31 16 32 18 4 16 -13 -1 -25 -8 -25
-15z"/>
<path d="M13126 1801 c-4 -5 -2 -12 4 -16 12 -8 13 -75 1 -94 -5 -8 -6 -21 -3
-30 9 -23 20 21 21 86 1 49 -10 75 -23 54z"/>
<path d="M13160 1800 c0 -5 5 -10 10 -10 6 0 10 5 10 10 0 6 -4 10 -10 10 -5
0 -10 -4 -10 -10z"/>
<path d="M12185 1790 c-3 -5 -1 -10 4 -10 6 0 11 5 11 10 0 6 -2 10 -4 10 -3
0 -8 -4 -11 -10z"/>
<path d="M11615 1779 c-11 -17 1 -21 15 -4 8 9 8 15 2 15 -6 0 -14 -5 -17 -11z"/>
<path d="M13191 1774 c0 -11 3 -14 6 -6 3 7 2 16 -1 19 -3 4 -6 -2 -5 -13z"/>
<path d="M12252 1764 c10 -10 20 -15 24 -12 3 4 -5 12 -18 18 -22 12 -22 12
-6 -6z"/>
<path d="M12290 1770 c0 -5 5 -10 11 -10 5 0 7 5 4 10 -3 6 -8 10 -11 10 -2 0
-4 -4 -4 -10z"/>
<path d="M12350 1770 c-8 -5 -12 -11 -10 -14 3 -2 14 2 24 10 22 15 10 19 -14
4z"/>
<path d="M13166 1762 c-3 -5 3 -20 14 -32 24 -27 25 -23 6 15 -8 14 -17 22
-20 17z"/>
<path d="M12190 1745 c0 -8 2 -15 4 -15 2 0 6 7 10 15 3 8 1 15 -4 15 -6 0
-10 -7 -10 -15z"/>
<path d="M12310 1739 c0 -5 5 -7 10 -4 6 3 10 8 10 11 0 2 -4 4 -10 4 -5 0
-10 -5 -10 -11z"/>
<path d="M12147 1719 c-19 -22 -9 -25 18 -6 10 8 14 17 8 20 -5 3 -17 -3 -26
-14z"/>
<path d="M12101 1714 c0 -11 3 -14 6 -6 3 7 2 16 -1 19 -3 4 -6 -2 -5 -13z"/>
<path d="M13160 1678 c0 -25 3 -29 10 -18 13 20 13 50 0 50 -5 0 -10 -15 -10
-32z"/>
<path d="M11575 1690 c3 -5 8 -10 11 -10 2 0 4 5 4 10 0 6 -5 10 -11 10 -5 0
-7 -4 -4 -10z"/>
<path d="M12047 1683 c-14 -13 -7 -25 8 -13 8 7 21 10 30 7 8 -4 16 -3 19 1 6
10 -48 14 -57 5z"/>
<path d="M11934 1635 c13 -10 12 -13 -2 -23 -15 -10 -15 -11 2 -5 13 4 17 3
12 -5 -4 -7 -3 -12 3 -12 5 0 13 5 16 10 3 6 2 10 -3 10 -6 0 -8 8 -5 18 3 13
-2 18 -17 18 -18 0 -19 -2 -6 -11z"/>
<path d="M11971 1634 c0 -11 3 -14 6 -6 3 7 2 16 -1 19 -3 4 -6 -2 -5 -13z"/>
<path d="M12002 1634 c-7 -8 -8 -14 -3 -14 10 0 25 19 20 25 -2 1 -10 -3 -17
-11z"/>
<path d="M11670 1590 c-12 -7 -10 -9 7 -7 12 0 19 5 17 9 -6 10 -6 10 -24 -2z"/>
<path d="M11957 1518 c-15 -12 -15 -15 0 -33 13 -16 15 -17 10 -2 -4 9 -2 17
4 17 6 0 8 4 5 9 -4 5 0 12 6 14 7 3 8 6 2 6 -5 1 -18 -5 -27 -11z"/>
<path d="M13102 1504 c-7 -8 -8 -14 -3 -14 10 0 25 19 20 25 -2 1 -10 -3 -17
-11z"/>
<path d="M11716 1494 c-3 -8 -10 -12 -16 -9 -5 3 -10 4 -10 1 0 -3 8 -10 18
-15 15 -8 18 -5 20 15 2 27 -3 31 -12 8z"/>
<path d="M11689 1443 c-13 -16 -12 -17 4 -4 16 13 21 21 13 21 -2 0 -10 -8
-17 -17z"/>
<path d="M11901 1447 c-6 -8 -8 -17 -4 -20 12 -12 19 -7 19 13 0 24 0 24 -15
7z"/>
<path d="M11941 1434 c0 -11 3 -14 6 -6 3 7 2 16 -1 19 -3 4 -6 -2 -5 -13z"/>
<path d="M12977 1433 c-13 -12 -7 -18 17 -18 15 0 22 5 19 13 -6 13 -25 16
-36 5z"/>
<path d="M11796 1422 c-3 -5 1 -9 9 -9 8 0 12 4 9 9 -3 4 -7 8 -9 8 -2 0 -6
-4 -9 -8z"/>
<path d="M11927 1393 c3 -7 9 -13 15 -13 5 0 7 4 4 9 -4 5 0 11 6 14 7 3 3 4
-8 4 -14 -1 -20 -6 -17 -14z"/>
<path d="M11743 1337 c-8 -17 -8 -24 0 -24 7 0 13 11 13 24 2 29 0 29 -13 0z"/>
<path d="M12920 1345 c7 -9 15 -13 17 -11 7 7 -7 26 -19 26 -6 0 -6 -6 2 -15z"/>
<path d="M11881 1312 c0 -12 2 -13 6 -3 4 10 7 10 13 1 5 -9 9 -8 13 2 3 9 -2
14 -14 15 -12 1 -19 -4 -18 -15z"/>
<path d="M11707 1285 c-4 -8 -1 -14 6 -12 7 1 11 -3 10 -10 -1 -6 5 -10 15 -8
18 3 18 22 1 40 -7 7 -8 3 -4 -10 6 -19 6 -19 -8 -2 -13 15 -15 15 -20 2z"/>
<path d="M12940 1270 c0 -11 5 -20 10 -20 6 0 10 9 10 20 0 11 -4 20 -10 20
-5 0 -10 -9 -10 -20z"/>
<path d="M11639 1188 c11 -15 41 -15 41 -1 0 3 -6 3 -14 0 -7 -3 -20 0 -27 6
-11 10 -11 9 0 -5z"/>
<path d="M11855 1169 c-4 -6 -5 -12 -2 -15 2 -3 7 2 10 11 7 17 1 20 -8 4z"/>
<path d="M12700 1157 c0 -22 -35 -48 -54 -41 -11 4 -15 2 -11 -8 8 -19 40 -16
65 7 21 19 28 55 10 55 -5 0 -10 -6 -10 -13z"/>
<path d="M11846 1085 c-7 -19 3 -47 15 -39 5 3 9 10 9 15 0 6 -5 7 -11 3 -8
-4 -9 0 -4 15 7 24 0 29 -9 6z"/>
<path d="M11865 1020 c-3 -5 -1 -10 4 -10 6 0 11 5 11 10 0 6 -2 10 -4 10 -3
0 -8 -4 -11 -10z"/>
<path d="M11917 1011 c23 -22 39 -28 28 -11 -3 5 -16 15 -28 21 l-22 11 22
-21z"/>
<path d="M12054 966 c16 -9 31 -14 34 -11 8 8 0 13 -33 20 l-30 7 29 -16z"/>
<path d="M12197 973 c-32 -3 -47 -8 -44 -16 2 -7 20 -11 42 -10 20 2 46 -2 57
-8 13 -7 18 -7 14 -1 -3 6 2 13 11 15 17 4 17 5 1 6 -10 0 -18 6 -18 11 0 6
-3 9 -7 8 -5 -1 -30 -3 -56 -5z m-4 -20 c-7 -2 -19 -2 -25 0 -7 3 -2 5 12 5
14 0 19 -2 13 -5z"/>
<path d="M12412 946 c7 -7 17 -13 23 -13 5 0 15 -2 20 -4 6 -2 10 1 10 6 0 6
-6 9 -12 9 -7 -1 -13 1 -13 5 0 4 -9 7 -20 8 -15 1 -17 -1 -8 -11z"/>
<path d="M12728 953 c7 -3 16 -2 19 1 4 3 -2 6 -13 5 -11 0 -14 -3 -6 -6z"/>
<path d="M12025 940 c3 -5 14 -10 23 -10 15 0 15 2 2 10 -20 13 -33 13 -25 0z"/>
<path d="M12768 938 c5 -5 16 -8 23 -6 8 3 3 7 -10 11 -17 4 -21 3 -13 -5z"/>
<path d="M11953 933 c9 -2 23 -2 30 0 6 3 -1 5 -18 5 -16 0 -22 -2 -12 -5z"/>
<path d="M12108 933 c6 -2 18 -2 25 0 6 3 1 5 -13 5 -14 0 -19 -2 -12 -5z"/>
<path d="M12308 933 c7 -3 16 -2 19 1 4 3 -2 6 -13 5 -11 0 -14 -3 -6 -6z"/>
<path d="M12388 933 c7 -3 16 -2 19 1 4 3 -2 6 -13 5 -11 0 -14 -3 -6 -6z"/>
<path d="M13049 922 c9 -3 9 -7 0 -18 -9 -11 -8 -14 5 -14 9 0 16 5 16 10 0 6
9 10 20 10 11 0 20 4 20 8 0 4 -16 8 -36 8 -21 0 -32 -2 -25 -4z"/>
<path d="M13166 914 c16 -13 16 -15 2 -10 -44 15 -51 16 -30 5 29 -15 28 -23
-4 -37 -20 -10 -25 -18 -22 -40 4 -34 44 -42 83 -16 22 15 26 23 22 49 -3 18
-1 38 5 46 7 11 9 9 5 -8 -3 -15 1 -23 15 -26 11 -3 17 -10 13 -16 -3 -6 -11
-8 -17 -5 -7 4 -8 2 -4 -4 12 -19 -12 -50 -45 -57 -19 -4 -27 -11 -22 -16 12
-12 63 6 63 21 0 5 5 10 10 10 6 0 10 -7 10 -15 0 -8 5 -15 10 -15 6 0 10 9
10 20 0 11 -4 20 -10 20 -5 0 -10 7 -10 15 0 18 17 20 23 3 2 -7 4 -1 4 14 0
17 -4 25 -10 21 -6 -4 -8 0 -4 10 3 10 4 23 1 31 -6 15 -54 19 -54 4 0 -5 -9
-4 -19 2 -30 16 -47 12 -25 -6z m94 -14 c0 -5 -4 -10 -10 -10 -5 0 -10 5 -10
10 0 6 5 10 10 10 6 0 10 -4 10 -10z"/>
<path d="M13084 886 c-27 -20 -13 -29 19 -13 15 8 24 17 20 20 -9 10 -17 9
-39 -7z"/>
<path d="M12560 869 c0 -10 38 -18 60 -12 33 9 23 18 -20 18 -22 0 -40 -2 -40
-6z"/>
<path d="M13045 817 c0 -36 3 -42 22 -43 20 -2 20 0 8 13 -8 8 -15 25 -15 38
0 13 -3 26 -7 28 -5 3 -8 -14 -8 -36z"/>
<path d="M13071 834 c-1 -25 32 -57 62 -60 18 -2 17 0 -5 9 -16 6 -28 17 -28
24 0 7 -4 13 -9 13 -5 0 -12 8 -14 18 -4 14 -5 13 -6 -4z"/>
<path d="M12400 650 l0 -40 40 0 40 0 0 40 0 40 -40 0 -40 0 0 -40z"/>
<path d="M12320 330 l0 -40 40 0 40 0 0 40 0 40 -40 0 -40 0 0 -40z"/>
</g>
</svg>
