<?xml version="1.0" standalone="no"?>
<!DOCTYPE svg PUBLIC "-//W3C//DTD SVG 20010904//EN"
 "http://www.w3.org/TR/2001/REC-SVG-20010904/DTD/svg10.dtd">
<svg version="1.0" xmlns="http://www.w3.org/2000/svg"
 width="1366.000000pt" height="685.000000pt" viewBox="0 0 1366.000000 685.000000"
 preserveAspectRatio="xMidYMid meet">

<g transform="translate(0.000000,685.000000) scale(0.100000,-0.100000)"
fill="#000000" stroke="none">
<path d="M8296 6053 c-32 -8 -86 -46 -174 -120 -170 -144 -244 -148 -322 -20
-19 31 -40 59 -48 62 -24 9 -59 -20 -199 -164 -85 -88 -135 -132 -141 -126 -6
6 -15 52 -21 104 -5 51 -16 99 -22 107 -27 32 -119 -1 -163 -58 -22 -30 -76
-138 -76 -153 0 -4 -39 -59 -86 -122 -117 -156 -141 -197 -155 -258 -9 -40
-27 -71 -75 -131 -35 -43 -64 -83 -64 -89 -1 -18 -93 157 -117 224 -14 36 -35
124 -48 195 -22 119 -28 135 -80 222 -69 116 -91 134 -162 134 -51 0 -57 -3
-94 -41 -21 -22 -53 -60 -70 -84 -38 -53 -54 -60 -111 -45 -79 21 -132 59
-301 213 -115 106 -162 137 -208 137 -43 0 -69 -23 -129 -116 -25 -38 -49 -64
-60 -64 -39 0 -116 31 -172 70 -32 23 -83 48 -111 56 -66 18 -197 18 -221 1
-19 -14 -35 -105 -36 -200 0 -53 -2 -57 -18 -48 -40 21 -227 51 -322 51 -113
0 -149 -10 -208 -57 -59 -48 -72 -78 -72 -165 0 -62 5 -81 30 -126 19 -35 25
-54 17 -56 -7 -2 -52 -13 -102 -24 -133 -31 -161 -45 -175 -88 -17 -50 -8
-133 20 -185 13 -24 30 -57 38 -73 22 -43 29 -168 10 -184 -9 -7 -63 -21 -122
-32 -115 -21 -119 -22 -153 -53 -18 -16 -23 -31 -23 -67 0 -55 10 -71 107
-171 69 -72 73 -79 73 -122 0 -43 -2 -46 -32 -56 -18 -5 -53 -13 -78 -16 -25
-4 -84 -16 -133 -27 -103 -23 -113 -34 -95 -105 9 -39 27 -63 96 -133 75 -76
110 -125 98 -137 -2 -2 -57 -8 -122 -13 -173 -13 -204 -28 -204 -98 0 -36 55
-120 139 -215 34 -37 61 -72 61 -78 0 -5 -11 -21 -24 -34 -26 -26 -101 -50
-188 -60 -83 -9 -108 -32 -108 -99 0 -48 5 -60 50 -121 46 -63 50 -72 50 -126
0 -62 -13 -108 -34 -124 -9 -7 -53 -7 -130 -1 -122 9 -147 3 -141 -32 2 -9 6
-30 10 -45 7 -37 78 -113 128 -138 47 -25 42 -33 -49 -84 -72 -41 -106 -84
-125 -157 -39 -158 89 -223 331 -168 l85 19 -30 -25 c-16 -14 -63 -46 -103
-71 -71 -46 -73 -48 -92 -113 -25 -85 -25 -92 3 -118 34 -32 74 -27 143 14 67
41 137 66 160 57 13 -5 15 -17 10 -72 -20 -218 -20 -217 3 -240 30 -30 93 -28
135 4 17 13 50 49 72 79 21 31 44 56 51 56 16 0 54 -52 91 -125 37 -74 96
-144 110 -130 5 6 15 39 21 74 25 132 77 190 134 152 15 -9 52 -44 85 -78 67
-69 129 -106 175 -101 43 4 71 48 109 174 l31 101 67 -48 c36 -27 81 -52 98
-55 55 -11 66 7 112 175 l12 44 71 -70 c76 -74 103 -93 136 -93 33 0 79 48
112 118 l32 67 21 -30 c69 -95 152 -155 218 -155 35 0 46 13 87 98 19 40 41
72 48 72 8 0 30 -34 50 -76 29 -59 44 -80 68 -90 27 -11 53 -42 134 -154 31
-44 56 -69 104 -105 22 -16 56 -54 77 -84 54 -80 150 -170 265 -251 178 -126
238 -141 376 -95 46 16 102 39 124 53 55 35 169 126 238 192 32 30 65 59 72
63 15 8 154 175 195 234 23 33 25 34 33 14 6 -11 30 -28 55 -38 45 -17 45 -17
64 7 10 13 23 30 29 39 7 11 12 12 15 4 3 -6 19 -30 35 -53 27 -37 34 -41 67
-38 38 3 42 9 69 107 2 10 34 -16 89 -72 47 -48 90 -87 96 -87 25 0 50 26 84
86 20 36 41 63 48 61 18 -6 45 -89 45 -143 1 -70 27 -144 51 -144 29 0 79 58
117 138 l36 73 28 -49 c35 -62 111 -130 154 -138 74 -13 147 22 198 94 l32 47
6 -40 c3 -22 13 -54 22 -72 29 -54 151 -143 197 -143 29 0 132 103 196 195
l38 56 20 -28 c11 -15 41 -49 67 -75 97 -100 159 -52 220 170 12 45 25 82 28
82 3 -1 26 -28 51 -62 25 -33 74 -85 109 -115 52 -44 69 -54 95 -51 l31 3 -4
125 c-3 126 6 188 33 225 13 18 16 17 72 -35 79 -72 111 -90 160 -90 62 0 88
33 82 102 -6 66 -52 164 -115 242 -85 105 -84 96 -14 96 54 0 65 3 86 26 30
32 44 73 35 99 -5 11 -36 52 -69 92 -34 39 -61 79 -61 87 0 25 39 31 190 31
143 0 145 0 148 23 6 39 -44 130 -103 187 -30 30 -55 57 -55 59 0 17 93 63
163 81 121 30 131 67 48 179 -51 68 -101 99 -211 126 -47 12 -107 28 -134 37
l-49 16 26 13 c62 33 41 82 -73 180 l-81 69 27 20 c63 45 114 99 134 139 22
47 27 133 9 183 -12 36 -74 82 -144 107 -27 10 -54 22 -59 27 -6 5 18 37 57
77 66 69 89 114 69 134 -7 7 -57 10 -134 9 -68 -1 -135 2 -151 6 l-27 8 85
115 c109 147 119 168 111 214 -8 42 -26 52 -112 62 -30 4 -57 11 -60 16 -4 5
50 67 120 137 115 117 126 131 126 165 0 30 -5 40 -32 56 -18 10 -60 21 -97
25 -36 3 -77 11 -90 16 -38 16 -24 72 49 190 34 55 59 106 56 114 -2 7 -26 17
-53 20 -156 22 -260 53 -296 89 -21 22 -22 85 -2 152 17 57 19 127 5 155 -16
29 -87 25 -246 -16 -141 -36 -250 -45 -272 -23 -18 18 -15 60 8 118 28 72 27
108 -6 120 -40 16 -97 -5 -157 -55 -90 -77 -128 -98 -184 -103 -78 -7 -103 13
-103 79 0 28 -5 59 -10 70 -22 39 -97 59 -164 42z m-2690 -122 c21 -15 48 -38
59 -51 11 -13 -6 -2 -38 23 -61 50 -75 54 -97 35 -12 -11 -12 -10 -1 5 18 24
32 22 77 -12z m2594 6 c0 -2 -15 -16 -32 -33 l-33 -29 29 33 c28 30 36 37 36
29z m590 0 c0 -2 -10 -12 -22 -23 l-23 -19 19 23 c18 21 26 27 26 19z m-3780
-13 c-34 -7 -110 -9 -110 -2 0 5 28 7 63 7 34 -1 55 -3 47 -5z m2720 -17 c0
-1 -26 -27 -57 -57 l-58 -55 55 58 c50 53 60 62 60 54z m-2220 -11 c0 -2 -8
-10 -17 -17 -16 -13 -17 -12 -4 4 13 16 21 21 21 13z m3220 -10 c0 -2 -8 -10
-17 -17 -16 -13 -17 -12 -4 4 13 16 21 21 21 13z m-3520 -63 c0 -7 -58 36 -66
49 -4 7 9 -1 29 -16 20 -16 37 -30 37 -33z m2920 54 c0 -2 -12 -14 -27 -28
l-28 -24 24 28 c23 25 31 32 31 24z m354 -46 c-3 -3 -15 6 -27 18 l-22 24 27
-19 c14 -10 24 -21 22 -23z m-2608 -133 c30 -22 54 -42 54 -45 0 -13 -151 109
-200 163 -19 21 -6 12 29 -20 35 -31 88 -75 117 -98z m1464 137 c0 -8 -2 -15
-4 -15 -2 0 -6 7 -10 15 -3 8 -1 15 4 15 6 0 10 -7 10 -15z m-2453 -27 c-3 -7
-5 -2 -5 12 0 14 2 19 5 13 2 -7 2 -19 0 -25z m2924 15 c13 -16 12 -17 -3 -4
-10 7 -18 15 -18 17 0 8 8 3 21 -13z m-521 4 c0 -2 -10 -12 -22 -23 l-23 -19
19 23 c18 21 26 27 26 19z m1337 -3 c-3 -3 -12 -4 -19 -1 -8 3 -5 6 6 6 11 1
17 -2 13 -5z m-622 -34 c-3 -5 -12 -10 -18 -10 -7 0 -6 4 3 10 19 12 23 12 15
0z m1308 3 c-7 -2 -19 -2 -25 0 -7 3 -2 5 12 5 14 0 19 -2 13 -5z m-3898 -13
c-3 -5 -18 -9 -33 -9 l-27 1 30 8 c17 4 31 8 33 9 2 0 0 -3 -3 -9z m3852 4
c-3 -3 -12 -4 -19 -1 -8 3 -5 6 6 6 11 1 17 -2 13 -5z m140 -41 c-3 -10 -5 -2
-5 17 0 19 2 27 5 18 2 -10 2 -26 0 -35z m-3025 20 c8 -10 27 -38 41 -63 15
-25 35 -56 44 -70 14 -22 15 -23 1 -10 -9 8 -34 44 -56 80 -50 83 -68 87 -131
28 l-46 -43 45 48 c47 50 77 59 102 30z m1566 10 c-10 -2 -28 -2 -40 0 -13 2
-5 4 17 4 22 1 32 -1 23 -4z m1279 1 c-3 -3 -12 -4 -19 -1 -8 3 -5 6 6 6 11 1
17 -2 13 -5z m-1880 -51 c-3 -10 -5 -4 -5 12 0 17 2 24 5 18 2 -7 2 -21 0 -30z
m243 34 c0 -2 -19 -21 -42 -42 l-43 -40 40 43 c36 39 45 47 45 39z m-3072 -24
c-21 -2 -55 -2 -75 0 -21 2 -4 4 37 4 41 0 58 -2 38 -4z m-158 -17 c0 -2 -7
-7 -16 -10 -8 -3 -12 -2 -9 4 6 10 25 14 25 6z m343 -13 c-7 -2 -19 -2 -25 0
-7 3 -2 5 12 5 14 0 19 -2 13 -5z m-393 -16 c0 -2 -10 -12 -22 -23 l-23 -19
19 23 c18 21 26 27 26 19z m543 -24 c-7 -2 -21 -2 -30 0 -10 3 -4 5 12 5 17 0
24 -2 18 -5z m2637 3 c0 -2 -8 -10 -17 -17 -16 -13 -17 -12 -4 4 13 16 21 21
21 13z m-310 -36 c-6 -11 -13 -20 -16 -20 -2 0 0 9 6 20 6 11 13 20 16 20 2 0
0 -9 -6 -20z m-1170 -10 c8 -5 11 -10 5 -10 -5 0 -17 5 -25 10 -8 5 -10 10 -5
10 6 0 17 -5 25 -10z m3373 -120 c5 -8 1 -6 -7 4 -11 13 -15 37 -15 70 l2 51
6 -55 c3 -30 10 -62 14 -70z m-3326 104 c-3 -3 -12 -4 -19 -1 -8 3 -5 6 6 6
11 1 17 -2 13 -5z m66 -11 c-7 -2 -21 -2 -30 0 -10 3 -4 5 12 5 17 0 24 -2 18
-5z m1037 3 c0 -2 -8 -10 -17 -17 -16 -13 -17 -12 -4 4 13 16 21 21 21 13z
m-2903 -48 c-3 -7 -5 -2 -5 12 0 14 2 19 5 13 2 -7 2 -19 0 -25z m2250 -40
c-3 -7 -5 -2 -5 12 0 14 2 19 5 13 2 -7 2 -19 0 -25z m1963 8 c0 -2 -8 -10
-17 -17 -16 -13 -17 -12 -4 4 13 16 21 21 21 13z m69 -45 l-2 -26 -4 25 c-3
14 -10 32 -16 40 -11 13 -10 13 6 1 9 -7 16 -25 16 -40z m-145 -17 c-21 -15
-45 -31 -51 -36 -7 -6 -13 -8 -13 -5 0 8 82 67 93 67 6 0 -8 -12 -29 -26z
m1027 9 c13 -16 12 -17 -3 -4 -10 7 -18 15 -18 17 0 8 8 3 21 -13z m-2371 -17
c0 -2 -8 -10 -17 -17 -16 -13 -17 -12 -4 4 13 16 21 21 21 13z m1240 -56 c-8
-5 -19 -10 -25 -10 -5 0 -3 5 5 10 8 5 20 10 25 10 6 0 3 -5 -5 -10z m234
-113 c32 -67 76 -168 97 -224 35 -90 39 -112 39 -190 0 -92 -17 -202 -49 -313
-11 -36 -22 -83 -26 -105 -3 -22 -24 -78 -45 -125 -22 -47 -53 -137 -70 -200
-53 -199 -73 -260 -86 -260 -6 0 -17 -7 -24 -15 -11 -13 -10 -31 5 -101 13
-61 16 -105 11 -156 -3 -39 -3 -93 0 -120 l7 -50 71 7 c39 4 96 13 126 20 97
24 300 47 352 40 72 -10 91 -33 134 -160 37 -108 38 -114 42 -285 6 -243 -20
-359 -126 -569 -37 -73 -61 -107 -115 -157 -41 -39 -76 -64 -90 -64 -12 0 -41
-7 -64 -15 -59 -20 -477 -20 -578 1 -38 8 -83 14 -98 14 -15 0 -49 11 -75 24
-26 13 -75 32 -107 41 -94 27 -158 63 -150 83 7 16 26 78 115 387 71 243 91
353 89 484 l-1 118 37 48 c44 58 72 112 91 174 19 62 17 215 -2 266 -26 68
-29 82 -13 68 35 -34 108 4 138 72 10 22 49 78 88 125 87 105 167 224 187 276
73 196 95 330 78 483 -15 130 -30 179 -65 205 -24 18 -32 19 -89 8 -35 -7
-100 -19 -146 -27 -96 -18 -138 -37 -277 -129 -55 -36 -103 -66 -107 -66 -10
0 -166 -106 -196 -134 -13 -11 -31 -34 -39 -51 -8 -16 -31 -46 -50 -66 -36
-38 -48 -84 -29 -109 7 -10 3 -9 -10 3 -11 9 -24 17 -29 17 -21 0 -195 76
-195 85 0 10 35 45 45 45 3 0 1 -9 -5 -19 -28 -53 9 -36 41 19 24 41 194 215
294 302 56 49 249 170 315 197 30 13 84 38 120 56 36 18 88 40 115 49 28 10
93 39 145 65 52 26 100 48 105 49 6 0 37 -54 69 -121z m1177 90 c-10 -9 -11
-8 -5 6 3 10 9 15 12 12 3 -3 0 -11 -7 -18z m-5103 -4 c-10 -2 -26 -2 -35 0
-10 3 -2 5 17 5 19 0 27 -2 18 -5z m-273 -13 c-3 -5 -16 -10 -28 -9 -20 1 -20
2 3 9 14 4 26 8 28 9 2 1 0 -3 -3 -9z m208 -5 c-3 -9 -8 -14 -10 -11 -3 3 -2
9 2 15 9 16 15 13 8 -4z m190 8 c-7 -2 -19 -2 -25 0 -7 3 -2 5 12 5 14 0 19
-2 13 -5z m3477 -3 c-8 -5 -19 -10 -25 -10 -5 0 -3 5 5 10 8 5 20 10 25 10 6
0 3 -5 -5 -10z m1490 -3 c0 -2 -10 -12 -22 -23 l-23 -19 19 23 c18 21 26 27
26 19z m-5443 -13 c-3 -3 -12 -4 -19 -1 -8 3 -5 6 6 6 11 1 17 -2 13 -5z m630
0 c-3 -3 -12 -4 -19 -1 -8 3 -5 6 6 6 11 1 17 -2 13 -5z m50 -10 c-3 -3 -12
-4 -19 -1 -8 3 -5 6 6 6 11 1 17 -2 13 -5z m1643 -29 c0 -5 -5 -3 -10 5 -5 8
-10 20 -10 25 0 6 5 3 10 -5 5 -8 10 -19 10 -25z m-2413 19 c-3 -3 -12 -4 -19
-1 -8 3 -5 6 6 6 11 1 17 -2 13 -5z m370 -46 c-2 -13 -4 -5 -4 17 -1 22 1 32
4 23 2 -10 2 -28 0 -40z m333 -4 c103 -19 372 -96 455 -131 126 -52 417 -207
479 -254 36 -27 90 -82 121 -124 62 -82 77 -94 109 -89 12 2 -21 -10 -72 -28
l-93 -31 -32 31 c-52 50 -163 121 -232 148 -35 14 -106 50 -157 81 -93 55
-205 102 -308 129 -39 10 -81 12 -148 8 -79 -6 -94 -10 -104 -27 -16 -30 -4
-114 32 -214 17 -48 38 -112 45 -140 7 -29 23 -68 35 -87 12 -20 32 -63 45
-97 33 -84 63 -119 150 -180 75 -53 75 -53 56 -73 -20 -21 -33 -50 -45 -98 -5
-22 -3 -26 9 -22 9 4 25 -4 40 -20 31 -33 71 -34 119 -1 21 14 55 34 76 45 54
28 72 58 68 116 -3 47 -2 49 37 69 93 47 258 108 380 139 33 8 89 27 125 41
84 33 178 51 316 60 107 7 154 3 154 -14 0 -19 -99 -156 -174 -241 -7 -8 -20
-28 -29 -45 -8 -16 -45 -58 -81 -93 -36 -35 -66 -66 -66 -70 0 -3 -8 -15 -17
-26 -18 -21 -18 -21 2 -4 43 36 161 156 175 178 14 21 59 77 114 140 12 14 28
39 35 57 22 55 44 52 109 -15 31 -33 91 -82 132 -108 41 -26 77 -51 78 -56 2
-4 9 -8 15 -8 7 0 18 -9 25 -20 7 -11 17 -20 23 -20 5 0 51 -29 100 -65 50
-36 97 -65 105 -65 8 0 14 -5 14 -11 0 -5 16 -17 35 -25 20 -8 43 -22 53 -32
10 -10 34 -28 55 -41 20 -12 37 -27 37 -32 0 -6 4 -7 10 -4 5 3 22 -5 37 -19
15 -15 31 -26 34 -26 4 0 7 -12 7 -27 0 -29 -19 -51 -85 -102 -51 -38 -149
-57 -250 -47 -79 8 -93 -10 -16 -20 120 -17 192 -10 263 25 36 17 70 37 75 44
32 40 113 47 157 15 121 -92 124 -116 15 -149 -40 -11 -93 -28 -119 -36 -26
-8 -57 -12 -68 -8 -14 5 -20 2 -20 -10 0 -9 -4 -13 -10 -10 -5 3 -10 0 -10 -9
0 -8 -15 -19 -32 -25 -33 -11 -138 -104 -138 -122 0 -5 -4 -9 -8 -9 -12 0 -47
-32 -55 -50 -4 -8 -14 -26 -24 -40 -9 -14 17 7 57 45 l74 70 -67 -72 c-37 -39
-67 -75 -67 -80 0 -11 76 -53 98 -54 14 0 13 -2 -3 -10 -17 -8 -16 -9 7 -6 15
2 29 0 30 -5 2 -5 48 -11 103 -15 75 -4 119 -2 175 11 116 26 224 64 301 107
60 32 73 36 90 26 34 -21 21 -160 -36 -388 -15 -57 -36 -146 -47 -198 -26
-122 -74 -282 -87 -291 -6 -3 -13 -21 -15 -40 -6 -46 -32 -107 -57 -133 -10
-11 -19 -30 -19 -41 0 -10 -7 -26 -15 -35 -19 -20 -115 -163 -115 -172 0 -4
-16 -24 -36 -45 -20 -22 -43 -52 -51 -69 -9 -16 -22 -35 -29 -43 -8 -7 -14
-20 -14 -27 0 -8 -8 -20 -18 -27 -9 -7 -26 -26 -36 -43 -11 -16 -29 -40 -41
-53 -12 -13 -33 -41 -46 -62 -13 -22 -30 -40 -36 -40 -7 0 -18 -9 -25 -20 -7
-11 -18 -20 -25 -20 -7 0 -15 -11 -19 -25 -3 -14 -11 -25 -18 -25 -6 0 -30
-17 -52 -38 -123 -111 -177 -146 -282 -181 -59 -20 -81 -22 -137 -16 -56 6
-76 14 -132 52 -36 24 -74 53 -85 63 -10 9 -37 25 -58 35 -22 10 -40 24 -40
32 0 7 -4 13 -9 13 -12 0 -21 9 -91 90 -30 35 -63 72 -72 82 -10 10 -18 24
-18 31 0 8 -12 20 -27 28 -42 22 -138 120 -152 156 -7 17 -19 34 -27 37 -8 3
-14 10 -14 16 0 11 -19 35 -73 91 -34 36 -127 207 -127 235 0 7 -11 37 -25 67
-18 39 -25 70 -24 102 2 35 -1 49 -13 56 -9 5 -19 27 -23 49 -4 22 -12 43 -17
47 -8 4 -9 -2 -4 -18 4 -13 9 -38 12 -55 l6 -30 -109 -18 c-59 -10 -142 -25
-183 -32 -113 -21 -330 -39 -470 -39 -114 0 -128 2 -157 23 -24 17 -36 36 -47
80 -33 120 -52 168 -90 227 -53 83 -68 121 -106 270 -29 115 -32 138 -26 214
6 73 13 99 50 176 52 107 72 130 144 162 50 24 63 25 168 21 99 -4 118 -7 145
-27 17 -12 37 -20 45 -17 16 6 19 32 4 41 -14 9 -12 65 5 185 19 123 40 225
55 264 6 16 8 36 6 43 -3 8 -2 11 4 8 5 -3 14 4 20 15 6 11 19 20 29 20 33 0
30 26 -9 84 -22 32 -48 82 -59 112 -12 30 -32 77 -46 104 -28 55 -133 324
-160 410 -9 30 -32 96 -50 145 -18 50 -36 107 -39 128 -4 21 -27 81 -52 133
-42 89 -50 115 -39 125 7 8 182 -10 275 -27z m1759 -52 c7 -13 11 -26 8 -28
-2 -3 -10 9 -17 25 -7 17 -18 36 -26 42 -8 6 -14 16 -14 22 0 11 31 -28 49
-61z m2005 52 c3 -8 2 -12 -4 -9 -6 3 -10 10 -10 16 0 14 7 11 14 -7z m-664
-24 c-8 -5 -19 -10 -25 -10 -5 0 -3 5 5 10 8 5 20 10 25 10 6 0 3 -5 -5 -10z
m-3953 -57 c-3 -10 -5 -2 -5 17 0 19 2 27 5 18 2 -10 2 -26 0 -35z m1313 27
c8 -5 11 -10 5 -10 -5 0 -17 5 -25 10 -8 5 -10 10 -5 10 6 0 17 -5 25 -10z
m3340 -25 c0 -5 -5 -3 -10 5 -5 8 -10 20 -10 25 0 6 5 3 10 -5 5 -8 10 -19 10
-25z m-770 20 c0 -2 -10 -9 -22 -15 -22 -11 -22 -10 -4 4 21 17 26 19 26 11z
m-2435 -63 c-3 -3 -11 0 -18 7 -9 10 -8 11 6 5 10 -3 15 -9 12 -12z m1415 15
c0 -2 -12 -14 -27 -28 l-28 -24 24 28 c23 25 31 32 31 24z m915 -23 c-26 -20
-55 -36 -55 -30 0 5 63 46 70 46 3 -1 -4 -8 -15 -16z m-1112 -12 c15 -16 15
-19 2 -19 -8 0 -13 3 -10 5 3 3 0 11 -6 19 -17 20 -5 16 14 -5z m-2054 -67 c0
-5 -8 6 -19 25 -11 19 -19 40 -19 45 0 6 8 -6 19 -25 11 -19 19 -39 19 -45z
m906 55 c3 -6 -1 -7 -9 -4 -18 7 -21 14 -7 14 6 0 13 -4 16 -10z m4062 -12
c-3 -8 -6 -5 -6 6 -1 11 2 17 5 13 3 -3 4 -12 1 -19z m-5532 -28 c9 -16 13
-30 11 -30 -3 0 -12 14 -21 30 -9 17 -13 30 -11 30 3 0 12 -13 21 -30z m2714
-6 c6 4 11 3 11 -2 0 -6 -7 -13 -16 -16 -23 -9 -26 -8 -18 6 5 8 2 9 -9 5 -10
-4 -16 -2 -14 6 1 7 -6 11 -15 9 -9 -1 -19 2 -23 8 -4 6 1 7 11 3 13 -5 15 -3
9 7 -4 7 6 3 23 -10 16 -12 35 -19 41 -16z m2846 -4 c10 -11 16 -20 13 -20 -3
0 -13 9 -23 20 -10 11 -16 20 -13 20 3 0 13 -9 23 -20z m-3905 -45 c0 -3 -18
4 -40 15 -22 11 -40 23 -40 25 0 3 18 -4 40 -15 22 -11 40 -23 40 -25z m1950
42 c0 -1 -37 -38 -82 -82 l-83 -80 80 83 c74 76 85 87 85 79z m760 -17 c0 -5
-2 -10 -4 -10 -3 0 -8 5 -11 10 -3 6 -1 10 4 10 6 0 11 -4 11 -10z m-127 -17
c-7 -2 -21 -2 -30 0 -10 3 -4 5 12 5 17 0 24 -2 18 -5z m1400 0 c-7 -2 -19 -2
-25 0 -7 3 -2 5 12 5 14 0 19 -2 13 -5z m-1466 -9 c-3 -3 -12 -4 -19 -1 -8 3
-5 6 6 6 11 1 17 -2 13 -5z m1570 0 c-3 -3 -12 -4 -19 -1 -8 3 -5 6 6 6 11 1
17 -2 13 -5z m-1370 -36 c-3 -7 -5 -2 -5 12 0 14 2 19 5 13 2 -7 2 -19 0 -25z
m1367 -19 c-21 -22 -57 -55 -79 -72 -22 -17 -6 2 35 43 78 78 114 101 44 29z
m-1644 37 c0 -2 -7 -7 -16 -10 -8 -3 -12 -2 -9 4 6 10 25 14 25 6z m587 -18
c-3 -8 -6 -5 -6 6 -1 11 2 17 5 13 3 -3 4 -12 1 -19z m-2907 -55 c0 -2 -18 10
-40 27 -22 17 -40 34 -40 37 0 2 18 -10 40 -27 22 -17 40 -34 40 -37z m2250
42 c0 -2 -10 -9 -22 -15 -22 -11 -22 -10 -4 4 21 17 26 19 26 11z m-3983 -107
c-2 -18 -4 -4 -4 32 0 36 2 50 4 33 2 -18 2 -48 0 -65z m4650 60 c-3 -7 -5 -2
-5 12 0 14 2 19 5 13 2 -7 2 -19 0 -25z m-310 -70 c-2 -18 -4 -6 -4 27 0 33 2
48 4 33 2 -15 2 -42 0 -60z m-947 29 c0 -2 -12 -14 -27 -28 l-28 -24 24 28
c23 25 31 32 31 24z m-1589 -24 c13 -16 12 -17 -3 -4 -10 7 -18 15 -18 17 0 8
8 3 21 -13z m3729 -48 c-24 -25 -46 -45 -49 -45 -3 0 15 20 39 45 24 25 46 45
49 45 3 0 -15 -20 -39 -45z m-3691 -11 c12 -19 16 -32 11 -29 -11 7 -43 65
-36 65 2 0 13 -16 25 -36z m-1849 22 c0 -2 -8 -10 -17 -17 -16 -13 -17 -12 -4
4 13 16 21 21 21 13z m3340 1 c0 -2 -15 -16 -32 -33 l-33 -29 29 33 c28 30 36
37 36 29z m375 -17 c-3 -5 -16 -15 -28 -21 -19 -9 -19 -8 3 10 28 23 34 26 25
11z m942 -42 c-3 -7 -5 -2 -5 12 0 14 2 19 5 13 2 -7 2 -19 0 -25z m-4770 6
c-3 -3 -12 -4 -19 -1 -8 3 -5 6 6 6 11 1 17 -2 13 -5z m3772 2 c-2 -2 -15 -9
-29 -15 -24 -11 -24 -11 -6 3 16 13 49 24 35 12z m-3832 -12 c-3 -3 -12 -4
-19 -1 -8 3 -5 6 6 6 11 1 17 -2 13 -5z m-67 -14 c-8 -5 -19 -10 -25 -10 -5 0
-3 5 5 10 8 5 20 10 25 10 6 0 3 -5 -5 -10z m867 -12 c-3 -8 -6 -5 -6 6 -1 11
2 17 5 13 3 -3 4 -12 1 -19z m1981 15 c-43 -2 -113 -2 -155 0 -43 1 -8 3 77 3
85 0 120 -2 78 -3z m2867 -14 c-11 -33 3 -67 33 -83 15 -9 21 -15 14 -16 -20
0 -62 46 -62 69 0 22 10 51 17 51 2 0 1 -9 -2 -21z m-3162 4 c-7 -2 -19 -2
-25 0 -7 3 -2 5 12 5 14 0 19 -2 13 -5z m440 0 c-7 -2 -19 -2 -25 0 -7 3 -2 5
12 5 14 0 19 -2 13 -5z m1584 -15 c-3 -8 -6 -5 -6 6 -1 11 2 17 5 13 3 -3 4
-12 1 -19z m-4617 8 c0 -2 -8 -10 -17 -17 -16 -13 -17 -12 -4 4 13 16 21 21
21 13z m2537 -2 c-3 -3 -12 -4 -19 -1 -8 3 -5 6 6 6 11 1 17 -2 13 -5z m560 0
c-3 -3 -12 -4 -19 -1 -8 3 -5 6 6 6 11 1 17 -2 13 -5z m1830 -26 c-3 -7 -5 -2
-5 12 0 14 2 19 5 13 2 -7 2 -19 0 -25z m-2454 15 c-7 -2 -19 -2 -25 0 -7 3
-2 5 12 5 14 0 19 -2 13 -5z m694 1 c-3 -3 -12 -4 -19 -1 -8 3 -5 6 6 6 11 1
17 -2 13 -5z m-760 -10 c-3 -3 -12 -4 -19 -1 -8 3 -5 6 6 6 11 1 17 -2 13 -5z
m820 0 c-3 -3 -12 -4 -19 -1 -8 3 -5 6 6 6 11 1 17 -2 13 -5z m-957 -24 c0 -5
-8 -10 -17 -10 -15 0 -16 2 -3 10 19 12 20 12 20 0z m363 3 c-7 -2 -21 -2 -30
0 -10 3 -4 5 12 5 17 0 24 -2 18 -5z m320 0 c-7 -2 -21 -2 -30 0 -10 3 -4 5
12 5 17 0 24 -2 18 -5z m-396 -9 c-3 -3 -12 -4 -19 -1 -8 3 -5 6 6 6 11 1 17
-2 13 -5z m480 0 c-3 -3 -12 -4 -19 -1 -8 3 -5 6 6 6 11 1 17 -2 13 -5z m793
3 c0 -2 -19 -21 -42 -42 l-43 -40 40 43 c36 39 45 47 45 39z m-1327 -14 c-7
-2 -21 -2 -30 0 -10 3 -4 5 12 5 17 0 24 -2 18 -5z m2414 -15 c-3 -8 -6 -5 -6
6 -1 11 2 17 5 13 3 -3 4 -12 1 -19z m-2494 5 c-7 -2 -19 -2 -25 0 -7 3 -2 5
12 5 14 0 19 -2 13 -5z m730 0 c-7 -2 -19 -2 -25 0 -7 3 -2 5 12 5 14 0 19 -2
13 -5z m44 -9 c-3 -3 -12 -4 -19 -1 -8 3 -5 6 6 6 11 1 17 -2 13 -5z m1400
-16 c-3 -8 -6 -5 -6 6 -1 11 2 17 5 13 3 -3 4 -12 1 -19z m1250 -4 c-3 -3 -12
-4 -19 -1 -8 3 -5 6 6 6 11 1 17 -2 13 -5z m-940 -26 c-3 -8 -6 -5 -6 6 -1 11
2 17 5 13 3 -3 4 -12 1 -19z m1026 15 c-7 -2 -21 -2 -30 0 -10 3 -4 5 12 5 17
0 24 -2 18 -5z m-1352 -34 c-5 -13 -10 -19 -10 -12 -1 15 10 45 15 40 3 -2 0
-15 -5 -28z m1371 -1 c-8 -8 -9 -4 -5 13 4 13 8 18 11 10 2 -7 -1 -18 -6 -23z
m-3374 -5 c-10 -2 -28 -2 -40 0 -13 2 -5 4 17 4 22 1 32 -1 23 -4z m2319 -15
c-3 -8 -6 -5 -6 6 -1 11 2 17 5 13 3 -3 4 -12 1 -19z m-2070 6 c-3 -3 -12 -4
-19 -1 -8 3 -5 6 6 6 11 1 17 -2 13 -5z m633 -4 c8 -5 11 -10 5 -10 -5 0 -17
5 -25 10 -8 5 -10 10 -5 10 6 0 17 -5 25 -10z m-1063 -6 c-3 -3 -12 -4 -19 -1
-8 3 -5 6 6 6 11 1 17 -2 13 -5z m510 -10 c-3 -3 -12 -4 -19 -1 -8 3 -5 6 6 6
11 1 17 -2 13 -5z m-597 -14 c-8 -5 -19 -10 -25 -10 -5 0 -3 5 5 10 8 5 20 10
25 10 6 0 3 -5 -5 -10z m657 4 c-3 -3 -12 -4 -19 -1 -8 3 -5 6 6 6 11 1 17 -2
13 -5z m2933 -24 c-12 -16 -24 -30 -26 -30 -3 0 4 14 16 30 12 17 24 30 26 30
3 0 -4 -13 -16 -30z m-4900 -15 c0 -5 -5 -3 -10 5 -5 8 -10 20 -10 25 0 6 5 3
10 -5 5 -8 10 -19 10 -25z m2063 28 c-7 -2 -21 -2 -30 0 -10 3 -4 5 12 5 17 0
24 -2 18 -5z m-1163 -13 c-8 -5 -19 -10 -25 -10 -5 0 -3 5 5 10 8 5 20 10 25
10 6 0 3 -5 -5 -10z m1247 4 c-3 -3 -12 -4 -19 -1 -8 3 -5 6 6 6 11 1 17 -2
13 -5z m56 -11 c-7 -2 -19 -2 -25 0 -7 3 -2 5 12 5 14 0 19 -2 13 -5z m1674
-15 c-3 -8 -6 -5 -6 6 -1 11 2 17 5 13 3 -3 4 -12 1 -19z m-2037 2 c19 -6 94
-19 165 -30 293 -45 410 -71 526 -116 48 -19 95 -34 106 -34 25 0 102 -42 170
-93 28 -21 67 -43 87 -48 47 -13 62 -30 69 -76 4 -21 17 -52 29 -69 24 -32 22
-32 122 -22 29 3 30 2 53 -87 38 -144 22 -294 -40 -387 -23 -34 -57 -46 -71
-26 -6 8 -22 18 -35 23 -13 4 -39 23 -60 42 -41 40 -155 128 -249 192 -35 24
-67 54 -72 66 -6 16 -20 25 -46 30 -21 3 -54 20 -73 36 -20 16 -39 29 -43 29
-4 0 -34 19 -65 43 -32 24 -102 69 -156 101 -54 32 -128 81 -165 107 -37 27
-107 76 -156 109 -129 87 -206 164 -206 205 0 18 56 20 110 5z m433 3 c-7 -2
-21 -2 -30 0 -10 3 -4 5 12 5 17 0 24 -2 18 -5z m70 -10 c-7 -2 -19 -2 -25 0
-7 3 -2 5 12 5 14 0 19 -2 13 -5z m44 -9 c-3 -3 -12 -4 -19 -1 -8 3 -5 6 6 6
11 1 17 -2 13 -5z m46 -11 c-7 -2 -19 -2 -25 0 -7 3 -2 5 12 5 14 0 19 -2 13
-5z m417 -19 c0 -2 -9 0 -20 6 -11 6 -20 13 -20 16 0 2 9 0 20 -6 11 -6 20
-13 20 -16z m-2060 11 c0 -2 -10 -9 -22 -15 -22 -11 -22 -10 -4 4 21 17 26 19
26 11z m3077 -17 c-3 -8 -6 -5 -6 6 -1 11 2 17 5 13 3 -3 4 -12 1 -19z m-1347
2 c8 -5 11 -10 5 -10 -5 0 -17 5 -25 10 -8 5 -10 10 -5 10 6 0 17 -5 25 -10z
m1010 -10 c-6 -11 -13 -20 -16 -20 -2 0 0 9 6 20 6 11 13 20 16 20 2 0 0 -9
-6 -20z m-4373 -22 c-3 -8 -6 -5 -6 6 -1 11 2 17 5 13 3 -3 4 -12 1 -19z
m3478 -16 c-5 -5 -77 18 -89 29 -5 4 14 1 42 -8 29 -9 50 -19 47 -21z m304 2
c14 -12 -19 -1 -35 12 -18 14 -18 14 6 3 14 -6 27 -13 29 -15z m918 -6 c-3 -8
-6 -5 -6 6 -1 11 2 17 5 13 3 -3 4 -12 1 -19z m963 18 c0 -2 -8 -10 -17 -17
-16 -13 -17 -12 -4 4 13 16 21 21 21 13z m-1320 -26 c-6 -11 -13 -20 -16 -20
-2 0 0 9 6 20 6 11 13 20 16 20 2 0 0 -9 -6 -20z m-3440 -45 c0 -5 -5 -3 -10
5 -5 8 -10 20 -10 25 0 6 5 3 10 -5 5 -8 10 -19 10 -25z m2700 20 c17 -9 30
-18 30 -21 0 -4 -59 23 -69 32 -10 9 13 3 39 -11z m100 -11 c0 -2 -9 0 -20 6
-11 6 -20 13 -20 16 0 2 9 0 20 -6 11 -6 20 -13 20 -16z m1910 7 c-5 -11 -15
-23 -21 -27 -6 -3 -3 5 6 20 20 30 30 35 15 7z m-1739 -18 c13 -16 12 -17 -3
-4 -10 7 -18 15 -18 17 0 8 8 3 21 -13z m800 -20 c-12 -20 -14 -14 -5 12 4 9
9 14 11 11 3 -2 0 -13 -6 -23z m-985 -14 c3 -6 -5 -3 -20 6 -14 10 -26 19 -26
22 0 7 39 -17 46 -28z m229 3 c-3 -3 -11 0 -18 7 -9 10 -8 11 6 5 10 -3 15 -9
12 -12z m-2370 -2 c-3 -5 -12 -10 -18 -10 -7 0 -6 4 3 10 19 12 23 12 15 0z
m4032 -22 c-3 -7 -5 -2 -5 12 0 14 2 19 5 13 2 -7 2 -19 0 -25z m-4167 -3 c0
-7 -7 -16 -16 -19 -14 -5 -15 -4 -5 8 7 8 9 21 5 27 -4 8 -3 9 4 5 7 -4 12
-13 12 -21z m2394 -39 c14 0 21 -5 16 -10 -10 -10 -92 27 -112 51 -7 9 6 4 29
-11 23 -16 53 -29 67 -30z m839 19 c-9 -19 -18 -33 -21 -31 -4 5 26 66 33 66
3 0 -3 -16 -12 -35z m-4780 18 c-7 -2 -19 -2 -25 0 -7 3 -2 5 12 5 14 0 19 -2
13 -5z m-60 -10 c-7 -2 -19 -2 -25 0 -7 3 -2 5 12 5 14 0 19 -2 13 -5z m4022
-3 c3 -6 -1 -7 -9 -4 -18 7 -21 14 -7 14 6 0 13 -4 16 -10z m413 -20 c-22 -30
-35 -41 -22 -17 9 16 36 47 41 47 2 0 -6 -13 -19 -30z m-4491 14 c-3 -3 -12
-4 -19 -1 -8 3 -5 6 6 6 11 1 17 -2 13 -5z m5858 -4 c3 -6 -1 -7 -9 -4 -18 7
-21 14 -7 14 6 0 13 -4 16 -10z m82 -26 c-3 -3 -12 -4 -19 -1 -8 3 -5 6 6 6
11 1 17 -2 13 -5z m191 -1 c-15 -2 -42 -2 -60 0 -18 2 -6 4 27 4 33 0 48 -2
33 -4z m-4910 -38 c-3 -3 -9 2 -12 12 -6 14 -5 15 5 6 7 -7 10 -15 7 -18z
m4912 21 c0 -2 -8 -10 -17 -17 -16 -13 -17 -12 -4 4 13 16 21 21 21 13z
m-1680 -10 c0 -3 -18 -26 -40 -51 -22 -25 -40 -43 -40 -40 0 6 72 94 78 95 1
0 2 -2 2 -4z m-169 -48 c15 -28 5 -21 -21 15 -15 20 -17 27 -6 18 9 -8 22 -23
27 -33z m569 -5 c-11 -17 -11 -17 -6 0 3 10 6 24 7 30 0 9 2 9 5 0 3 -7 0 -20
-6 -30z m1220 14 c0 -2 -12 -14 -27 -28 l-28 -24 24 28 c23 25 31 32 31 24z
m-1760 -57 c6 -11 8 -20 6 -20 -3 0 -10 9 -16 20 -6 11 -8 20 -6 20 3 0 10 -9
16 -20z m-4310 -25 c13 -14 21 -25 18 -25 -2 0 -15 11 -28 25 -13 14 -21 25
-18 25 2 0 15 -11 28 -25z m4361 -12 c-12 -20 -14 -14 -5 12 4 9 9 14 11 11 3
-2 0 -13 -6 -23z m463 -17 c-3 -15 -8 -25 -11 -23 -2 3 -1 17 3 31 3 15 8 25
11 23 2 -3 1 -17 -3 -31z m1201 -16 l20 -25 -22 19 c-13 11 -23 24 -23 29 0 6
1 8 3 6 1 -2 11 -15 22 -29z m-5974 -7 c13 -16 12 -17 -3 -4 -10 7 -18 15 -18
17 0 8 8 3 21 -13z m4756 -55 c-3 -8 -6 -5 -6 6 -1 11 2 17 5 13 3 -3 4 -12 1
-19z m-4700 -60 c-3 -8 -6 -5 -6 6 -1 11 2 17 5 13 3 -3 4 -12 1 -19z m6130
-55 c-3 -10 -5 -4 -5 12 0 17 2 24 5 18 2 -7 2 -21 0 -30z m-6269 0 c-10 -2
-28 -2 -40 0 -13 2 -5 4 17 4 22 1 32 -1 23 -4z m-125 -10 c-7 -2 -19 -2 -25
0 -7 3 -2 5 12 5 14 0 19 -2 13 -5z m4918 -20 c-12 -20 -14 -14 -5 12 4 9 9
14 11 11 3 -2 0 -13 -6 -23z m-24 -56 c-9 -14 -26 -27 -39 -30 -22 -6 -22 -5
-4 8 11 8 23 15 27 15 4 0 11 9 14 21 4 11 9 18 12 15 3 -3 -1 -16 -10 -29z
m1474 -10 c-10 -9 -11 -8 -5 6 3 10 9 15 12 12 3 -3 0 -11 -7 -18z m-31 -30
c0 -2 -12 -14 -27 -28 l-28 -24 24 28 c23 25 31 32 31 24z m-1483 -39 c-3 -8
-6 -5 -6 6 -1 11 2 17 5 13 3 -3 4 -12 1 -19z m-4822 -38 c10 -11 16 -20 13
-20 -3 0 -13 9 -23 20 -10 11 -16 20 -13 20 3 0 13 -9 23 -20z m4832 -137 c-2
-21 -4 -4 -4 37 0 41 2 58 4 38 2 -21 2 -55 0 -75z m-3630 71 c-3 -3 -12 -4
-19 -1 -8 3 -5 6 6 6 11 1 17 -2 13 -5z m2803 -29 c9 -10 11 -40 8 -94 -5 -91
-41 -166 -83 -177 -36 -9 -89 3 -118 27 -28 21 -72 105 -82 156 -6 29 -4 34
22 44 15 6 51 15 78 20 28 5 58 12 67 15 13 4 16 1 12 -10 -4 -9 -1 -23 6 -31
15 -18 5 -65 -14 -65 -8 0 -23 18 -33 40 -10 22 -21 40 -25 40 -15 0 -8 -33
13 -66 17 -28 27 -34 54 -34 37 0 49 20 61 103 7 50 14 56 34 32z m-3080 0 c0
-2 -13 -11 -30 -20 -38 -19 -40 -11 -2 9 31 17 32 18 32 11z m4418 -2 c-21 -2
-57 -2 -80 0 -24 2 -7 4 37 4 44 0 63 -2 43 -4z m-165 -10 c-7 -2 -19 -2 -25
0 -7 3 -2 5 12 5 14 0 19 -2 13 -5z m985 0 c-10 -2 -26 -2 -35 0 -10 3 -2 5
17 5 19 0 27 -2 18 -5z m-1041 -9 c-3 -3 -12 -4 -19 -1 -8 3 -5 6 6 6 11 1 17
-2 13 -5z m-991 -26 l19 -23 -22 18 c-21 18 -21 18 -26 0 -4 -14 -5 -14 -6 5
0 12 3 22 7 22 5 0 17 -10 28 -22z m-3276 8 c0 -2 -8 -10 -17 -17 -16 -13 -17
-12 -4 4 13 16 21 21 21 13z m4621 -13 c13 -16 12 -17 -3 -4 -17 13 -22 21
-14 21 2 0 10 -8 17 -17z m-534 -9 c-3 -3 -12 -4 -19 -1 -8 3 -5 6 6 6 11 1
17 -2 13 -5z m-60 -10 c-3 -3 -12 -4 -19 -1 -8 3 -5 6 6 6 11 1 17 -2 13 -5z
m-702 -24 c26 -29 15 -32 -13 -4 -12 13 -19 24 -14 24 5 0 17 -9 27 -20z
m2115 -5 c13 -14 21 -25 18 -25 -2 0 -15 11 -28 25 -13 14 -21 25 -18 25 2 0
15 -11 28 -25z m-2685 -35 c-16 -16 -32 -30 -37 -30 -8 0 53 59 61 60 3 0 -8
-13 -24 -30z m-3570 0 c-3 -5 -12 -10 -18 -10 -7 0 -6 4 3 10 19 12 23 12 15
0z m738 -25 c-3 -9 -8 -14 -10 -11 -3 3 -2 9 2 15 9 16 15 13 8 -4z m-796 -1
c-3 -3 -12 -4 -19 -1 -8 3 -5 6 6 6 11 1 17 -2 13 -5z m-40 -10 c-3 -3 -12 -4
-19 -1 -8 3 -5 6 6 6 11 1 17 -2 13 -5z m6366 -1 c-13 -2 -35 -2 -50 0 -16 2
-5 4 22 4 28 0 40 -2 28 -4z m-6436 -9 c-3 -3 -12 -4 -19 -1 -8 3 -5 6 6 6 11
1 17 -2 13 -5z m-57 -8 c0 -2 -7 -7 -16 -10 -8 -3 -12 -2 -9 4 6 10 25 14 25
6z m6387 -38 c-3 -7 -5 -2 -5 12 0 14 2 19 5 13 2 -7 2 -19 0 -25z m-6420 -35
c-3 -10 -5 -2 -5 17 0 19 2 27 5 18 2 -10 2 -26 0 -35z m3978 7 c16 -17 16
-20 3 -15 -9 4 -19 13 -22 21 -7 19 -2 18 19 -6z m360 10 c-3 -5 -12 -10 -18
-10 -7 0 -6 4 3 10 19 12 23 12 15 0z m-82 -25 c-10 -13 -22 -25 -27 -25 -5 0
1 11 14 25 30 32 36 32 13 0z m-4233 -40 c14 -19 14 -19 -2 -6 -10 7 -18 18
-18 24 0 6 1 8 3 6 1 -2 9 -13 17 -24z m907 -32 c-3 -10 -5 -4 -5 12 0 17 2
24 5 18 2 -7 2 -21 0 -30z m4870 5 c-3 -8 -6 -5 -6 6 -1 11 2 17 5 13 3 -3 4
-12 1 -19z m-1672 2 c-28 -12 -37 -12 -30 0 3 6 16 10 28 9 21 0 21 -1 2 -9z
m2612 4 c-3 -3 -12 -4 -19 -1 -8 3 -5 6 6 6 11 1 17 -2 13 -5z m40 -10 c-3 -3
-12 -4 -19 -1 -8 3 -5 6 6 6 11 1 17 -2 13 -5z m-6716 -21 c13 -16 12 -17 -3
-4 -17 13 -22 21 -14 21 2 0 10 -8 17 -17z m6845 -45 l29 -33 -32 29 c-31 28
-38 36 -30 36 2 0 16 -15 33 -32z m-3028 15 c-15 -2 -42 -2 -60 0 -18 2 -6 4
27 4 33 0 48 -2 33 -4z m1929 -90 c-2 -21 -4 -6 -4 32 0 39 2 55 4 38 2 -18 2
-50 0 -70z m-4890 15 c-2 -13 -4 -5 -4 17 -1 22 1 32 4 23 2 -10 2 -28 0 -40z
m-820 -55 c-2 -21 -4 -6 -4 32 0 39 2 55 4 38 2 -18 2 -50 0 -70z m843 -38 c0
-5 -5 -3 -10 5 -5 8 -10 20 -10 25 0 6 5 3 10 -5 5 -8 10 -19 10 -25z m5967
19 c-3 -3 -12 -4 -19 -1 -8 3 -5 6 6 6 11 1 17 -2 13 -5z m-5960 -56 c-3 -8
-6 -5 -6 6 -1 11 2 17 5 13 3 -3 4 -12 1 -19z m10 -40 c-3 -8 -6 -5 -6 6 -1
11 2 17 5 13 3 -3 4 -12 1 -19z m5773 -2 c0 -2 -7 -7 -16 -10 -8 -3 -12 -2 -9
4 6 10 25 14 25 6z m-6890 -13 c-19 -3 -38 -10 -42 -16 -5 -8 -8 -6 -8 6 0 14
8 17 43 15 40 -1 40 -1 7 -5z m5967 -45 c-2 -13 -4 -5 -4 17 -1 22 1 32 4 23
2 -10 2 -28 0 -40z m-5810 35 c-20 -2 -52 -2 -70 0 -17 2 0 4 38 4 39 0 53 -2
32 -4z m970 -35 c-3 -7 -5 -2 -5 12 0 14 2 19 5 13 2 -7 2 -19 0 -25z m5730 0
c-3 -7 -5 -2 -5 12 0 14 2 19 5 13 2 -7 2 -19 0 -25z m-6883 -4 c3 -8 2 -12
-4 -9 -6 3 -10 10 -10 16 0 14 7 11 14 -7z m36 -49 c13 -14 21 -25 18 -25 -2
0 -15 11 -28 25 -13 14 -21 25 -18 25 2 0 15 -11 28 -25z m5947 -7 c-3 -8 -6
-5 -6 6 -1 11 2 17 5 13 3 -3 4 -12 1 -19z m-4771 -80 c8 -16 13 -28 10 -28
-6 0 -46 66 -46 76 0 10 14 -8 36 -48z m4761 30 c-3 -8 -6 -5 -6 6 -1 11 2 17
5 13 3 -3 4 -12 1 -19z m-10 -50 c-3 -8 -6 -5 -6 6 -1 11 2 17 5 13 3 -3 4
-12 1 -19z m-5817 -21 c0 -2 -10 -12 -22 -23 l-23 -19 19 23 c18 21 26 27 26
19z m6920 -17 c0 -5 -5 -10 -11 -10 -5 0 -7 5 -4 10 3 6 8 10 11 10 2 0 4 -4
4 -10z m-112 -7 c-21 -2 -57 -2 -80 0 -24 2 -7 4 37 4 44 0 63 -2 43 -4z
m-1017 -30 c-12 -20 -14 -14 -5 12 4 9 9 14 11 11 3 -2 0 -13 -6 -23z m-4653
-28 c-3 -3 -9 2 -12 12 -6 14 -5 15 5 6 7 -7 10 -15 7 -18z m-1278 -8 c0 -2
-10 -12 -22 -23 l-23 -19 19 23 c18 21 26 27 26 19z m1300 -42 c0 -5 -5 -3
-10 5 -5 8 -10 20 -10 25 0 6 5 3 10 -5 5 -8 10 -19 10 -25z m-1347 -20 c-3
-9 -8 -14 -10 -11 -3 3 -2 9 2 15 9 16 15 13 8 -4z m5947 7 c0 -5 -7 -17 -15
-28 -14 -18 -14 -17 -4 9 12 27 19 34 19 19z m-4593 -34 c-3 -8 -6 -5 -6 6 -1
11 2 17 5 13 3 -3 4 -12 1 -19z m10 -50 c-3 -8 -6 -5 -6 6 -1 11 2 17 5 13 3
-3 4 -12 1 -19z m123 -142 c19 -8 29 -15 22 -16 -23 0 -66 27 -97 62 l-30 33
35 -32 c19 -18 51 -39 70 -47z m857 58 c-3 -3 -12 -4 -19 -1 -8 3 -5 6 6 6 11
1 17 -2 13 -5z m-64 -11 c-7 -2 -19 -2 -25 0 -7 3 -2 5 12 5 14 0 19 -2 13 -5z
m3577 4 c0 -1 -26 -27 -57 -57 l-58 -55 55 58 c50 53 60 62 60 54z m-5603 -13
c-3 -3 -12 -4 -19 -1 -8 3 -5 6 6 6 11 1 17 -2 13 -5z m-54 -11 c-7 -2 -19 -2
-25 0 -7 3 -2 5 12 5 14 0 19 -2 13 -5z m1974 1 c-3 -3 -12 -4 -19 -1 -8 3 -5
6 6 6 11 1 17 -2 13 -5z m-1777 -7 c0 -2 -17 -19 -37 -38 l-38 -34 34 38 c33
34 41 42 41 34z m1713 -4 c-7 -2 -19 -2 -25 0 -7 3 -2 5 12 5 14 0 19 -2 13
-5z m-66 -9 c-3 -3 -12 -4 -19 -1 -8 3 -5 6 6 6 11 1 17 -2 13 -5z m-84 -11
c-18 -2 -48 -2 -65 0 -18 2 -4 4 32 4 36 0 50 -2 33 -4z m2560 -11 c-10 -10
-20 -17 -22 -16 -6 5 20 34 30 34 5 0 1 -8 -8 -18z m2204 -4 c-3 -8 -6 -5 -6
6 -1 11 2 17 5 13 3 -3 4 -12 1 -19z m-4904 5 c-7 -2 -21 -2 -30 0 -10 3 -4 5
12 5 17 0 24 -2 18 -5z m2752 -11 c-3 -3 -11 0 -18 7 -9 10 -8 11 6 5 10 -3
15 -9 12 -12z m-2897 1 c-27 -2 -69 -2 -95 0 -27 2 -5 3 47 3 52 0 74 -1 48
-3z m2815 -38 c-3 -9 -8 -14 -10 -11 -3 3 -2 9 2 15 9 16 15 13 8 -4z m164 9
c-3 -3 -12 -4 -19 -1 -8 3 -5 6 6 6 11 1 17 -2 13 -5z m1083 -8 c0 -2 -8 -10
-17 -17 -16 -13 -17 -12 -4 4 13 16 21 21 21 13z m-1000 -16 c8 -5 11 -10 5
-10 -5 0 -17 5 -25 10 -8 5 -10 10 -5 10 6 0 17 -5 25 -10z m955 -20 c-3 -5
-12 -10 -18 -10 -7 0 -6 4 3 10 19 12 23 12 15 0z m-48 -16 c-3 -3 -12 -4 -19
-1 -8 3 -5 6 6 6 11 1 17 -2 13 -5z m1158 -14 c10 -11 16 -20 13 -20 -3 0 -13
9 -23 20 -10 11 -16 20 -13 20 3 0 13 -9 23 -20z m-2355 -20 c-6 -11 -13 -20
-16 -20 -2 0 0 9 6 20 6 11 13 20 16 20 2 0 0 -9 -6 -20z m517 14 c-3 -3 -12
-4 -19 -1 -8 3 -5 6 6 6 11 1 17 -2 13 -5z m40 -10 c-3 -3 -12 -4 -19 -1 -8 3
-5 6 6 6 11 1 17 -2 13 -5z m101 -1 c-16 -2 -40 -2 -55 0 -16 2 -3 4 27 4 30
0 43 -2 28 -4z m-688 -53 c-6 -11 -13 -20 -16 -20 -2 0 0 9 6 20 6 11 13 20
16 20 2 0 0 -9 -6 -20z m-2670 6 c0 -2 -8 -10 -17 -17 -16 -13 -17 -12 -4 4
13 16 21 21 21 13z m76 -38 l29 -33 -32 29 c-31 28 -38 36 -30 36 2 0 16 -15
33 -32z m-1329 -85 c-2 -16 -4 -3 -4 27 0 30 2 43 4 28 2 -16 2 -40 0 -55z
m6194 10 c13 -17 13 -17 -6 -3 -11 8 -22 16 -24 17 -2 2 0 3 6 3 6 0 17 -8 24
-17z m-5170 -20 c13 -16 12 -17 -3 -4 -17 13 -22 21 -14 21 2 0 10 -8 17 -17z
m462 -20 c-7 -2 -19 -2 -25 0 -7 3 -2 5 12 5 14 0 19 -2 13 -5z m4944 -45 c-2
-13 -4 -5 -4 17 -1 22 1 32 4 23 2 -10 2 -28 0 -40z m-6440 20 c-3 -8 -6 -5
-6 6 -1 11 2 17 5 13 3 -3 4 -12 1 -19z m3833 18 c0 -2 -7 -9 -15 -16 -13 -11
-14 -10 -9 4 5 14 24 23 24 12z m-3630 -20 c0 -2 -8 -10 -17 -17 -16 -13 -17
-12 -4 4 13 16 21 21 21 13z m357 -12 c-3 -3 -12 -4 -19 -1 -8 3 -5 6 6 6 11
1 17 -2 13 -5z m5744 -11 c13 -16 12 -17 -3 -4 -10 7 -18 15 -18 17 0 8 8 3
21 -13z m-6314 -85 c-2 -13 -4 -3 -4 22 0 25 2 35 4 23 2 -13 2 -33 0 -45z
m166 47 c-3 -9 -8 -14 -10 -11 -3 3 -2 9 2 15 9 16 15 13 8 -4z m527 -40 c30
-30 52 -55 49 -55 -2 0 -29 25 -59 55 -30 30 -52 55 -49 55 2 0 29 -25 59 -55z
m5181 38 c13 -16 12 -17 -3 -4 -10 7 -25 11 -33 7 -9 -3 -13 -2 -10 4 10 15
31 12 46 -7z m226 -5 c-3 -8 -6 -5 -6 6 -1 11 2 17 5 13 3 -3 4 -12 1 -19z
m306 5 c-7 -2 -19 -2 -25 0 -7 3 -2 5 12 5 14 0 19 -2 13 -5z m-2641 -30 c-3
-16 -7 -22 -10 -15 -4 13 4 42 11 42 2 0 2 -12 -1 -27z m153 17 c3 -6 -1 -7
-9 -4 -18 7 -21 14 -7 14 6 0 13 -4 16 -10z m142 -22 c-3 -8 -6 -5 -6 6 -1 11
2 17 5 13 3 -3 4 -12 1 -19z m373 -19 c15 -28 5 -23 -15 7 -9 15 -12 23 -6 20
6 -4 16 -16 21 -27z m-4310 2 c0 -5 -7 -12 -16 -15 -14 -5 -15 -4 -4 9 14 17
20 19 20 6z m4076 -53 l29 -33 -32 29 c-18 17 -33 31 -33 33 0 8 8 1 36 -29z
m461 16 c-3 -3 -12 -4 -19 -1 -8 3 -5 6 6 6 11 1 17 -2 13 -5z m-3862 -42 c-3
-3 -11 0 -18 7 -9 10 -8 11 6 5 10 -3 15 -9 12 -12z m4265 4 c0 -2 -8 -10 -17
-17 -16 -13 -17 -12 -4 4 13 16 21 21 21 13z m1037 -28 c-3 -7 -5 -2 -5 12 0
14 2 19 5 13 2 -7 2 -19 0 -25z m-62 -28 c10 -11 16 -20 13 -20 -3 0 -13 9
-23 20 -10 11 -16 20 -13 20 3 0 13 -9 23 -20z m-1568 -37 c-3 -10 -5 -4 -5
12 0 17 2 24 5 18 2 -7 2 -21 0 -30z m258 17 c10 -11 16 -20 13 -20 -3 0 -13
9 -23 20 -10 11 -16 20 -13 20 3 0 13 -9 23 -20z m1382 -12 c-3 -8 -6 -5 -6 6
-1 11 2 17 5 13 3 -3 4 -12 1 -19z m-657 -12 c0 -2 -8 -10 -17 -17 -16 -13
-17 -12 -4 4 13 16 21 21 21 13z m203 -65 c-2 -3 -18 10 -36 29 l-32 34 36
-30 c20 -16 34 -31 32 -33z m77 25 c0 -2 -8 -10 -17 -17 -16 -13 -17 -12 -4 4
13 16 21 21 21 13z m-595 -26 c10 -11 16 -20 13 -20 -3 0 -13 9 -23 20 -10 11
-16 20 -13 20 3 0 13 -9 23 -20z m46 -47 c13 -16 12 -17 -3 -4 -10 7 -18 15
-18 17 0 8 8 3 21 -13z m40 -30 c13 -16 12 -17 -3 -4 -10 7 -18 15 -18 17 0 8
8 3 21 -13z"/>
<path d="M5157 3941 c-30 -119 -34 -205 -17 -356 17 -149 71 -230 197 -294 72
-36 81 -29 75 57 -4 52 -7 62 -23 62 -13 0 -17 -7 -17 -31 1 -34 -16 -51 -41
-41 -121 50 -164 160 -163 419 0 78 5 174 12 213 7 39 10 73 8 75 -2 2 -16
-44 -31 -104z"/>
<path d="M6026 3914 c-23 -23 -20 -30 4 -9 11 10 20 20 20 22 0 7 -9 2 -24
-13z"/>
<path d="M5935 3820 c-4 -6 3 -10 14 -10 25 0 27 6 6 13 -8 4 -17 2 -20 -3z"/>
<path d="M6268 3723 c18 -2 45 -2 60 0 15 2 0 4 -33 4 -33 0 -45 -2 -27 -4z"/>
<path d="M5805 3670 c-17 -17 -53 -45 -82 -61 -60 -34 -154 -116 -150 -131 1
-5 -11 -12 -27 -13 -15 -2 -36 -11 -45 -19 -10 -9 -23 -16 -29 -16 -7 0 -12
-7 -12 -16 0 -10 6 -14 15 -11 8 4 17 2 20 -3 4 -6 1 -10 -4 -10 -20 0 -11
-19 30 -62 22 -24 45 -52 51 -63 7 -15 4 -14 -13 5 l-21 25 15 -25 c8 -14 22
-25 30 -25 9 0 19 -4 24 -9 5 -5 2 -6 -6 -1 -9 5 -12 3 -9 -6 3 -8 14 -14 26
-13 11 0 18 -5 16 -11 -3 -6 17 -18 43 -27 26 -9 70 -25 97 -34 43 -15 60 -16
148 -6 55 7 107 16 118 22 10 5 78 14 151 20 103 7 137 14 146 26 17 24 -1 59
-68 129 -108 114 -119 127 -119 134 0 5 -21 30 -47 58 -34 34 -78 64 -148 99
-55 27 -105 55 -110 62 -8 10 -17 6 -40 -18z m1 -41 c3 -6 26 -19 50 -29 43
-19 43 -19 29 -47 -8 -15 -15 -34 -15 -41 0 -21 -40 -72 -55 -72 -33 0 -45 90
-20 155 7 19 7 19 -10 3 -23 -22 -31 -113 -13 -148 9 -17 23 -26 44 -28 26 -3
37 4 67 39 20 23 37 53 39 67 4 33 16 36 56 12 38 -23 41 -48 16 -131 -41
-136 -85 -189 -159 -189 -35 0 -47 6 -81 43 -88 92 -99 114 -100 199 -2 86 -2
85 84 144 53 36 58 38 68 23z m295 -196 l34 -38 -37 34 c-31 29 -38 32 -38 16
0 -10 -3 -16 -6 -12 -6 6 1 37 9 37 2 0 19 -17 38 -37z m-464 -25 c-2 -13 -4
-5 -4 17 -1 22 1 32 4 23 2 -10 2 -28 0 -40z m526 -44 c11 -14 17 -27 15 -30
-3 -2 -14 10 -27 26 -12 17 -18 30 -14 30 4 0 16 -12 26 -26z m-152 -57 c-10
-9 -11 -8 -5 6 3 10 9 15 12 12 3 -3 0 -11 -7 -18z m203 -3 c5 -14 4 -15 -9
-4 -17 14 -19 20 -6 20 5 0 12 -7 15 -16z m-214 -17 c0 -2 -17 -19 -37 -38
l-38 -34 34 38 c33 34 41 42 41 34z m193 -74 c-7 -2 -19 -2 -25 0 -7 3 -2 5
12 5 14 0 19 -2 13 -5z m-512 -21 c-7 -2 -18 1 -23 6 -8 8 -4 9 13 5 13 -4 18
-8 10 -11z m442 11 c-7 -2 -19 -2 -25 0 -7 3 -2 5 12 5 14 0 19 -2 13 -5z
m-236 -9 c-3 -3 -12 -4 -19 -1 -8 3 -5 6 6 6 11 1 17 -2 13 -5z m26 -31 c-7
-2 -19 -2 -25 0 -7 3 -2 5 12 5 14 0 19 -2 13 -5z"/>
<path d="M6975 3230 c-3 -5 -1 -10 4 -10 6 0 11 5 11 10 0 6 -2 10 -4 10 -3 0
-8 -4 -11 -10z"/>
<path d="M5461 2755 c0 -11 7 -38 15 -60 l14 -40 -6 44 c-5 48 -24 93 -23 56z"/>
<path d="M6840 2707 c0 -7 14 -18 30 -24 39 -15 39 -3 0 19 -21 12 -30 13 -30
5z"/>
<path d="M6392 2640 c0 -14 2 -19 5 -12 2 6 2 18 0 25 -3 6 -5 1 -5 -13z"/>
<path d="M5494 2628 c10 -44 26 -81 32 -75 3 3 0 23 -7 44 -16 47 -34 69 -25
31z"/>
<path d="M6808 2422 c-15 -9 -32 -26 -38 -37 -6 -11 -24 -29 -40 -40 -17 -11
-30 -25 -30 -31 0 -18 -48 -34 -105 -34 -47 0 -59 4 -91 33 -34 29 -36 30 -24
7 l13 -25 -29 25 c-16 14 -33 31 -37 38 -4 6 -17 12 -27 12 -10 0 -23 -6 -27
-12 -4 -7 -17 -14 -28 -15 -20 -1 -20 -1 -1 13 11 8 15 14 10 14 -11 0 -45
-34 -59 -59 -6 -10 -4 -12 6 -6 12 8 12 6 0 -8 -7 -9 -10 -17 -5 -18 5 0 -1
-4 -13 -9 -31 -13 -29 -28 5 -33 19 -3 15 -4 -15 -6 -38 -1 -90 -17 -103 -31
-10 -10 -76 -39 -121 -52 -54 -15 -61 -30 -21 -40 15 -4 44 -26 63 -49 18 -23
42 -49 52 -58 9 -8 17 -21 17 -28 0 -6 10 -15 22 -19 12 -3 31 -15 42 -25 11
-11 28 -19 38 -19 10 0 18 -5 18 -10 0 -6 39 -29 88 -51 80 -38 92 -40 150
-36 38 3 70 11 81 21 10 9 24 16 32 16 8 0 25 9 39 20 14 11 30 20 37 20 6 0
21 12 32 26 24 31 46 27 93 -17 21 -19 43 -29 63 -29 37 0 136 60 161 98 48
72 92 180 108 267 4 22 11 45 15 50 27 35 20 42 -37 39 -73 -3 -124 12 -158
47 -15 16 -34 29 -41 29 -7 0 -13 4 -13 8 0 9 -68 33 -86 31 -5 0 -21 -8 -36
-17z m39 -14 c-15 -5 -24 -14 -21 -20 5 -7 2 -8 -6 -3 -10 6 -9 11 5 22 11 7
26 13 34 12 9 0 4 -5 -12 -11z m119 -50 l19 -23 -25 20 c-14 11 -27 21 -29 22
-2 2 0 3 6 3 5 0 18 -10 29 -22z m-212 -34 c3 -9 2 -12 -5 -9 -5 4 -18 1 -27
-6 -13 -11 -12 -8 2 9 23 26 22 26 30 6z m306 -18 c0 -11 -19 -15 -25 -6 -3 5
1 10 9 10 9 0 16 -2 16 -4z m-35 -24 c-3 -3 -11 0 -18 7 -9 10 -8 11 6 5 10
-3 15 -9 12 -12z m-325 3 c0 -2 -10 -9 -22 -15 -22 -11 -22 -10 -4 4 21 17 26
19 26 11z m431 -26 c-5 -13 -10 -18 -10 -11 -1 8 -6 10 -13 6 -7 -4 -4 2 6 14
23 27 30 23 17 -9z m-288 -6 c-24 -2 -62 -2 -85 0 -24 2 -5 4 42 4 47 0 66 -2
43 -4z m-472 -60 c13 -16 12 -17 -3 -4 -10 7 -18 15 -18 17 0 8 8 3 21 -13z
m572 -10 c-13 -2 -33 -2 -45 0 -13 2 -3 4 22 4 25 0 35 -2 23 -4z m-816 -60
c-4 -3 -1 -13 6 -22 11 -14 10 -14 -5 -2 -21 15 -23 31 -6 31 6 0 8 -3 5 -7z
m400 -30 c-20 -2 -52 -2 -70 0 -17 2 0 4 38 4 39 0 53 -2 32 -4z m-277 -121
c0 -3 -16 9 -35 28 -19 19 -35 37 -35 41 0 5 16 -8 35 -28 19 -20 35 -39 35
-41z m633 -29 c-4 -10 -9 -11 -19 -2 -19 15 -18 18 5 16 11 -1 17 -6 14 -14z
m-513 -33 c8 -5 11 -10 5 -10 -5 0 -17 5 -25 10 -8 5 -10 10 -5 10 6 0 17 -5
25 -10z"/>
<path d="M6388 2383 c6 -2 18 -2 25 0 6 3 1 5 -13 5 -14 0 -19 -2 -12 -5z"/>
<path d="M11601 2799 c-50 -15 -131 -70 -174 -118 -78 -87 -183 -275 -218
-389 -12 -42 -12 -42 -33 -23 -45 40 -68 45 -226 49 -211 4 -204 2 -197 61 3
27 20 86 38 131 39 102 89 160 170 197 32 15 57 29 54 31 -8 8 -112 -46 -149
-78 -43 -38 -64 -76 -99 -180 -39 -115 -43 -146 -20 -158 10 -5 95 -11 188
-14 155 -3 173 -5 207 -26 36 -22 53 -58 44 -90 -2 -10 -7 -29 -10 -44 -4 -19
-23 -37 -69 -64 -173 -104 -302 -215 -332 -286 -19 -48 -19 -93 2 -158 31 -95
89 -133 148 -94 35 23 102 128 178 280 l65 131 6 -48 c14 -107 82 -204 171
-245 39 -19 67 -24 130 -24 95 0 177 26 280 88 l68 41 20 -26 c28 -35 76 -53
145 -53 104 0 210 46 264 115 25 32 13 27 -43 -18 -73 -57 -242 -86 -308 -53
-60 32 -59 40 12 115 106 113 193 318 143 337 -51 20 -148 -62 -202 -171 -28
-56 -37 -88 -41 -148 l-6 -77 -56 -34 c-107 -65 -177 -88 -272 -88 -129 -1
-196 40 -248 151 -24 51 -26 67 -26 177 l0 121 31 35 31 35 -5 -68 c-6 -81 4
-99 57 -99 59 0 137 53 251 170 l105 107 -3 -39 c-9 -91 25 -120 144 -119 95
0 157 30 208 100 51 69 67 114 74 203 4 70 2 82 -23 133 -36 70 -133 163 -209
200 -49 24 -74 29 -145 32 -47 1 -101 -2 -120 -8z m269 -54 c69 -38 150 -119
180 -180 37 -75 32 -177 -11 -261 -34 -69 -73 -108 -126 -131 -44 -18 -157
-17 -193 2 -26 13 -30 21 -30 55 0 22 9 62 20 90 24 60 24 60 6 60 -7 0 -26
-19 -41 -42 -15 -23 -75 -89 -134 -148 -110 -111 -177 -154 -228 -148 l-28 3
3 103 c2 56 0 102 -5 102 -4 0 -21 -22 -37 -48 -35 -58 -42 -44 -21 39 56 213
217 453 347 515 47 22 63 25 148 22 83 -3 102 -8 150 -33z m166 -627 c-11 -66
-80 -187 -141 -248 l-55 -54 0 35 c0 90 75 234 147 283 20 14 42 26 47 26 5 0
6 -19 2 -42z m-868 -78 c-4 -36 -27 -94 -87 -212 -122 -244 -170 -300 -225
-264 -59 38 -88 175 -52 245 30 57 145 150 332 268 32 20 37 15 32 -37z"/>
<path d="M12811 1911 c-16 -10 -11 -14 61 -48 65 -30 83 -1 20 31 -42 21 -66
26 -81 17z"/>
</g>
</svg>
