<?xml version="1.0" standalone="no"?>
<!DOCTYPE svg PUBLIC "-//W3C//DTD SVG 20010904//EN"
 "http://www.w3.org/TR/2001/REC-SVG-20010904/DTD/svg10.dtd">
<svg version="1.0" xmlns="http://www.w3.org/2000/svg"
 width="1366.000000pt" height="685.000000pt" viewBox="0 0 1366.000000 685.000000"
 preserveAspectRatio="xMidYMid meet">

<g transform="translate(0.000000,685.000000) scale(0.100000,-0.100000)"
fill="#000000" stroke="none">
<path d="M1993 6605 c-46 -20 -68 -68 -54 -116 14 -45 -20 -21 581 -430 113
-77 268 -183 345 -236 163 -112 199 -123 253 -78 27 22 32 34 32 69 0 23 -6
51 -14 62 -8 11 -93 73 -191 139 -97 66 -208 143 -248 170 -40 28 -157 109
-262 180 -399 272 -385 264 -442 240z"/>
<path d="M973 6456 c-12 -9 -27 -32 -33 -51 -24 -72 -11 -84 385 -356 198
-136 412 -283 475 -326 63 -42 205 -140 315 -217 307 -215 342 -236 384 -236
48 0 78 22 92 69 15 50 -4 87 -68 134 -26 19 -361 250 -743 513 -632 435 -699
479 -740 482 -29 2 -53 -2 -67 -12z"/>
<path d="M3105 6437 c-17 -14 -28 -36 -32 -63 -4 -36 -1 -45 23 -72 17 -17
147 -95 299 -178 329 -180 338 -184 370 -184 74 0 119 67 91 134 -17 42 -25
47 -321 208 -126 69 -250 137 -275 152 -58 33 -119 35 -155 3z"/>
<path d="M6345 6280 c-758 -27 -1217 -83 -1760 -214 -398 -96 -540 -139 -870
-263 -249 -94 -367 -145 -571 -249 -407 -207 -594 -319 -1069 -639 -282 -190
-592 -427 -745 -568 -25 -23 -91 -83 -146 -134 -56 -51 -159 -153 -229 -228
l-128 -136 -4 -79 c-4 -62 -1 -83 10 -95 14 -13 16 -13 20 3 3 12 5 10 6 -7 0
-13 4 -21 8 -18 3 4 30 -32 58 -81 28 -48 85 -143 126 -212 83 -141 277 -434
387 -585 40 -55 116 -161 170 -235 456 -636 876 -1041 1307 -1258 251 -126
887 -369 1355 -518 80 -25 219 -70 310 -99 340 -111 696 -186 1035 -219 557
-54 1223 -38 1850 44 351 47 954 177 1350 291 411 120 887 290 1150 412 134
62 495 258 705 382 701 415 1040 667 1467 1090 181 179 233 245 269 340 16 43
19 75 18 215 -2 154 -4 173 -36 290 -39 144 -52 169 -91 177 -20 4 -35 19 -54
52 -269 470 -615 936 -864 1163 -260 238 -604 460 -1007 648 -633 296 -1182
471 -1935 614 -313 60 -418 74 -747 102 -218 19 -990 26 -1345 14z m1295 -75
c350 -25 524 -50 900 -126 645 -130 1167 -298 1740 -559 416 -189 791 -428
1029 -655 90 -86 291 -305 291 -317 0 -4 -8 -5 -17 -1 -10 3 -16 4 -13 2 3 -2
16 -13 30 -24 25 -20 25 -20 10 0 -11 15 -7 14 13 -4 27 -25 39 -54 13 -32
-10 8 -16 9 -21 1 -4 -6 -3 -10 2 -9 4 1 11 0 16 -1 4 -1 13 -3 20 -4 6 -1 11
-8 9 -15 -1 -7 2 -10 7 -7 13 9 102 -119 95 -137 -3 -8 -1 -18 5 -22 7 -4 8 1
4 12 -4 12 -3 15 4 8 18 -17 89 -119 109 -155 10 -19 26 -42 35 -52 8 -10 37
-53 63 -96 27 -42 57 -89 67 -104 11 -15 19 -29 19 -32 0 -2 19 -37 43 -78 58
-97 141 -264 157 -311 9 -29 9 -42 1 -50 -6 -6 -11 -18 -11 -26 1 -14 3 -13
14 1 11 15 14 6 25 -62 16 -104 24 -264 12 -230 -5 14 -19 45 -31 68 -12 25
-18 51 -15 60 4 10 10 40 14 69 7 45 5 52 -11 56 -10 3 -18 1 -18 -3 0 -5 -3
-17 -6 -27 -6 -16 -5 -16 9 2 16 20 16 19 17 -7 0 -14 -5 -48 -11 -75 -9 -38
-8 -55 3 -83 14 -36 17 -88 5 -107 -4 -6 0 -16 8 -23 12 -10 13 -5 9 32 -4 40
-3 42 11 24 18 -23 20 -40 3 -30 -8 5 -9 2 -5 -10 4 -10 -2 -35 -14 -59 -31
-61 -98 -148 -110 -142 -5 4 -8 3 -7 -2 2 -5 -15 -29 -36 -53 -21 -25 -36 -38
-32 -30 4 8 1 6 -6 -4 -20 -30 -81 -93 -73 -76 6 14 -20 -15 -27 -29 -2 -3
-52 -51 -113 -106 -60 -55 -112 -102 -115 -105 -3 -3 -81 -69 -175 -145 -104
-86 -276 -210 -444 -322 -150 -101 -275 -183 -276 -183 -2 0 -79 -46 -172
-102 -347 -209 -534 -315 -733 -414 -451 -224 -1123 -444 -1865 -609 -772
-172 -1714 -233 -2465 -159 -361 35 -663 100 -1070 230 -1009 323 -1547 538
-1847 737 -215 143 -395 303 -611 542 -243 270 -742 918 -956 1244 -67 102
-219 349 -248 404 -10 17 -26 39 -37 48 -11 9 -20 26 -20 38 -1 11 -1 31 -2
42 -1 41 321 355 636 620 86 73 364 283 476 361 89 61 516 336 634 408 166
100 177 106 500 268 473 236 846 375 1350 501 154 39 324 80 379 91 230 47
714 112 966 129 570 40 1439 47 1860 16z"/>
<path d="M4270 5353 c-441 -25 -907 -146 -1281 -334 -547 -274 -928 -675
-1094 -1149 -62 -180 -78 -281 -78 -485 0 -199 15 -299 74 -477 255 -780 1139
-1369 2223 -1483 185 -19 555 -19 741 0 580 60 1125 264 1543 577 133 100 352
321 439 443 317 445 399 951 233 1435 -12 36 -47 116 -77 177 -403 832 -1522
1364 -2723 1296z m563 -218 c267 -28 490 -78 732 -163 203 -72 285 -110 278
-131 -4 -13 -3 -13 5 -2 8 12 21 8 72 -18 78 -41 119 -64 167 -94 21 -13 51
-32 66 -41 21 -13 26 -21 18 -30 -8 -9 -7 -13 4 -13 8 0 12 4 9 9 -11 17 12 7
41 -18 17 -14 24 -22 16 -18 -9 5 -12 3 -7 -5 4 -6 12 -9 17 -6 8 5 64 -33
109 -75 9 -8 40 -37 70 -63 37 -34 50 -51 41 -56 -10 -6 -9 -10 3 -14 9 -4 16
-11 16 -16 0 -6 -8 -7 -17 -4 -15 6 -16 5 -3 -9 8 -9 19 -13 24 -10 5 3 7 -2
3 -11 -4 -11 -2 -14 9 -10 18 7 18 9 -7 44 -11 16 -18 29 -15 29 8 0 31 -24
101 -105 33 -39 64 -73 69 -77 6 -4 4 -13 -3 -22 -11 -13 -10 -18 3 -31 9 -9
16 -21 16 -28 0 -6 -7 -2 -15 9 -14 19 -14 19 -15 -3 0 -21 13 -25 39 -9 7 5
9 11 5 15 -21 14 -34 40 -26 45 14 8 75 -90 66 -105 -4 -7 -3 -9 4 -5 21 13
156 -267 164 -339 2 -16 6 -32 9 -35 4 -3 10 -20 14 -39 5 -25 4 -32 -5 -26
-8 5 -10 2 -7 -11 3 -11 8 -41 11 -69 l5 -50 -13 58 c-7 32 -16 60 -19 63 -9
10 2 -96 13 -116 6 -12 8 -31 4 -43 -7 -22 -8 -22 -15 3 -6 20 -7 17 -8 -18
-1 -26 3 -41 9 -37 6 4 10 -15 10 -49 0 -31 -3 -56 -8 -56 -4 0 -6 -30 -4 -67
4 -92 4 -92 -2 -145 -3 -26 -2 -49 3 -52 4 -3 9 16 10 41 1 26 7 50 13 54 9 6
9 13 0 31 -10 18 -10 57 -3 168 6 80 15 163 20 185 l10 40 -5 -40 c-12 -98
-20 -292 -13 -315 5 -19 7 -20 8 -6 1 11 3 17 6 14 4 -3 3 -29 -1 -58 -4 -28
-10 -47 -14 -40 -4 6 -7 -9 -7 -32 0 -52 -50 -203 -105 -316 -50 -103 -135
-235 -147 -227 -5 3 -13 0 -17 -6 -4 -8 -3 -9 4 -5 43 26 -46 -85 -166 -207
-65 -66 -94 -86 -70 -48 7 11 16 17 20 15 7 -5 12 18 9 39 0 4 4 7 10 7 6 0 8
-8 5 -18 -4 -9 4 -4 17 12 13 16 23 39 21 51 -1 13 4 22 12 22 8 0 14 -4 14
-9 0 -4 -5 -8 -11 -8 -5 0 -7 -5 -3 -11 5 -8 10 -6 16 6 11 18 -1 37 -26 41
-9 1 -13 -8 -13 -30 1 -39 -9 -57 -27 -50 -8 3 -17 0 -21 -6 -5 -8 -11 -8 -19
-1 -9 8 -13 7 -13 -4 0 -8 4 -12 8 -9 20 12 16 -16 -5 -39 -13 -14 -20 -27
-14 -29 6 -2 -9 -21 -31 -41 -23 -21 -46 -35 -52 -32 -5 4 -8 1 -7 -6 2 -7
-30 -36 -71 -66 -54 -39 -80 -52 -95 -48 -15 5 -17 4 -7 -3 19 -14 -4 -25 -27
-13 -14 7 -19 6 -19 -4 0 -7 7 -11 16 -8 31 9 -35 -37 -102 -72 -37 -20 -72
-33 -79 -29 -7 4 -8 3 -4 -4 8 -14 -30 -35 -50 -28 -8 3 -13 2 -10 -3 9 -14
-156 -85 -334 -144 -1064 -356 -2339 -120 -3026 561 -200 197 -330 400 -409
635 -46 139 -65 256 -65 407 0 376 149 716 444 1015 137 138 219 205 373 306
353 230 847 394 1318 438 152 14 528 12 678 -4z m2094 -1537 c-3 -7 -5 -2 -5
12 0 14 2 19 5 13 2 -7 2 -19 0 -25z m7 -337 c-15 -15 -16 -13 -10 19 3 19 6
67 7 105 2 121 14 125 17 6 2 -96 0 -117 -14 -130z"/>
<path d="M6030 4736 c0 -3 14 -12 30 -21 17 -9 30 -13 30 -11 0 3 -13 12 -30
21 -16 9 -30 13 -30 11z"/>
<path d="M6247 4583 c-4 -3 -7 -11 -7 -17 0 -6 4 -5 9 3 8 13 12 13 28 0 16
-13 17 -13 4 4 -14 18 -24 21 -34 10z"/>
<path d="M6305 4540 c-4 -6 -1 -9 7 -8 7 2 12 -2 11 -9 -2 -7 4 -10 12 -7 8 4
15 2 15 -4 0 -6 -6 -12 -12 -15 -7 -2 -1 -4 14 -4 25 0 25 1 10 16 -34 34 -50
42 -57 31z"/>
<path d="M6375 4470 c-3 -5 -1 -11 4 -11 6 -1 15 -2 20 -3 5 0 19 -12 31 -26
12 -14 18 -18 14 -10 -10 21 -46 60 -55 60 -4 0 -11 -4 -14 -10z"/>
<path d="M6420 4389 c0 -5 5 -7 10 -4 6 3 10 8 10 11 0 2 -4 4 -10 4 -5 0 -10
-5 -10 -11z"/>
<path d="M6523 4333 c-7 -2 -13 -8 -13 -12 0 -11 56 -41 64 -34 11 11 -15 32
-31 26 -12 -5 -15 -2 -10 10 3 9 5 17 4 16 -1 0 -8 -3 -14 -6z"/>
<path d="M6480 4316 c0 -2 8 -10 18 -17 15 -13 16 -12 3 4 -13 16 -21 21 -21
13z"/>
<path d="M6566 4261 c-3 -5 3 -20 14 -32 12 -15 19 -19 20 -10 0 11 3 11 15 1
8 -7 15 -8 15 -2 0 5 -7 15 -15 22 -10 9 -15 9 -15 1 0 -6 -5 -11 -11 -11 -6
0 -8 9 -4 20 6 20 -9 28 -19 11z"/>
<path d="M2705 4071 c-129 -34 -216 -84 -302 -172 -187 -191 -189 -475 -5
-667 238 -249 662 -267 917 -39 308 274 196 718 -217 863 -100 36 -289 43
-393 15z m276 -195 c170 -36 286 -146 305 -287 19 -140 -100 -282 -280 -334
-81 -24 -229 -17 -309 15 -289 111 -308 438 -34 569 104 50 203 61 318 37z"/>
<path d="M6723 4053 c0 -16 2 -22 4 -15 3 6 10 9 16 5 8 -5 8 -2 0 9 -7 8 -10
18 -6 21 3 4 2 7 -4 7 -6 0 -10 -12 -10 -27z"/>
<path d="M6747 4023 c-4 -3 -2 -12 5 -20 6 -7 8 -17 4 -20 -4 -4 -12 -1 -17 7
-9 13 -10 13 -6 0 2 -8 15 -15 28 -15 13 1 28 -4 32 -10 5 -6 7 -4 4 5 -2 8
-10 14 -17 12 -8 -2 -10 3 -6 13 4 11 2 14 -6 9 -8 -5 -9 -2 -5 9 6 17 -4 23
-16 10z"/>
<path d="M6806 3924 c-3 -9 3 -28 14 -43 10 -16 21 -45 23 -65 5 -39 21 -65
34 -53 4 4 1 13 -5 19 -7 7 -12 20 -12 30 0 11 -8 33 -17 51 -9 18 -16 36 -15
40 1 5 -3 5 -9 1 -8 -4 -9 0 -4 15 7 24 0 29 -9 5z"/>
<path d="M6803 3870 c3 -8 8 -26 12 -39 4 -13 3 -21 -1 -18 -5 3 -9 -15 -9
-40 0 -25 1 -40 3 -34 2 6 9 11 16 11 17 0 13 56 -8 100 -9 19 -15 28 -13 20z"/>
<path d="M6860 3740 c-12 -8 -10 -10 8 -10 13 0 20 4 17 10 -7 12 -6 12 -25 0z"/>
<path d="M6883 3690 c0 -16 4 -27 9 -24 4 3 8 14 8 24 0 10 -4 21 -8 24 -5 3
-9 -8 -9 -24z"/>
<path d="M6724 2999 c-3 -6 -1 -16 5 -22 8 -8 11 -5 11 11 0 24 -5 28 -16 11z"/>
<path d="M6834 2988 c-10 -32 -12 -96 -2 -111 6 -9 8 -8 9 3 1 8 3 25 4 37 1
12 10 34 19 47 9 14 16 31 16 38 -1 7 -9 -3 -20 -22 -15 -27 -19 -30 -20 -14
0 11 5 25 12 32 9 9 9 12 1 12 -7 0 -15 -10 -19 -22z"/>
<path d="M6801 2974 c0 -11 3 -14 6 -6 3 7 2 16 -1 19 -3 4 -6 -2 -5 -13z"/>
<path d="M6780 2913 c0 -28 3 -34 10 -23 9 13 10 13 11 0 1 -8 3 -25 4 -38 2
-16 -4 -26 -20 -32 -24 -9 -65 -56 -65 -73 0 -6 7 -2 15 9 19 25 19 5 0 -23
-8 -12 -12 -29 -8 -39 4 -12 3 -15 -6 -10 -22 14 -61 -22 -61 -55 0 -17 -4
-28 -8 -25 -5 3 -9 -1 -9 -8 0 -8 7 -13 16 -11 12 1 15 11 13 37 -3 35 7 45
52 52 15 2 44 60 38 75 -4 10 -1 12 8 6 10 -6 12 -4 7 10 -5 12 1 25 18 41 15
13 23 29 20 34 -3 6 -1 10 5 10 8 0 8 6 0 20 -6 12 -9 34 -6 50 3 25 1 30 -15
30 -15 0 -19 -7 -19 -37z"/>
<path d="M6753 2848 c-18 -6 -33 -17 -33 -24 0 -22 23 -16 49 11 13 14 22 25
20 24 -2 -1 -19 -6 -36 -11z"/>
<path d="M6690 2645 c-6 -8 -10 -19 -8 -24 1 -5 11 2 21 15 19 26 8 34 -13 9z"/>
<path d="M6572 2509 c-7 -11 -10 -24 -6 -30 8 -13 -16 -40 -29 -32 -6 4 -7 1
-3 -6 10 -15 46 14 46 36 0 9 5 11 13 7 6 -4 9 -3 4 1 -4 5 0 16 8 25 13 14
12 16 -3 17 -10 1 -24 -7 -30 -18z m28 7 c0 -2 -8 -10 -17 -17 -16 -13 -17
-12 -4 4 13 16 21 21 21 13z"/>
<path d="M6353 2278 c7 -20 -3 -23 -21 -8 -9 7 -9 7 -2 -2 12 -15 13 -31 2
-24 -5 3 -9 -2 -9 -10 0 -11 8 -8 26 10 21 22 23 28 12 38 -12 11 -13 10 -8
-4z"/>
<path d="M6250 2185 c-15 -18 1 -26 23 -10 15 10 15 14 3 18 -8 3 -20 0 -26
-8z"/>
<path d="M6094 2114 c-18 -14 -18 -15 4 -4 12 6 22 13 22 15 0 8 -5 6 -26 -11z"/>
<path d="M6142 2121 c-11 -7 -11 -9 0 -14 9 -3 15 1 15 9 0 8 -1 14 -1 14 -1
0 -7 -4 -14 -9z"/>
<path d="M5960 1990 c-14 -11 -20 -20 -15 -20 6 0 21 9 35 20 14 11 21 20 15
20 -5 0 -21 -9 -35 -20z"/>
<path d="M11775 4269 c-4 -6 -5 -12 -2 -15 2 -3 7 2 10 11 7 17 1 20 -8 4z"/>
<path d="M11777 4227 c-4 -11 1 -14 19 -12 14 1 28 6 32 10 4 5 0 6 -9 2 -9
-3 -21 -1 -26 4 -7 7 -12 5 -16 -4z"/>
<path d="M11844 4182 c-1 -15 1 -21 3 -14 4 10 9 8 19 -5 12 -14 11 -11 -1 15
-8 17 -17 32 -18 32 -1 0 -3 -12 -3 -28z"/>
<path d="M11867 4134 c-11 -11 13 -44 31 -44 13 0 11 4 -7 16 -18 13 -20 18
-10 25 8 5 9 9 3 9 -6 0 -14 -3 -17 -6z"/>
<path d="M11936 4035 c-9 -26 -7 -32 5 -12 6 10 9 21 6 23 -2 3 -7 -2 -11 -11z"/>
<path d="M11964 3997 c0 -15 6 -23 14 -20 10 4 10 9 0 22 -7 9 -13 17 -14 19
-1 2 -1 -8 0 -21z"/>
<path d="M11936 3983 c-6 -14 -5 -15 5 -6 7 7 10 15 7 18 -3 3 -9 -2 -12 -12z"/>
<path d="M12010 3933 c0 -7 0 -15 0 -18 0 -3 3 -4 6 -2 9 4 25 -33 19 -43 -4
-6 4 -19 17 -30 30 -25 48 -26 20 -1 -12 10 -22 25 -22 32 0 8 -9 28 -20 44
-11 17 -20 24 -20 18z"/>
<path d="M12011 3874 c0 -11 3 -14 6 -6 3 7 2 16 -1 19 -3 4 -6 -2 -5 -13z"/>
<path d="M12087 3804 c-8 -8 3 -35 13 -29 4 2 6 -7 4 -20 -1 -14 2 -23 7 -19
5 3 9 0 9 -5 0 -6 8 -11 18 -11 16 1 16 1 0 11 -10 5 -18 19 -18 30 0 11 -7
22 -15 25 -8 4 -12 10 -9 15 6 10 0 12 -9 3z"/>
<path d="M12120 3699 c0 -5 9 -9 20 -9 11 0 20 2 20 4 0 2 -9 6 -20 9 -11 3
-20 1 -20 -4z"/>
<path d="M12150 3669 c-12 -7 -12 -9 3 -9 14 0 17 -5 12 -22 -5 -18 -4 -20 4
-8 15 21 15 -5 0 -32 -8 -14 -8 -18 0 -14 7 5 9 -3 5 -24 -7 -35 17 -70 48
-70 10 0 18 -5 18 -11 0 -5 5 -7 10 -4 18 11 10 25 -14 25 -13 0 -28 6 -33 13
-14 16 -23 93 -13 104 4 4 0 20 -9 35 -12 20 -21 24 -31 17z"/>
<path d="M12088 3653 c7 -3 16 -2 19 1 4 3 -2 6 -13 5 -11 0 -14 -3 -6 -6z"/>
<path d="M12205 3576 c6 -47 12 -56 32 -56 15 0 14 2 0 18 -10 10 -17 25 -17
33 0 8 -5 21 -10 29 -7 10 -8 3 -5 -24z"/>
<path d="M12160 3500 c0 -5 5 -10 10 -10 6 0 10 5 10 10 0 6 -4 10 -10 10 -5
0 -10 -4 -10 -10z"/>
<path d="M12261 3454 c0 -11 3 -14 6 -6 3 7 2 16 -1 19 -3 4 -6 -2 -5 -13z"/>
<path d="M12241 3444 c0 -11 3 -14 6 -6 3 7 2 16 -1 19 -3 4 -6 -2 -5 -13z"/>
<path d="M12240 3295 c1 -26 2 -28 11 -12 8 14 8 22 0 30 -8 8 -11 3 -11 -18z"/>
<path d="M12285 3271 c-8 -36 3 -101 17 -101 6 0 7 11 3 28 -4 15 -7 44 -6 65
1 44 -5 48 -14 8z"/>
<path d="M12167 3162 c10 -6 17 -97 13 -167 -1 -18 -2 -17 -15 5 l-14 25 -1
-32 c0 -18 4 -33 9 -33 13 0 20 -49 7 -53 -8 -3 -7 -8 1 -18 11 -11 15 -9 27
7 10 13 11 23 4 31 -5 7 -9 29 -8 50 2 21 2 73 1 116 -1 66 -3 77 -18 77 -12
0 -14 -3 -6 -8z m27 -241 c3 -5 -2 -15 -12 -22 -15 -12 -16 -12 -5 2 7 9 10
19 6 22 -3 4 -4 7 0 7 3 0 8 -4 11 -9z"/>
<path d="M12252 3135 c0 -16 2 -22 5 -12 2 9 2 23 0 30 -3 6 -5 -1 -5 -18z"/>
<path d="M12259 3028 c-1 -7 -1 -16 0 -21 1 -4 -10 -12 -24 -17 -19 -7 -25
-17 -25 -37 l1 -28 14 30 c7 17 14 26 14 20 1 -11 25 22 34 48 4 9 2 17 -3 17
-6 0 -11 -6 -11 -12z"/>
<path d="M12135 2850 c3 -5 8 -10 11 -10 2 0 4 5 4 10 0 6 -5 10 -11 10 -5 0
-7 -4 -4 -10z"/>
<path d="M12084 2829 c1 -27 17 -32 37 -12 16 16 1 37 -16 23 -10 -8 -14 -7
-18 2 -2 7 -4 1 -3 -13z m29 -4 c-3 -9 -8 -14 -10 -11 -3 3 -2 9 2 15 9 16 15
13 8 -4z"/>
<path d="M12024 2758 c-3 -5 -9 -6 -13 -4 -4 3 -8 -4 -8 -15 -1 -12 4 -19 15
-18 11 0 12 2 4 6 -6 2 -9 9 -6 14 4 6 10 6 18 0 8 -7 15 -5 23 7 9 15 7 18
-9 18 -11 0 -22 -4 -24 -8z"/>
<path d="M11938 2682 c10 -3 10 -7 0 -19 -13 -16 -22 -50 -10 -38 4 4 7 12 7
18 1 7 7 11 15 9 8 -2 11 0 7 4 -4 4 2 13 14 19 19 11 18 12 -13 12 -18 0 -27
-2 -20 -5z"/>
<path d="M11766 2497 c3 -10 9 -15 12 -12 3 3 0 11 -7 18 -10 9 -11 8 -5 -6z"/>
<path d="M783 5826 c-55 -46 -47 -118 18 -170 19 -14 138 -98 264 -187 239
-168 384 -270 641 -452 84 -59 165 -110 182 -113 45 -9 99 20 112 62 13 39 6
70 -24 102 -11 13 -102 81 -200 150 -913 645 -881 623 -925 629 -30 4 -43 0
-68 -21z"/>
<path d="M750 5158 c-14 -7 -33 -30 -43 -50 -16 -32 -16 -40 -4 -70 19 -45 28
-51 222 -163 94 -54 233 -135 310 -180 188 -110 218 -125 259 -125 74 0 118
82 77 146 -12 20 -55 53 -113 86 -465 272 -622 360 -650 364 -18 3 -44 -1 -58
-8z"/>
<path d="M668 4540 c-27 -27 -30 -36 -25 -71 3 -22 13 -49 22 -59 17 -19 305
-156 362 -172 68 -19 143 46 128 111 -10 47 -55 78 -218 151 -184 82 -221 88
-269 40z"/>
<path d="M1055 2721 c-16 -10 -92 -81 -167 -158 -131 -133 -138 -142 -138
-180 0 -73 65 -120 131 -95 14 6 81 63 148 129 68 65 135 124 150 132 62 32
83 78 61 132 -24 57 -123 79 -185 40z"/>
<path d="M1351 2293 c-33 -17 -284 -312 -441 -516 -70 -92 -76 -126 -34 -176
21 -26 33 -31 68 -31 23 0 51 7 62 15 23 16 455 539 473 573 19 36 13 79 -16
111 -36 39 -69 46 -112 24z"/>
<path d="M12688 1963 c6 -2 18 -2 25 0 6 3 1 5 -13 5 -14 0 -19 -2 -12 -5z"/>
<path d="M1720 1828 c-28 -15 -83 -86 -375 -479 -115 -156 -247 -333 -292
-394 -46 -60 -85 -124 -89 -141 -7 -36 16 -88 45 -104 29 -15 83 -12 110 6 20
15 140 172 577 761 164 221 164 220 164 267 0 68 -79 116 -140 84z"/>
<path d="M12374 1788 l-19 -23 23 19 c21 18 27 26 19 26 -2 0 -12 -10 -23 -22z"/>
<path d="M12329 1733 c-13 -16 -12 -17 4 -4 16 13 21 21 13 21 -2 0 -10 -8
-17 -17z"/>
<path d="M12784 1502 c-6 -4 -28 -33 -48 -65 -97 -152 -118 -292 -52 -345 l24
-18 -20 -35 -20 -34 20 23 c11 12 22 27 24 32 2 6 25 2 56 -10 77 -29 112 -26
148 12 l29 32 -33 -27 c-39 -32 -57 -33 -129 -10 -56 18 -59 22 -42 56 10 20
9 20 -9 -2 -17 -21 -21 -22 -41 -10 -28 18 -34 45 -29 119 7 91 116 295 148
275 6 -3 11 -36 12 -73 2 -66 2 -67 5 -13 6 87 -8 117 -43 93z"/>
<path d="M11969 1433 c-13 -16 -12 -17 4 -4 16 13 21 21 13 21 -2 0 -10 -8
-17 -17z"/>
<path d="M12241 1434 c0 -11 3 -14 6 -6 3 7 2 16 -1 19 -3 4 -6 -2 -5 -13z"/>
<path d="M11894 1358 l-19 -23 23 19 c21 18 27 26 19 26 -2 0 -12 -10 -23 -22z"/>
<path d="M2053 1335 c-20 -14 -126 -135 -473 -540 -85 -99 -157 -182 -160
-185 -27 -25 -124 -149 -131 -169 -29 -74 56 -152 132 -121 16 7 80 71 146
149 65 75 120 138 123 141 15 13 488 568 503 590 25 36 21 83 -9 119 -21 26
-33 31 -68 31 -23 0 -51 -7 -63 -15z"/>
<path d="M12812 1320 c0 -14 2 -19 5 -12 2 6 2 18 0 25 -3 6 -5 1 -5 -13z"/>
<path d="M12801 1274 c0 -11 3 -14 6 -6 3 7 2 16 -1 19 -3 4 -6 -2 -5 -13z"/>
<path d="M11714 1188 l-29 -33 33 29 c30 28 37 36 29 36 -2 0 -16 -15 -33 -32z"/>
<path d="M12776 1205 c-9 -26 -7 -32 5 -12 6 10 9 21 6 23 -2 3 -7 -2 -11 -11z"/>
<path d="M12241 1184 c0 -11 3 -14 6 -6 3 7 2 16 -1 19 -3 4 -6 -2 -5 -13z"/>
<path d="M13368 1148 c5 -5 16 -8 23 -6 8 3 3 7 -10 11 -17 4 -21 3 -13 -5z"/>
<path d="M11659 1133 c-13 -16 -12 -17 4 -4 16 13 21 21 13 21 -2 0 -10 -8
-17 -17z"/>
<path d="M2683 1105 c-18 -13 -410 -519 -521 -674 -44 -60 -44 -112 -1 -152
38 -35 85 -38 123 -8 15 11 84 96 153 187 70 92 185 243 256 336 71 94 134
183 139 198 22 62 -24 128 -89 128 -21 0 -48 -7 -60 -15z"/>
<path d="M11579 1043 c-13 -16 -12 -17 4 -4 9 7 17 15 17 17 0 8 -8 3 -21 -13z"/>
<path d="M11539 993 c-13 -16 -12 -17 4 -4 9 7 17 15 17 17 0 8 -8 3 -21 -13z"/>
<path d="M12644 978 l-19 -23 23 19 c21 18 27 26 19 26 -2 0 -12 -10 -23 -22z"/>
<path d="M12360 925 c19 -19 36 -35 39 -35 3 0 -10 16 -29 35 -19 19 -36 35
-39 35 -3 0 10 -16 29 -35z"/>
<path d="M12599 923 l-24 -28 28 24 c15 14 27 26 27 28 0 8 -8 1 -31 -24z"/>
<path d="M11450 869 c-7 -11 -10 -23 -7 -25 2 -2 9 7 15 21 14 30 7 33 -8 4z"/>
<path d="M12473 863 c9 -2 23 -2 30 0 6 3 -1 5 -18 5 -16 0 -22 -2 -12 -5z"/>
<path d="M3235 830 c-27 -11 -53 -40 -200 -229 -136 -175 -160 -217 -150 -261
12 -57 77 -87 135 -63 45 18 330 381 344 437 20 78 -56 147 -129 116z"/>
<path d="M11432 770 c-1 -49 4 -77 22 -115 25 -54 86 -115 114 -114 11 0 9 4
-8 10 -67 27 -111 103 -120 209 l-7 75 -1 -65z"/>
<path d="M11770 619 c-19 -17 -51 -39 -70 -49 -19 -11 -30 -19 -24 -20 14 0
96 54 119 80 26 29 16 24 -25 -11z"/>
</g>
</svg>
