<?xml version="1.0" standalone="no"?>
<!DOCTYPE svg PUBLIC "-//W3C//DTD SVG 20010904//EN"
 "http://www.w3.org/TR/2001/REC-SVG-20010904/DTD/svg10.dtd">
<svg version="1.0" xmlns="http://www.w3.org/2000/svg"
 width="399.000000pt" height="400.000000pt" viewBox="0 0 399.000000 400.000000"
 preserveAspectRatio="xMidYMid meet">

<g transform="translate(0.000000,400.000000) scale(0.100000,-0.100000)"
fill="#000000" stroke="none">
<path d="M0 3805 l0 -195 24 0 c13 0 44 -3 70 -6 40 -6 46 -4 46 11 0 16 15
17 208 15 300 -4 292 -5 292 25 0 14 5 25 10 25 6 0 10 -18 10 -41 l0 -40 73
5 c40 3 55 2 32 -2 -38 -7 -40 -9 -43 -44 -2 -29 0 -38 12 -38 9 0 16 6 16 14
0 15 45 30 60 21 6 -4 10 -13 10 -21 0 -10 13 -14 48 -14 26 0 57 -3 70 -6 13
-4 22 -2 22 5 0 6 -17 11 -40 11 -29 0 -40 4 -40 15 0 13 11 16 50 14 40 -2
55 2 73 19 17 16 36 22 70 22 26 0 47 5 47 10 0 6 18 10 40 10 22 0 40 5 40
10 0 6 -18 10 -40 10 -22 0 -40 5 -40 10 0 12 15 12 99 4 56 -6 61 -9 61 -30
0 -14 6 -24 14 -24 29 0 27 -32 -5 -62 -23 -22 -37 -28 -55 -24 -14 4 -24 2
-24 -4 0 -6 4 -8 10 -5 6 3 10 -3 10 -14 0 -10 -6 -21 -13 -24 -9 -3 -9 -8 -1
-17 8 -8 9 -22 3 -45 -6 -21 -6 -43 1 -60 13 -34 14 -32 -15 -39 -27 -7 -67
-41 -58 -50 3 -3 -1 -12 -8 -20 -56 -61 -67 -85 -62 -126 5 -33 2 -40 -20 -55
-37 -24 -48 -68 -41 -161 11 -139 8 -224 -9 -237 -8 -7 -17 -36 -20 -67 -4
-30 -4 -49 -1 -42 8 18 21 14 27 -9 3 -12 10 -18 16 -14 6 3 11 0 11 -7 -1
-17 -42 -47 -72 -51 -33 -5 -37 -52 -7 -78 12 -10 25 -19 29 -19 4 0 11 -17
15 -37 9 -48 15 -59 26 -42 5 9 9 10 9 3 0 -18 -68 -74 -90 -74 -10 0 -30 4
-44 10 -14 5 -26 6 -26 2 0 -17 26 -32 56 -32 29 0 32 -4 39 -37 3 -20 20 -49
36 -66 51 -51 40 -65 -96 -117 -284 -109 -487 -238 -588 -371 -107 -142 -156
-338 -164 -662 l-6 -197 -78 0 -79 0 0 -375 0 -375 399 0 c395 0 400 0 406 21
4 12 1 27 -8 37 -14 16 -20 37 -34 107 -3 16 -12 35 -19 43 -8 7 -14 21 -14
31 0 9 -4 21 -9 26 -6 6 -12 35 -15 65 -3 36 -3 44 2 25 8 -29 9 -28 20 23 7
29 12 66 12 82 0 22 4 28 15 24 12 -5 15 2 15 32 -1 99 -34 158 -89 156 -35
-1 -38 4 -17 27 12 14 12 18 -1 30 -13 12 -14 11 -8 -8 4 -12 2 -21 -4 -21
-11 0 -16 26 -12 68 1 13 -4 22 -12 22 -18 0 -16 68 2 79 10 7 11 13 1 31 -6
12 -10 31 -7 41 3 10 1 22 -4 25 -5 3 -9 12 -9 21 0 9 -7 25 -17 35 -15 17
-15 18 1 18 9 0 14 5 11 10 -4 6 -11 8 -16 5 -5 -4 -9 1 -9 9 0 10 9 16 21 16
21 0 21 0 2 48 -3 6 0 12 6 12 6 0 10 3 9 8 0 4 2 15 6 25 12 26 -2 68 -25 74
-18 5 -19 7 -4 29 8 13 15 35 15 49 0 15 5 35 11 47 6 11 12 45 14 76 2 37 9
58 19 64 9 5 16 15 16 23 0 10 9 14 25 13 22 -2 25 -7 25 -44 0 -27 8 -53 25
-78 14 -20 25 -41 25 -47 0 -5 6 -9 13 -8 37 6 97 -41 120 -94 15 -37 17 -38
14 -12 -2 17 -7 37 -11 46 -6 15 -2 16 41 8 26 -5 56 -17 66 -27 17 -17 17
-19 -5 -52 -15 -22 -38 -38 -65 -48 -24 -7 -43 -18 -43 -23 0 -12 4 -12 70 7
43 12 61 23 74 45 9 16 21 29 25 29 4 0 18 9 31 20 13 11 18 20 12 20 -7 0
-12 11 -12 25 0 14 5 25 10 25 6 0 10 5 10 11 0 5 -4 8 -9 5 -15 -10 -21 22
-6 34 18 15 41 0 85 -57 19 -25 50 -63 68 -85 17 -22 30 -44 26 -49 -3 -5 1
-6 9 -3 14 5 25 -77 32 -226 2 -25 6 -61 10 -79 5 -25 4 -32 -5 -26 -9 6 -10
-1 -5 -26 5 -19 7 -38 6 -44 -1 -5 -7 -50 -15 -100 -8 -49 -14 -78 -15 -62 -1
31 -31 39 -31 7 0 -11 -4 -20 -9 -20 -12 0 -41 58 -41 82 0 10 -7 29 -15 41
-8 13 -16 33 -18 45 -2 12 -9 28 -15 34 -7 7 -12 18 -12 25 0 8 -6 16 -14 19
-8 3 -19 19 -25 35 -5 16 -17 29 -26 29 -9 0 -20 13 -26 28 -12 35 -67 65 -92
50 -25 -13 -21 -53 11 -111 87 -158 140 -311 148 -422 l6 -80 -23 45 c-29 56
-31 58 -36 43 -3 -9 -12 -9 -29 -2 -14 5 -43 9 -65 9 -46 0 -54 24 -15 42 20
9 33 7 67 -10 41 -21 42 -21 23 -1 -11 11 -37 22 -58 26 -33 5 -41 2 -72 -28
-18 -18 -41 -34 -49 -35 -29 -4 -87 -47 -96 -71 -15 -39 -11 -52 21 -68 40
-21 50 -18 21 6 -28 23 -27 25 25 39 l39 10 -47 -5 c-27 -3 -48 -1 -48 3 0 5
13 21 29 36 65 63 195 65 258 4 27 -26 32 -38 28 -59 -4 -15 -1 -30 4 -34 20
-11 13 -45 -9 -45 -30 0 -24 -18 7 -22 25 -3 28 -9 44 -78 10 -41 26 -102 37
-135 l20 -60 776 -3 776 -2 15 36 c8 20 15 47 15 60 0 13 5 24 10 24 6 0 10 9
10 20 0 11 5 20 10 20 6 0 10 17 10 38 0 21 7 47 15 58 8 10 15 31 15 46 0 15
4 29 8 32 4 2 7 38 7 80 -1 53 3 77 12 80 13 6 11 41 -8 107 -9 29 -8 41 10
73 12 20 19 41 16 46 -3 4 2 10 10 14 8 3 15 13 15 23 0 9 8 26 18 37 10 12
25 41 32 66 8 25 18 50 23 57 5 7 6 21 2 33 -4 11 -2 20 4 20 13 0 6 106 -9
145 -11 30 -45 34 -53 5 -3 -12 -14 -20 -25 -20 -11 0 -23 -7 -26 -16 -3 -8
-10 -12 -16 -9 -5 3 -10 1 -10 -4 0 -6 -9 -11 -20 -11 -15 0 -22 -9 -27 -30
-5 -26 -28 -50 -48 -50 -3 0 -10 11 -15 25 -12 33 -26 32 -61 -6 l-29 -31 -10
28 c-6 15 -8 34 -5 42 8 21 -4 35 -20 22 -9 -7 -16 -6 -25 5 -11 13 -10 14 4
9 12 -5 16 -1 14 17 -3 26 -28 57 -43 53 -5 -2 -18 7 -27 20 -17 23 -17 24 3
19 19 -5 20 -4 9 16 -10 19 -14 20 -28 9 -13 -11 -15 -11 -9 5 3 9 2 17 -3 17
-6 0 -10 -8 -10 -17 -1 -13 -6 -9 -16 11 -9 16 -14 41 -12 57 3 16 0 29 -6 29
-6 0 -6 4 1 11 6 6 9 18 6 25 -8 22 23 27 59 10 41 -19 126 -36 185 -36 30 0
45 -5 49 -15 9 -23 21 -18 28 11 7 26 14 27 60 8 16 -6 18 -4 14 14 -8 30 6
28 20 -3 6 -14 16 -25 21 -25 5 0 12 -8 14 -17 3 -13 5 -11 6 6 1 22 -17 44
-71 87 -18 14 -78 10 -106 -7 -16 -10 -32 -10 -83 2 -53 13 -64 19 -69 40 -4
16 -8 20 -14 11 -4 -6 -4 -16 -1 -22 3 -5 -1 -10 -10 -10 -10 0 -15 7 -13 17
3 18 -19 47 -43 55 -10 3 -8 8 7 16 16 8 31 7 64 -4 30 -10 46 -12 54 -4 7 7
2 10 -15 10 -14 0 -34 7 -45 15 -22 16 -18 17 51 15 30 -1 58 5 70 14 27 19
12 32 -20 18 -14 -7 -38 -12 -52 -12 -37 0 -13 26 32 34 19 4 37 12 41 18 5 7
-1 9 -19 5 -21 -6 -24 -4 -20 12 3 10 0 22 -6 25 -6 4 -12 -1 -12 -11 -1 -10
-5 5 -10 32 -5 32 -15 55 -28 63 -29 20 -16 43 20 35 36 -7 38 10 4 25 -29 13
-36 45 -7 35 9 -4 23 -14 30 -22 8 -9 10 -10 7 -3 -6 11 -3 12 12 3 11 -6 24
-7 28 -3 4 4 5 -5 1 -20 -4 -17 -2 -28 4 -28 5 0 10 -7 10 -15 0 -8 5 -15 11
-15 19 0 46 -40 62 -90 3 -11 19 -15 53 -15 37 0 49 4 49 15 0 19 27 38 33 22
2 -7 13 -7 33 -2 17 5 38 6 47 3 14 -5 13 -2 -4 18 -11 13 -37 50 -58 82 -34
53 -76 84 -95 73 -4 -3 -29 7 -55 23 -46 26 -48 29 -52 76 -7 104 -17 146 -40
180 -30 45 -30 50 5 116 43 81 63 204 30 183 -5 -3 -9 -1 -9 5 0 5 9 13 20 16
16 5 20 16 21 51 1 24 3 49 4 54 1 6 3 16 4 23 1 6 9 0 19 -15 9 -16 22 -28
28 -28 11 0 35 86 26 95 -15 15 -29 3 -25 -22 4 -22 2 -25 -6 -13 -6 8 -11 23
-11 34 0 12 -5 16 -14 13 -10 -4 -13 -1 -9 9 5 14 3 14 -15 3 -18 -12 -24 -10
-45 9 -19 18 -26 19 -36 9 -11 -10 -12 -8 -6 13 4 14 9 41 12 60 3 28 2 32 -7
18 -6 -10 -21 -18 -33 -17 -12 0 -16 3 -9 6 10 4 8 11 -8 28 -24 26 -42 89
-29 102 9 9 -40 93 -55 93 -5 0 -19 8 -30 18 -18 15 -19 15 -7 0 7 -9 14 -27
16 -40 14 -114 14 -122 6 -90 -11 43 -12 44 -41 22 -19 -15 -21 -20 -9 -20 24
0 40 -24 41 -62 1 -18 7 -39 15 -46 7 -8 11 -18 8 -23 -9 -14 -32 -11 -49 7
-9 8 -16 11 -16 5 0 -5 -10 -26 -22 -45 -24 -37 -69 -57 -118 -53 -14 1 -104
-2 -200 -7 -196 -9 -241 -3 -247 33 -3 23 12 51 28 51 4 0 16 -8 25 -17 17
-17 18 -17 11 0 -4 11 0 21 13 29 11 7 20 18 20 24 0 7 7 14 15 18 17 6 21 56
5 56 -5 0 -10 7 -10 15 0 8 -5 15 -10 15 -6 0 -10 7 -8 16 2 10 -3 19 -9 21
-7 3 -13 -2 -13 -11 0 -9 -4 -16 -10 -16 -11 0 -13 24 -3 58 4 18 8 20 14 10
6 -9 9 -7 9 9 0 14 -10 27 -26 36 -23 12 -24 15 -10 26 9 8 16 25 16 40 0 18
3 22 9 13 7 -11 9 -11 14 2 4 10 1 16 -8 16 -22 0 -18 23 5 38 12 7 18 17 15
21 -3 5 4 7 15 4 14 -4 20 0 20 11 0 9 5 16 10 16 6 0 10 7 10 17 0 14 2 14
21 -2 17 -16 24 -17 51 -7 25 9 34 9 41 -1 6 -8 7 -7 3 5 -3 10 -1 20 4 23 6
4 10 1 10 -5 0 -7 7 -10 15 -6 10 4 15 -1 15 -15 0 -15 5 -19 18 -15 20 7 111
-34 131 -58 17 -21 7 -46 -19 -46 -26 0 -26 -17 1 -25 11 -4 27 -21 34 -38 8
-18 14 -26 15 -19 0 7 -6 25 -14 40 -12 24 -12 30 3 49 14 16 21 19 36 11 16
-9 17 -8 12 15 -5 16 -2 29 8 37 12 10 16 5 27 -34 14 -54 28 -60 28 -13 0 24
3 28 10 17 7 -12 10 -8 10 15 0 17 4 25 8 19 4 -7 8 13 9 43 1 38 -2 53 -10
50 -7 -2 -11 -12 -11 -21 2 -13 -1 -14 -12 -5 -19 16 -17 27 6 34 26 8 25 29
-2 56 -13 12 -17 19 -10 15 27 -16 16 2 -43 69 -19 22 -49 67 -67 100 -43 79
-43 79 -24 72 10 -4 27 -2 38 4 15 8 19 8 14 0 -4 -6 -2 -11 4 -11 6 0 11 -10
10 -22 -6 -73 13 -100 62 -91 19 4 24 10 21 24 -3 10 -11 19 -18 19 -8 0 -11
8 -8 20 4 16 2 19 -11 14 -12 -5 -16 0 -16 23 0 16 -5 34 -12 41 -8 8 -8 12
-1 12 6 0 16 -7 23 -15 7 -9 19 -14 27 -11 8 3 12 2 9 -2 -2 -4 2 -15 9 -26
13 -17 14 -17 27 3 16 26 31 28 23 2 -6 -20 8 -29 60 -38 17 -3 35 -9 42 -15
8 -7 24 -6 48 2 20 7 47 10 60 7 16 -2 31 3 41 14 20 23 44 25 44 4 0 -14 -31
-37 -47 -34 -20 3 -33 -2 -33 -15 0 -8 9 -13 23 -12 12 1 27 -2 34 -7 6 -5 32
-9 57 -10 40 -2 46 -5 46 -24 0 -28 20 -30 27 -3 3 11 12 21 19 21 8 1 26 2
42 3 15 1 45 6 67 10 22 4 52 3 65 -2 23 -9 22 -10 -17 -17 -98 -16 -23 -32
174 -37 74 -2 103 -6 103 -15 0 -8 -13 -13 -30 -13 -16 0 -30 -4 -30 -9 0 -10
192 -36 212 -28 7 3 -6 6 -29 6 -36 1 -43 4 -43 21 0 17 7 20 40 20 22 0 40
-4 40 -10 0 -5 18 -10 40 -10 29 0 40 -4 40 -15 0 -8 7 -15 15 -15 11 0 15 11
15 40 0 29 -4 40 -15 40 -8 0 -15 7 -15 15 0 11 11 15 40 15 38 0 40 -1 40
-32 0 -34 15 -29 22 7 2 11 10 20 18 20 8 0 15 5 15 12 0 6 3 15 7 19 11 10
102 8 122 -3 16 -9 14 -13 -16 -38 -30 -25 -33 -32 -31 -76 5 -101 4 -99 44
-99 30 0 38 4 43 23 3 12 6 192 6 399 l0 378 -1995 0 -1995 0 0 -195z m1985
141 c14 -8 22 -17 17 -20 -13 -8 -62 11 -62 24 0 14 13 13 45 -4z m173 -24 c6
-19 -33 -14 -59 7 l-23 19 39 -7 c21 -3 40 -12 43 -19z m-108 8 c0 -5 -5 -10
-11 -10 -5 0 -7 5 -4 10 3 6 8 10 11 10 2 0 4 -4 4 -10z m-225 -21 c11 -16 1
-19 -13 -3 -7 8 -8 14 -3 14 5 0 13 -5 16 -11z m95 -5 c0 -2 -7 -4 -15 -4 -8
0 -15 4 -15 10 0 5 7 7 15 4 8 -4 15 -8 15 -10z m-163 -30 c-3 -3 -12 -4 -19
-1 -8 3 -5 6 6 6 11 1 17 -2 13 -5z m43 -14 c-12 -23 -16 -24 -26 -8 -4 6 -3
8 3 5 6 -4 13 0 17 8 3 8 8 15 11 15 3 0 1 -9 -5 -20z m111 9 c16 -8 18 -13 9
-24 -10 -12 -16 -12 -42 1 -16 9 -32 13 -36 10 -3 -3 -1 -6 4 -6 5 0 10 -14
11 -31 2 -24 0 -29 -11 -20 -7 6 -15 8 -18 5 -3 -3 -9 -1 -13 5 -3 6 -1 11 5
11 6 0 10 6 9 13 -7 41 37 60 82 36z m253 -8 c34 -19 45 -41 22 -41 -9 0 -16
-7 -16 -15 0 -19 -19 -19 -45 1 -19 15 -19 15 8 9 17 -5 27 -3 27 4 0 6 -7 11
-16 11 -8 0 -13 4 -9 9 3 5 -4 12 -15 16 -11 3 -20 11 -20 16 0 14 32 9 64
-10z m-214 -35 c0 -3 -4 -8 -10 -11 -5 -3 -10 -1 -10 4 0 6 5 11 10 11 6 0 10
-2 10 -4z m-210 -26 c0 -5 -5 -10 -11 -10 -5 0 -7 5 -4 10 3 6 8 10 11 10 2 0
4 -4 4 -10z m104 -25 c3 -9 0 -15 -9 -15 -8 0 -15 7 -15 15 0 8 4 15 9 15 5 0
11 -7 15 -15z m276 1 c0 -2 -13 -6 -29 -8 -17 -2 -28 -1 -25 4 5 8 54 12 54 4z
m80 -27 c0 -5 7 -9 15 -9 9 0 18 -7 21 -15 4 -8 18 -15 33 -15 37 0 44 -10 24
-32 -18 -20 -43 -24 -43 -7 0 5 -4 7 -10 4 -6 -3 -7 1 -4 9 3 9 1 16 -4 16 -6
0 -14 -9 -17 -20 -8 -27 -24 -25 -29 3 -15 75 -15 86 -1 80 8 -3 15 -9 15 -14z
m140 -23 c0 -8 -4 -18 -10 -21 -5 -3 -10 3 -10 14 0 12 5 21 10 21 6 0 10 -6
10 -14z m-874 -32 c-3 -7 -2 -15 2 -17 4 -2 1 -2 -7 0 -9 2 -11 -2 -7 -14 4
-10 3 -14 -1 -9 -14 14 -10 64 5 58 7 -2 11 -10 8 -18z m934 11 c0 -9 -6 -12
-15 -9 -8 4 -12 10 -9 15 8 14 24 10 24 -6z m-1359 -7 c2 -22 -3 -63 -8 -68
-5 -6 -33 29 -33 42 0 4 10 8 21 8 18 0 19 2 9 15 -9 10 -9 15 -1 15 6 0 11
-6 12 -12z m-294 -24 c-3 -3 -12 -4 -19 -1 -8 3 -5 6 6 6 11 1 17 -2 13 -5z
m-204 -21 c-13 -2 -33 -2 -45 0 -13 2 -3 4 22 4 25 0 35 -2 23 -4z m2057 -8
c7 -9 10 -19 6 -22 -8 -9 -38 9 -44 25 -5 17 23 15 38 -3z m-1740 -14 c17 -33
12 -61 -10 -61 -11 0 -20 6 -20 14 0 8 -5 16 -11 18 -9 3 -9 10 0 26 14 27 27
28 41 3z m1386 -8 c-8 -8 -36 5 -36 17 0 7 6 7 21 0 11 -7 18 -14 15 -17z m44
17 c0 -5 -5 -10 -11 -10 -5 0 -7 5 -4 10 3 6 8 10 11 10 2 0 4 -4 4 -10z
m-1310 -30 c0 -5 -4 -10 -10 -10 -5 0 -10 5 -10 10 0 6 5 10 10 10 6 0 10 -4
10 -10z m1584 -6 c4 -10 1 -14 -6 -12 -15 5 -23 28 -10 28 5 0 13 -7 16 -16z
m-99 -10 c18 -19 17 -21 -10 -26 -14 -2 -20 3 -21 20 -2 26 8 28 31 6z m-1100
-4 c3 -6 -1 -7 -9 -4 -18 7 -21 14 -7 14 6 0 13 -4 16 -10z m1015 -51 c0 -15
-22 -21 -33 -10 -16 16 -62 14 -77 -4 -15 -18 -34 -20 -24 -2 5 7 -2 6 -16 -4
-23 -15 -44 -49 -22 -35 5 3 13 -1 16 -10 9 -24 2 -27 -28 -13 -28 13 -35 43
-11 53 8 3 15 12 15 21 0 8 7 15 15 15 9 0 18 7 21 15 5 11 15 14 39 9 19 -3
35 -1 39 5 7 11 66 -25 66 -40z m171 26 c-1 -15 -24 -12 -29 3 -3 9 2 13 12
10 10 -1 17 -7 17 -13z m169 -1 c0 -11 -5 -14 -16 -10 -9 3 -27 6 -40 6 -13 0
-24 5 -24 10 0 6 18 10 40 10 30 0 40 -4 40 -16z m-1176 -46 c26 -35 47 -96
28 -84 -6 3 -13 20 -17 36 -4 16 -17 38 -31 49 -25 20 -30 31 -15 31 6 0 21
-15 35 -32z m1106 -13 c10 -12 10 -15 -4 -15 -9 0 -16 7 -16 15 0 8 2 15 4 15
2 0 9 -7 16 -15z m128 8 c-10 -2 -28 -2 -40 0 -13 2 -5 4 17 4 22 1 32 -1 23
-4z m-158 -13 c0 -5 -2 -10 -4 -10 -3 0 -8 5 -11 10 -3 6 -1 10 4 10 6 0 11
-4 11 -10z m607 -56 c-3 -3 -12 -4 -19 -1 -8 3 -5 6 6 6 11 1 17 -2 13 -5z
m-1459 -98 c-2 -19 -1 -33 3 -30 4 2 12 -3 19 -11 11 -13 8 -15 -14 -13 -28 3
-30 8 -20 57 9 42 17 40 12 -3z m423 11 c-10 -9 -11 -8 -5 6 3 10 9 15 12 12
3 -3 0 -11 -7 -18z m248 -37 c1 -13 0 -13 -9 0 -5 8 -9 24 -9 35 l0 20 9 -20
c5 -11 9 -27 9 -35z m-704 -50 c3 -5 -1 -20 -9 -32 -17 -26 -9 -85 16 -115 11
-14 11 -16 -2 -11 -12 4 -15 -2 -12 -33 3 -24 0 -39 -7 -39 -6 0 -11 5 -11 11
0 6 -7 17 -15 25 -20 20 -19 92 1 155 16 48 27 59 39 39z m-530 -256 c5 -38 5
-38 -4 -6 -5 19 -14 39 -20 45 -6 6 -11 16 -11 21 0 28 31 -26 35 -60z m445
32 c0 -2 -7 -7 -16 -10 -8 -3 -12 -2 -9 4 6 10 25 14 25 6z m-36 -38 c-4 -6
-10 -5 -15 3 -14 22 -10 33 6 19 8 -7 12 -17 9 -22z m190 -50 c21 -30 22 -60
1 -32 -14 18 -14 17 -9 -16 l5 -35 -25 40 c-14 22 -26 46 -26 53 0 20 38 14
54 -10z m-174 -51 c0 -5 -4 -5 -10 -2 -5 3 -10 14 -10 23 0 15 2 15 10 2 5 -8
10 -19 10 -23z m977 -22 c9 -24 -1 -27 -15 -5 -8 13 -8 20 -2 20 6 0 13 -7 17
-15z m-815 -47 c-7 -7 -12 -8 -12 -2 0 14 12 26 19 19 2 -3 -1 -11 -7 -17z
m-487 -53 c6 -29 6 -29 -10 4 -8 19 -21 42 -27 50 -7 9 -2 7 9 -4 12 -11 24
-33 28 -50z m465 26 c0 -4 -9 -20 -20 -34 -11 -14 -20 -32 -20 -40 0 -17 47
-104 61 -112 5 -4 9 -11 9 -17 0 -18 -41 25 -61 64 -23 45 -24 96 -3 126 15
22 34 30 34 13z m-430 -36 c14 -19 14 -19 -2 -6 -10 7 -18 18 -18 24 0 6 1 8
3 6 1 -2 9 -13 17 -24z m285 -4 c16 -19 16 -20 -2 -18 -11 0 -19 8 -19 19 0
22 -1 22 21 -1z m29 -47 c3 -8 2 -12 -4 -9 -6 3 -10 10 -10 16 0 14 7 11 14
-7z m979 -7 c3 -8 1 -20 -4 -28 -6 -10 -9 -7 -9 14 0 29 5 35 13 14z m-1326
-19 c-3 -8 -6 -5 -6 6 -1 11 2 17 5 13 3 -3 4 -12 1 -19z m304 -30 c11 -21 11
-22 -4 -9 -10 7 -17 17 -17 22 0 15 9 10 21 -13z m992 -21 c-5 -25 -9 -28 -37
-24 -17 2 -39 7 -48 11 -21 9 -25 31 -4 23 7 -3 31 1 52 8 22 7 40 12 41 12 1
-1 -1 -15 -4 -30z m-1233 3 c0 -5 -5 -10 -11 -10 -5 0 -7 5 -4 10 3 6 8 10 11
10 2 0 4 -4 4 -10z m1285 -20 c3 -5 -1 -10 -10 -10 -9 0 -13 5 -10 10 3 6 8
10 10 10 2 0 7 -4 10 -10z m-332 -57 c-7 -2 -19 -2 -25 0 -7 3 -2 5 12 5 14 0
19 -2 13 -5z m-903 -95 c0 -5 -7 -3 -15 6 -8 8 -15 18 -15 22 0 3 7 1 15 -6 8
-7 15 -17 15 -22z m-390 -39 c0 -18 -2 -19 -15 -9 -15 12 -12 30 6 30 5 0 9
-10 9 -21z m190 -64 c0 -5 -5 -3 -10 5 -5 8 -10 20 -10 25 0 6 5 3 10 -5 5 -8
10 -19 10 -25z m203 -25 c-7 -8 -22 24 -16 34 4 5 10 1 13 -10 4 -10 6 -21 3
-24z m39 -62 c-6 -6 -7 0 -4 19 5 21 7 23 10 9 2 -10 0 -22 -6 -28z m-192 -38
c0 -14 7 -34 15 -44 8 -11 15 -24 15 -30 0 -17 -34 36 -47 74 -18 49 -17 69 2
44 8 -10 15 -30 15 -44z m491 8 c11 -21 11 -22 -4 -9 -10 7 -17 17 -17 22 0
15 9 10 21 -13z m637 -21 c12 -13 24 -38 27 -57 4 -27 3 -30 -4 -15 -5 11 -10
14 -10 7 -1 -9 -11 -12 -28 -10 -24 2 -29 8 -31 36 -6 63 10 77 46 39z m-1354
-32 c-4 -8 -11 -15 -16 -15 -6 0 -5 6 2 15 7 8 14 15 16 15 2 0 1 -7 -2 -15z
m-39 -14 c-3 -10 -1 -31 5 -47 9 -27 9 -28 -5 -10 -16 21 -18 36 -9 60 9 22
17 20 9 -3z m445 -96 c0 -7 7 -15 15 -19 8 -3 15 -15 15 -26 0 -20 -1 -20 -16
-6 -8 9 -24 20 -33 26 -13 6 -17 17 -13 35 3 20 7 23 18 14 8 -6 14 -17 14
-24z m-170 -30 c0 -5 -5 -3 -10 5 -5 8 -10 20 -10 25 0 6 5 3 10 -5 5 -8 10
-19 10 -25z m1441 13 c11 -21 11 -22 -4 -9 -10 7 -17 17 -17 22 0 15 9 10 21
-13z m-524 -38 c32 -25 143 -29 143 -6 0 22 32 24 70 5 l35 -18 -32 -1 c-17 0
-44 -4 -58 -10 -18 -7 -56 -6 -120 2 -87 10 -93 12 -82 29 14 23 13 23 44 -1z
m493 -1 c0 -5 -4 -9 -10 -9 -5 0 -10 7 -10 16 0 8 5 12 10 9 6 -3 10 -10 10
-16z m-1232 -10 c2 -5 10 -9 18 -9 8 0 14 -9 14 -20 0 -27 -2 -26 -44 16 -28
28 -31 34 -13 28 12 -4 24 -11 25 -15z m1188 -56 c-9 -26 -19 -37 -30 -35 -19
3 -21 -19 -3 -37 10 -10 9 -11 -6 -6 -13 6 -18 0 -23 -24 -4 -17 -11 -34 -17
-38 -6 -3 -7 -1 -3 6 4 6 1 18 -7 26 -13 13 -15 10 -14 -21 1 -23 -5 -41 -15
-48 -10 -7 -16 -25 -16 -44 1 -17 -3 -37 -9 -44 -20 -27 -21 -44 -2 -44 11 0
19 4 19 9 0 11 41 46 54 47 6 0 -2 -13 -17 -28 -33 -34 -34 -49 -5 -79 12 -13
19 -23 15 -23 -3 0 -20 15 -37 33 -44 46 -51 33 -54 -100 -1 -70 -17 -72 -18
-3 -1 3 2 20 6 39 5 29 4 32 -10 21 -23 -20 -72 -22 -110 -4 -28 13 -37 14
-49 4 -12 -10 -19 -10 -27 -2 -7 7 -19 12 -28 12 -18 1 -64 39 -73 63 -5 13 1
18 21 23 15 4 32 10 37 14 6 4 48 17 94 29 101 26 100 26 94 50 -3 13 2 23 16
30 12 7 21 18 21 26 0 8 5 15 10 15 6 0 10 26 10 59 0 57 2 60 34 80 36 22 51
27 41 12 -3 -5 2 -16 10 -24 8 -9 15 -22 15 -29 1 -7 9 3 19 22 11 19 30 38
42 41 13 4 25 7 26 8 1 1 -4 -16 -11 -36z m-375 -39 c11 -14 13 -14 21 1 10
16 78 19 78 2 0 -4 5 -5 11 -1 7 4 9 -2 7 -17 -3 -21 -12 -25 -76 -38 -77 -14
-102 -8 -102 28 0 37 38 53 61 25z m-778 -48 c10 11 8 -9 -3 -26 -8 -13 -10
-13 -10 1 0 9 -7 22 -15 29 -8 7 -15 22 -15 34 1 17 4 15 18 -12 10 -18 21
-30 25 -26z m-6 32 c-3 -8 -6 -5 -6 6 -1 11 2 17 5 13 3 -3 4 -12 1 -19z m713
-9 c0 -24 -23 -21 -28 4 -2 10 3 17 12 17 10 0 16 -9 16 -21z m-150 -19 c0
-11 -7 -20 -15 -20 -8 0 -15 -8 -16 -17 0 -10 -3 -13 -5 -6 -3 7 -11 10 -19 7
-7 -3 -16 -1 -20 5 -9 16 -25 13 -25 -4 0 -24 -25 -17 -40 10 -17 31 -10 39
22 25 19 -9 32 -8 59 3 47 21 59 20 59 -3z m90 10 c0 -5 -4 -10 -10 -10 -5 0
-10 5 -10 10 0 6 5 10 10 10 6 0 10 -4 10 -10z m-933 -82 c-3 -7 -5 -2 -5 12
0 14 2 19 5 13 2 -7 2 -19 0 -25z m1142 22 c-27 -15 -99 -24 -99 -12 0 6 17
12 38 14 20 2 46 4 57 5 17 2 17 0 4 -7z m-911 -36 c-9 -9 -22 -14 -30 -11 -8
3 -4 8 12 15 35 15 37 14 18 -4z m-182 -49 c-4 -14 -11 -25 -16 -25 -5 0 -7 7
-5 15 3 8 7 22 10 31 9 26 18 8 11 -21z m274 -4 c-11 -21 -30 -37 -30 -25 0 8
30 44 37 44 2 0 -1 -9 -7 -19z m595 -119 c5 -12 13 -22 18 -22 5 0 23 -11 40
-24 18 -13 43 -26 57 -28 14 -2 26 -11 28 -21 3 -15 -1 -17 -25 -12 -45 10
-83 27 -83 36 0 5 -7 9 -15 9 -17 0 -75 76 -75 98 0 13 3 13 23 0 12 -8 26
-25 32 -36z m515 -11 c0 -5 -7 -11 -14 -14 -10 -4 -13 -1 -9 9 6 15 23 19 23
5z m-1385 -19 c-3 -3 -11 0 -18 7 -9 10 -8 11 6 5 10 -3 15 -9 12 -12z m1075
-59 c0 -19 -30 -28 -40 -12 -11 18 -6 25 19 25 12 0 21 -6 21 -13z m-1450 -78
c0 -5 -5 -3 -10 5 -5 8 -10 20 -10 25 0 6 5 3 10 -5 5 -8 10 -19 10 -25z m180
-33 c0 -23 -17 -4 -23 25 -5 26 -4 26 9 8 8 -10 14 -25 14 -33z m-282 16 c7
-7 12 -16 12 -20 0 -15 -15 -8 -28 12 -13 22 -3 27 16 8z m1670 -78 c1 -49 -2
-90 -6 -90 -8 0 -42 101 -42 126 0 8 6 23 12 34 25 40 35 22 36 -70z m-1348
44 c0 -27 -18 -23 -22 6 -4 24 -2 27 9 19 7 -7 13 -17 13 -25z m-110 16 c0 -5
-2 -10 -4 -10 -3 0 -8 5 -11 10 -3 6 -1 10 4 10 6 0 11 -4 11 -10z m-150 -27
c16 -9 33 -27 40 -41 10 -23 9 -23 -25 7 -20 17 -40 31 -45 31 -6 0 -10 5 -10
10 0 14 8 13 40 -7z m60 -5 c0 -10 -2 -18 -5 -18 -2 0 -9 8 -14 18 -8 14 -6
19 5 19 7 0 14 -9 14 -19z m1304 -10 c-12 -40 -78 -137 -97 -144 -10 -3 -16
-11 -14 -17 2 -7 -2 -26 -10 -44 -12 -30 -12 -32 4 -26 10 4 23 13 29 21 8 12
17 13 40 4 l29 -10 -27 -1 c-16 -1 -28 -5 -28 -10 0 -12 30 -22 42 -15 8 5 9
-6 5 -34 -5 -44 8 -69 16 -30 3 17 5 14 6 -10 2 -47 24 -96 63 -136 50 -53 58
-64 58 -80 0 -9 5 -35 12 -59 6 -24 8 -56 4 -71 -7 -27 -9 -28 -50 -23 -39 6
-44 4 -55 -19 -6 -14 -14 -24 -19 -22 -41 20 -92 41 -104 42 -20 3 -17 16 4
16 13 0 28 -3 32 -7 4 -4 19 -9 34 -10 21 -3 24 -1 12 7 -13 8 -13 10 0 10 11
0 11 3 2 12 -7 7 -12 25 -12 40 0 19 -5 28 -16 28 -15 0 -15 2 0 25 9 14 12
25 7 25 -5 0 -11 9 -14 20 -3 11 -11 20 -19 20 -8 0 -9 -3 -2 -8 6 -4 14 -15
17 -26 6 -16 3 -18 -20 -13 -18 3 -31 0 -40 -11 -10 -14 -8 -20 10 -34 12 -9
18 -20 13 -25 -5 -4 -11 -2 -13 5 -3 6 -9 12 -15 12 -6 0 -8 -6 -5 -14 3 -8
-3 -31 -14 -52 -10 -21 -19 -44 -19 -51 0 -16 -26 -17 -36 -2 -4 8 -9 7 -16
-2 -6 -9 -7 -2 -4 21 6 32 5 33 -5 10 -6 -14 -15 -33 -20 -42 -7 -14 -5 -18 8
-18 13 0 14 -3 6 -11 -18 -18 -42 -4 -36 21 5 20 4 21 -16 9 -15 -10 -26 -11
-37 -4 -13 8 -24 4 -49 -20 -27 -24 -34 -39 -37 -75 -3 -39 -6 -45 -25 -44
-28 1 -31 -22 -4 -29 27 -7 34 -85 9 -98 -10 -5 -17 -13 -17 -17 3 -19 -2 -25
-11 -12 -8 13 -10 12 -10 -4 0 -17 -4 -15 -22 10 -40 53 -82 98 -134 142 l-51
43 -7 92 c-4 51 -8 101 -10 112 -2 11 -4 26 -5 33 0 7 -5 11 -9 8 -10 -6 -10
-9 -19 122 -5 56 -6 102 -3 102 3 0 27 -23 54 -51 56 -59 97 -79 163 -79 71 0
110 26 181 121 35 46 67 83 70 82 4 -2 7 5 7 15 0 36 91 162 117 162 12 0 57
52 58 68 0 6 3 12 8 12 4 0 16 14 27 30 24 35 39 39 29 8z m-1223 -40 c9 -17
7 -18 -18 -12 -39 9 -52 22 -46 44 5 18 7 18 29 3 14 -9 29 -24 35 -35z m1529
42 c0 -5 -2 -10 -4 -10 -3 0 -8 5 -11 10 -3 6 -1 10 4 10 6 0 11 -4 11 -10z
m-2013 -52 c-3 -8 -6 -5 -6 6 -1 11 2 17 5 13 3 -3 4 -12 1 -19z m-74 -47 c3
9 6 9 6 2 1 -6 -3 -14 -9 -18 -10 -6 -40 45 -40 67 1 7 9 -4 19 -26 12 -25 20
-34 24 -25z m657 14 c0 -14 -4 -25 -10 -25 -5 0 -10 11 -10 25 0 14 5 25 10
25 6 0 10 -11 10 -25z m1399 -65 c1 -13 0 -13 -9 0 -5 8 -9 26 -9 40 l1 25 8
-25 c4 -14 8 -32 9 -40z m-1999 19 c0 -14 -17 -10 -23 5 -4 10 -1 13 9 9 7 -3
14 -9 14 -14z m-35 -29 c3 -5 1 -10 -4 -10 -6 0 -11 5 -11 10 0 6 2 10 4 10 3
0 8 -4 11 -10z m75 -32 c0 -4 -9 0 -20 9 -11 10 -20 21 -20 25 0 4 9 0 20 -9
11 -10 20 -21 20 -25z m2010 -64 c0 -4 -9 1 -20 11 -11 10 -20 25 -20 33 0 9
7 6 20 -11 11 -14 20 -29 20 -33z m-1930 26 c0 -5 -7 -10 -16 -10 -8 0 -12 5
-9 10 3 6 10 10 16 10 5 0 9 -4 9 -10z m-84 -19 c0 -16 -3 -17 -14 -9 -12 10
-7 19 13 28 1 0 1 -9 1 -19z m-169 -13 c-3 -8 -6 -5 -6 6 -1 11 2 17 5 13 3
-3 4 -12 1 -19z m2270 -14 c-3 -3 -12 -4 -19 -1 -8 3 -5 6 6 6 11 1 17 -2 13
-5z m-16 -266 c31 -32 66 -36 85 -11 13 19 31 12 19 -6 -13 -22 -80 -49 -100
-41 -11 4 -24 5 -29 2 -4 -2 -12 2 -17 9 -5 8 -9 10 -9 4 0 -5 5 -17 10 -25 5
-8 10 -11 10 -6 0 20 29 -30 30 -50 0 -23 -35 -40 -46 -22 -3 5 -12 7 -19 4
-17 -6 -27 20 -19 47 4 13 2 17 -5 13 -6 -4 -11 -14 -11 -22 0 -8 -4 -14 -10
-14 -5 0 -10 9 -10 21 0 15 -4 19 -16 15 -15 -6 -15 -4 -2 16 8 13 20 43 27
68 20 68 29 75 60 48 14 -13 37 -35 52 -50z m-370 -230 l35 -33 -15 -52 c-10
-33 -23 -55 -36 -61 -23 -11 -33 -3 -53 41 -16 37 -15 47 3 47 18 0 19 9 5 46
-8 21 -8 29 2 36 19 12 21 11 59 -24z m-1504 7 c4 -14 -55 -17 -63 -4 -4 8 1
9 16 4 16 -5 20 -4 15 5 -5 8 -1 11 10 8 10 -1 20 -7 22 -13z m1308 5 c-27
-12 -35 -12 -35 0 0 6 12 10 28 9 24 0 25 -1 7 -9z m532 -85 c5 -60 -8 -51
-27 17 -14 55 -5 101 12 58 6 -14 12 -47 15 -75z m-1817 -11 c0 -8 -5 -12 -10
-9 -6 4 -8 11 -5 16 9 14 15 11 15 -7z m1560 -28 c0 -8 -7 -16 -15 -20 -13 -4
-14 -2 -5 14 13 23 20 26 20 6z m-700 -101 c22 -14 43 -25 48 -25 4 0 23 -16
42 -35 19 -19 28 -35 21 -35 -10 0 -11 -3 -3 -13 6 -7 8 -24 5 -37 -4 -16 -3
-21 5 -16 8 5 7 -8 -2 -38 -9 -29 -10 -48 -4 -54 6 -6 6 -12 -1 -16 -6 -4 -12
0 -12 8 -1 9 -3 21 -4 26 -1 6 -3 16 -4 24 -1 15 -41 15 -90 0 -21 -6 -23 -5
-19 14 4 12 2 22 -3 22 -5 0 -9 8 -9 18 0 10 -5 23 -11 29 -16 16 -25 153 -10
153 6 0 29 -11 51 -25z m1030 -21 c0 -6 -7 -11 -15 -11 -16 0 -18 7 -9 32 5
13 8 14 15 3 5 -7 9 -18 9 -24z m-374 -29 c-9 -9 -17 -35 -17 -58 l-2 -42 -7
45 c-7 39 -5 47 13 62 26 20 36 15 13 -7z m118 -183 c-14 -59 -19 -70 -27 -56
-7 13 -7 19 1 22 7 2 12 11 12 20 -1 15 -3 14 -15 -2 -8 -11 -13 -29 -10 -40
5 -17 3 -16 -9 4 -11 18 -15 21 -16 8 0 -9 -4 -20 -10 -23 -6 -4 -7 1 -3 11 4
11 3 15 -5 10 -6 -3 -14 -1 -18 5 -5 8 -3 9 6 4 10 -6 12 -4 7 9 -4 10 -3 15
3 11 6 -3 10 1 10 10 0 9 11 33 25 53 14 20 33 59 42 87 l18 50 3 -55 c2 -30
-5 -88 -14 -128z m-817 6 c-3 -8 -6 -5 -6 6 -1 11 2 17 5 13 3 -3 4 -12 1 -19z
m93 6 c0 -8 -4 -12 -10 -9 -5 3 -10 10 -10 16 0 5 5 9 10 9 6 0 10 -7 10 -16z
m-17 -22 c14 -3 -2 -19 -23 -25 -13 -3 -24 1 -30 12 -8 15 -5 18 18 16 15 -1
31 -3 35 -3z m122 -2 c3 -5 1 -10 -4 -10 -6 0 -11 5 -11 10 0 6 2 10 4 10 3 0
8 -4 11 -10z m-51 -49 c3 -5 0 -13 -7 -19 -10 -8 -13 -6 -13 9 0 20 11 25 20
10z"/>
<path d="M1690 3183 c0 -5 5 -15 10 -23 8 -12 10 -11 10 8 0 12 -4 22 -10 22
-5 0 -10 -3 -10 -7z"/>
<path d="M2625 1980 c3 -5 8 -10 11 -10 2 0 4 5 4 10 0 6 -5 10 -11 10 -5 0
-7 -4 -4 -10z"/>
<path d="M2545 1940 c3 -5 8 -10 11 -10 2 0 4 5 4 10 0 6 -5 10 -11 10 -5 0
-7 -4 -4 -10z"/>
<path d="M2540 1909 c0 -5 5 -7 10 -4 6 3 10 8 10 11 0 2 -4 4 -10 4 -5 0 -10
-5 -10 -11z"/>
<path d="M2566 1905 c-9 -26 -7 -32 5 -12 6 10 9 21 6 23 -2 3 -7 -2 -11 -11z"/>
<path d="M2450 1789 c0 -5 5 -7 10 -4 6 3 10 8 10 11 0 2 -4 4 -10 4 -5 0 -10
-5 -10 -11z"/>
<path d="M2431 1334 c0 -11 3 -14 6 -6 3 7 2 16 -1 19 -3 4 -6 -2 -5 -13z"/>
<path d="M1646 317 c3 -10 9 -15 12 -12 3 3 0 11 -7 18 -10 9 -11 8 -5 -6z"/>
<path d="M0 3590 c0 -5 18 -10 40 -10 22 0 40 5 40 10 0 6 -18 10 -40 10 -22
0 -40 -4 -40 -10z"/>
<path d="M240 3580 c0 -5 18 -10 40 -10 22 0 40 5 40 10 0 6 -18 10 -40 10
-22 0 -40 -4 -40 -10z"/>
<path d="M80 3541 c0 -5 -19 -12 -42 -14 -41 -3 -41 -4 10 -5 48 -2 66 8 42
23 -5 3 -10 2 -10 -4z"/>
<path d="M960 3480 c0 -5 18 -10 40 -10 22 0 40 5 40 10 0 6 -18 10 -40 10
-22 0 -40 -4 -40 -10z"/>
<path d="M698 3473 c7 -3 16 -2 19 1 4 3 -2 6 -13 5 -11 0 -14 -3 -6 -6z"/>
<path d="M2553 3452 c-7 -12 -8 -24 -2 -33 7 -11 9 -11 9 4 0 9 5 17 10 17 6
0 13 -8 16 -17 14 -41 29 -73 35 -73 3 0 19 -11 35 -25 16 -14 23 -25 17 -25
-16 0 -12 -33 7 -55 13 -16 15 -16 27 1 10 14 13 14 17 3 2 -8 8 -23 12 -34 7
-18 8 -17 12 8 2 15 8 27 13 27 5 0 9 12 9 26 0 19 4 25 15 20 11 -4 15 2 15
26 0 29 -1 30 -13 13 -14 -18 -43 -13 -31 6 3 5 9 7 14 4 9 -6 23 25 15 34 -3
3 -10 -1 -15 -9 -8 -12 -10 -11 -10 6 0 12 -7 24 -15 28 -8 3 -15 12 -15 20 0
10 -6 13 -15 9 -14 -5 -14 -7 0 -23 18 -19 12 -45 -13 -55 -10 -4 -22 2 -34
17 -9 13 -22 24 -27 24 -6 1 -18 2 -28 3 -15 1 -10 16 5 16 4 0 13 4 20 9 11
6 7 13 -15 27 -35 24 -55 24 -70 1z m184 -145 c-5 -15 -29 -16 -34 -2 -2 6 6
11 18 12 12 1 19 -3 16 -10z"/>
<path d="M670 3430 c0 -5 4 -10 9 -10 6 0 13 5 16 10 3 6 -1 10 -9 10 -9 0
-16 -4 -16 -10z"/>
<path d="M2440 3406 c0 -2 7 -9 15 -16 9 -7 15 -8 15 -2 0 5 -7 12 -15 16 -8
3 -15 4 -15 2z"/>
<path d="M2918 3363 c6 -2 18 -2 25 0 6 3 1 5 -13 5 -14 0 -19 -2 -12 -5z"/>
<path d="M3800 3295 c0 -8 9 -15 20 -15 11 0 20 7 20 15 0 8 -9 15 -20 15 -11
0 -20 -7 -20 -15z"/>
<path d="M3800 3250 c0 -11 7 -20 15 -20 8 0 15 6 15 14 0 8 -7 16 -15 20 -10
4 -15 -1 -15 -14z"/>
<path d="M2630 3194 c6 -25 5 -41 -1 -45 -6 -4 -8 -21 -3 -45 7 -39 7 -39 -14
-21 -20 18 -21 18 -30 0 -12 -23 -5 -43 12 -37 9 3 18 -7 24 -25 6 -17 15 -31
21 -31 5 0 20 -17 32 -37 14 -22 25 -31 27 -23 3 7 -3 19 -12 26 -10 6 -13 15
-8 18 5 3 15 -1 22 -9 7 -8 17 -15 23 -15 5 0 2 9 -8 20 -10 11 -23 19 -29 18
-20 -4 -56 26 -56 46 0 19 0 19 13 1 8 -10 19 -15 24 -12 6 4 18 -2 27 -12 10
-11 25 -17 37 -14 19 5 27 23 10 23 -5 0 -13 9 -16 20 -6 18 -8 19 -22 4 -14
-14 -17 -13 -28 8 -12 24 -9 52 5 43 5 -3 12 0 16 6 4 7 3 10 -2 7 -5 -3 -15
0 -21 8 -8 8 -9 15 -3 19 6 3 10 1 10 -5 0 -6 5 -8 10 -5 6 4 9 20 6 37 -5 35
-16 49 -16 22 -1 -16 -6 -13 -30 15 l-28 33 8 -38z m90 -179 c0 -8 -2 -15 -4
-15 -2 0 -6 7 -10 15 -3 8 -1 15 4 15 6 0 10 -7 10 -15z"/>
<path d="M2780 3206 c0 -21 26 -40 33 -23 3 8 2 18 -1 23 -11 15 -32 15 -32 0z"/>
<path d="M2779 3125 c0 0 -2 -10 -3 -22 -2 -13 2 -23 7 -23 5 0 16 -8 23 -17
11 -15 13 -16 14 -2 0 8 -6 21 -12 28 -11 10 -9 15 5 26 17 12 16 13 -7 11
-15 0 -26 -1 -27 -1z"/>
<path d="M2544 3046 c-9 -9 -8 -19 2 -37 13 -24 13 -23 14 14 0 41 0 42 -16
23z"/>
<path d="M2483 2998 c-1 -39 -1 -41 7 -14 5 16 6 36 1 43 -5 9 -8 -2 -8 -29z"/>
<path d="M2851 2903 c0 -17 4 -35 9 -38 6 -3 10 0 10 8 0 8 8 18 17 21 13 5
14 9 4 19 -9 9 -14 9 -20 -2 -7 -11 -10 -10 -14 5 -3 12 -5 7 -6 -13z"/>
<path d="M2540 2900 c0 -5 5 -10 11 -10 5 0 7 5 4 10 -3 6 -8 10 -11 10 -2 0
-4 -4 -4 -10z"/>
<path d="M2685 2890 c3 -5 11 -10 16 -10 6 0 7 5 4 10 -3 6 -11 10 -16 10 -6
0 -7 -4 -4 -10z"/>
<path d="M2815 2891 c-3 -5 -1 -12 5 -16 5 -3 10 1 10 9 0 18 -6 21 -15 7z"/>
<path d="M2871 2834 c0 -11 3 -14 6 -6 3 7 2 16 -1 19 -3 4 -6 -2 -5 -13z"/>
<path d="M2747 2821 c-3 -12 -2 -23 3 -26 11 -7 20 19 10 34 -5 9 -9 7 -13 -8z"/>
<path d="M2721 2823 c-1 -6 -4 -20 -7 -30 -5 -17 -5 -17 6 0 6 10 9 23 6 30
-3 9 -5 9 -5 0z"/>
<path d="M2974 2798 c-1 -13 -5 -34 -9 -48 -6 -24 -6 -24 9 -6 9 11 16 32 16
48 0 33 -14 38 -16 6z"/>
<path d="M2680 2760 c0 -5 5 -10 10 -10 6 0 10 5 10 10 0 6 -4 10 -10 10 -5 0
-10 -4 -10 -10z"/>
<path d="M2855 2750 c-3 -5 3 -10 14 -10 11 0 23 5 26 10 3 6 -3 10 -14 10
-11 0 -23 -4 -26 -10z"/>
<path d="M2830 2705 c-9 -24 -30 -35 -30 -16 0 6 -9 9 -20 8 -11 -1 -20 -5
-20 -9 0 -4 9 -8 20 -8 11 0 20 -4 20 -9 0 -5 10 -13 23 -16 12 -4 30 -17 39
-29 l18 -21 0 22 c0 12 3 30 6 40 6 16 5 16 -9 -2 -16 -20 -16 -20 -17 2 0 12
6 24 13 27 6 3 3 4 -8 3 -14 -1 -19 3 -17 16 4 25 -7 21 -18 -8z"/>
<path d="M2905 2700 c-3 -5 -1 -10 4 -10 6 0 11 5 11 10 0 6 -2 10 -4 10 -3 0
-8 -4 -11 -10z"/>
<path d="M2905 2508 c0 -17 5 -33 12 -35 7 -3 9 3 6 16 -4 16 -1 19 19 14 l23
-5 -25 21 c-33 27 -36 26 -35 -11z"/>
<path d="M3023 2466 c9 -13 17 -41 20 -62 l4 -39 1 37 c2 43 -13 88 -29 88 -7
0 -6 -8 4 -24z"/>
<path d="M2910 2375 c0 -15 -7 -39 -15 -54 -13 -26 -13 -29 3 -33 14 -4 17 4
20 54 2 32 1 58 -2 58 -3 0 -6 -11 -6 -25z"/>
<path d="M2931 2354 c0 -11 3 -14 6 -6 3 7 2 16 -1 19 -3 4 -6 -2 -5 -13z"/>
<path d="M3021 2281 c-7 -5 -10 -14 -7 -20 11 -18 25 -13 23 9 -1 11 -1 20 -2
20 0 0 -6 -4 -14 -9z"/>
<path d="M2765 2130 c-3 -6 1 -7 9 -4 18 7 21 14 7 14 -6 0 -13 -4 -16 -10z"/>
<path d="M3021 1762 c0 -4 4 -16 9 -27 6 -13 9 -15 9 -5 1 10 6 8 17 -8 20
-29 44 -40 73 -33 23 6 23 7 -15 33 -43 29 -94 52 -93 40z"/>
<path d="M2790 1600 c0 -5 5 -10 11 -10 5 0 7 5 4 10 -3 6 -8 10 -11 10 -2 0
-4 -4 -4 -10z"/>
<path d="M2906 1582 c-3 -6 -1 -14 5 -17 15 -10 25 3 12 16 -7 7 -13 7 -17 1z"/>
<path d="M3254 1540 c3 -19 1 -58 -5 -87 -11 -45 -15 -52 -31 -47 -18 5 -18 4
-6 -18 7 -12 19 -27 26 -31 6 -4 12 -18 12 -30 0 -17 2 -19 9 -8 6 9 6 24 0
38 -5 14 -9 32 -9 41 0 15 2 15 10 2 5 -8 10 -11 10 -6 0 5 6 3 13 -3 8 -6 17
-8 20 -4 4 3 7 1 7 -5 0 -7 -6 -12 -14 -12 -21 0 -30 -20 -17 -33 9 -9 14 -8
20 2 20 31 34 -34 37 -169 2 -105 1 -129 -8 -110 -9 20 -12 22 -15 8 -2 -9 4
-36 14 -60 14 -32 17 -55 12 -88 -3 -25 -5 -48 -3 -51 2 -4 -11 -9 -29 -12
-17 -2 -33 -1 -35 4 -2 5 -10 9 -18 9 -8 0 -14 8 -14 19 0 10 -6 23 -12 29
-10 8 -13 1 -15 -31 -1 -23 -4 -59 -8 -79 -6 -31 -3 -41 19 -62 16 -17 36 -26
56 -26 17 0 30 -5 30 -12 0 -9 4 -8 11 2 9 12 10 12 5 -3 -3 -10 -6 -27 -6
-38 0 -10 -7 -19 -15 -19 -8 0 -15 -7 -15 -16 0 -8 -4 -13 -9 -10 -11 7 -66
-75 -62 -93 1 -9 -3 -12 -13 -8 -8 3 -25 -2 -38 -12 -13 -10 -49 -33 -80 -51
-63 -35 -70 -41 -35 -32 19 5 20 4 8 -11 -11 -14 -66 -47 -78 -47 -9 0 -1 29
10 33 7 2 6 3 -3 3 -8 -1 -19 -16 -23 -36 -8 -31 -4 -44 32 -109 23 -41 41
-80 41 -87 0 -8 4 -14 9 -14 11 0 -2 54 -17 73 -5 7 -15 34 -22 60 -17 61 -2
82 33 49 28 -26 40 -27 58 -6 12 15 11 16 -9 10 -24 -8 -52 7 -52 28 0 6 27
26 60 45 33 19 84 58 113 87 l53 52 -1 -31 c-1 -18 -7 -42 -13 -53 -14 -26
-76 -82 -108 -96 -13 -6 -24 -15 -24 -20 0 -11 48 19 87 56 34 30 57 30 32 -1
-9 -11 -10 -14 -1 -9 7 4 12 2 12 -6 0 -7 -9 -19 -20 -26 -21 -13 -22 -44 -2
-64 9 -9 13 -7 18 5 13 34 19 15 17 -52 -1 -50 -7 -76 -20 -92 -59 -73 -124
-126 -142 -114 -6 3 -15 24 -21 46 -6 23 -14 39 -17 36 -7 -8 17 -106 28 -112
9 -6 44 11 76 39 12 10 27 15 34 11 7 -5 10 -4 6 1 -3 5 8 25 25 44 34 38 34
32 -1 -60 -12 -30 -21 -56 -21 -57 0 -2 176 -3 390 -3 l390 0 0 396 0 397
-310 -5 c-170 -3 -313 -2 -317 1 -5 3 -9 92 -9 196 0 105 -6 240 -13 300 -12
97 -16 111 -32 112 -27 2 -49 28 -48 55 1 23 1 23 9 -2 7 -21 8 -22 9 -5 2 19
3 19 21 -4 11 -13 20 -21 20 -17 0 17 -45 123 -57 136 -14 13 -15 11 -9 -20z
m15 -706 c2 -2 -2 -10 -9 -19 -7 -8 -9 -15 -5 -15 4 0 1 -7 -6 -17 -11 -13
-11 -17 -1 -20 6 -3 12 -9 12 -14 0 -14 -40 14 -46 33 -2 9 -2 28 2 42 5 22
10 25 28 20 11 -4 23 -8 25 -10z m48 -216 c-3 -8 -6 -5 -6 6 -1 11 2 17 5 13
3 -3 4 -12 1 -19z m-18 -123 c-1 -36 -5 -65 -10 -65 -5 0 -9 4 -9 10 0 5 -7 7
-15 4 -8 -4 -15 -2 -15 4 0 5 7 15 15 22 9 7 15 29 15 51 0 22 5 39 10 39 6 0
10 -27 9 -65z m-99 15 c0 -5 -10 -15 -22 -21 -23 -12 -23 -12 -4 10 21 23 26
26 26 11z m-80 -60 c0 -5 -4 -10 -10 -10 -5 0 -10 5 -10 10 0 6 5 10 10 10 6
0 10 -4 10 -10z m183 -102 c-4 -31 -10 -48 -19 -48 -14 0 -14 17 -1 53 4 9 9
24 12 33 10 30 13 10 8 -38z"/>
<path d="M646 1465 c-3 -9 0 -15 9 -15 8 0 15 7 15 15 0 8 -4 15 -9 15 -5 0
-11 -7 -15 -15z"/>
<path d="M791 1360 c-1 -25 15 -42 35 -37 17 4 17 5 -3 12 -12 4 -24 14 -26
24 -4 12 -5 13 -6 1z"/>
<path d="M3293 1240 c0 -25 2 -35 4 -22 2 12 2 32 0 45 -2 12 -4 2 -4 -23z"/>
<path d="M3298 1143 c7 -65 12 -67 12 -5 0 29 -4 52 -9 52 -5 0 -6 -21 -3 -47z"/>
<path d="M3240 1025 c0 -8 5 -15 10 -15 6 0 10 7 10 15 0 8 -4 15 -10 15 -5 0
-10 -7 -10 -15z"/>
<path d="M3213 983 c-26 -5 -28 -11 -12 -33 9 -12 10 -12 5 4 -5 13 -2 17 8
13 8 -3 17 1 20 9 3 8 4 13 3 13 -1 -1 -12 -4 -24 -6z"/>
<path d="M3276 962 c2 -2 -1 -14 -7 -24 -7 -13 -7 -24 -1 -30 6 -6 12 0 16 18
4 15 3 30 -2 34 -5 4 -7 5 -6 2z"/>
<path d="M940 366 c0 -20 62 -46 110 -46 33 0 41 3 38 17 -2 9 -9 18 -16 21
-7 2 -11 -2 -10 -8 4 -15 -48 -24 -57 -10 -3 5 -15 10 -26 10 -24 0 -25 17 -1
23 10 3 6 5 -10 6 -18 1 -28 -4 -28 -13z"/>
<path d="M1018 373 c7 -3 16 -2 19 1 4 3 -2 6 -13 5 -11 0 -14 -3 -6 -6z"/>
<path d="M3185 328 c-4 -10 -17 -18 -30 -18 -24 0 -35 -17 -35 -53 0 -18 -2
-19 -11 -7 -9 13 -10 13 -6 0 4 -14 23 -15 55 -5 6 2 12 17 12 32 0 25 1 25
13 9 17 -24 27 -3 17 34 -6 21 -8 23 -15 8z"/>
<path d="M1008 293 c6 -2 18 -2 25 0 6 3 1 5 -13 5 -14 0 -19 -2 -12 -5z"/>
<path d="M3220 206 c0 -28 1 -29 15 -10 19 25 19 41 0 41 -10 0 -15 -10 -15
-31z"/>
<path d="M3178 166 c-12 -11 -18 -12 -27 -3 -8 8 -11 5 -11 -11 0 -12 4 -22 9
-22 14 0 57 38 50 45 -4 3 -13 -1 -21 -9z"/>
<path d="M880 70 c0 -5 5 -10 10 -10 6 0 10 5 10 10 0 6 -4 10 -10 10 -5 0
-10 -4 -10 -10z"/>
<path d="M918 29 c-25 -14 -22 -29 6 -29 31 0 53 25 30 34 -19 7 -15 8 -36 -5z"/>
</g>
</svg>
